SplineFontDB: 3.0
FontName: ChauPhilomeneOne-Regular
FullName: Chau Philomene One
FamilyName: Chau Philomene One
Weight: Book
Copyright: Copyright (c) 2010-2012, TipoType (produccion.taller@gmail.com), with Reserved Font Name "Chau Philomene"
Version: 1.001
ItalicAngle: 0
UnderlinePosition: -50
UnderlineWidth: 50
Ascent: 800
Descent: 200
sfntRevision: 0x00010042
LayerCount: 2
Layer: 0 1 "Back"  1
Layer: 1 1 "Fore"  0
XUID: [1021 723 548469661 576818]
FSType: 0
OS2Version: 2
OS2_WeightWidthSlopeOnly: 0
OS2_UseTypoMetrics: 1
CreationTime: 1332840222
ModificationTime: 1332866513
PfmFamily: 17
TTFWeight: 400
TTFWidth: 5
LineGap: 0
VLineGap: 0
Panose: 2 0 8 6 4 0 0 2 0 3
OS2TypoAscent: 233
OS2TypoAOffset: 1
OS2TypoDescent: -134
OS2TypoDOffset: 1
OS2TypoLinegap: 0
OS2WinAscent: 0
OS2WinAOffset: 1
OS2WinDescent: 0
OS2WinDOffset: 1
HheadAscent: 0
HheadAOffset: 1
HheadDescent: 0
HheadDOffset: 1
OS2SubXSize: 700
OS2SubYSize: 650
OS2SubXOff: 0
OS2SubYOff: 140
OS2SupXSize: 700
OS2SupYSize: 650
OS2SupXOff: 0
OS2SupYOff: 477
OS2StrikeYSize: 50
OS2StrikeYPos: 250
OS2Vendor: 'PYRS'
OS2CodePages: 00000001.00000000
OS2UnicodeRanges: 800000af.4000004a.00000000.00000000
Lookup: 4 0 1 "'liga' Standard Ligatures in Latin lookup 0"  {"'liga' Standard Ligatures in Latin lookup 0 subtable"  } ['liga' ('latn' <'dflt' > ) ]
Lookup: 1 0 0 "'smcp' Lowercase to Small Capitals in Latin lookup 1"  {"'smcp' Lowercase to Small Capitals in Latin lookup 1 subtable"  } ['smcp' ('latn' <'dflt' > ) ]
Lookup: 1 0 0 "'onum' Oldstyle Figures in Latin lookup 2"  {"'onum' Oldstyle Figures in Latin lookup 2 subtable" ("oldstyle" ) } ['onum' ('latn' <'dflt' > ) ]
Lookup: 258 0 0 "'kern' Horizontal Kerning in Latin lookup 0"  {"'kern' Horizontal Kerning in Latin lookup 0 subtable"  } ['kern' ('latn' <'dflt' > ) ]
DEI: 91125
TtTable: prep
PUSHW_1
 511
SCANCTRL
PUSHB_1
 4
SCANTYPE
EndTTInstrs
ShortTable: maxp 16
  1
  0
  329
  73
  7
  0
  0
  2
  0
  1
  1
  0
  64
  0
  0
  0
EndShort

StartChar: exclam
Encoding: 33 33 4
Width: 247
GlyphClass: 2
Flags: W
LayerCount: 2
Fore
SplineSet
227 723 m 1,0,-1
 162 198 l 1,1,-1
 63 209 l 1,2,-1
 47 225 l 1,3,-1
 63 532 l 1,4,-1
 95 752 l 1,5,-1
 211 739 l 1,6,-1
 227 723 l 1,0,-1
23 56 m 128,-1,8
 23 128 23 128 95 128 c 128,-1,9
 167 128 167 128 167 56 c 128,-1,10
 167 -16 167 -16 95 -16 c 128,-1,7
 23 -16 23 -16 23 56 c 128,-1,8
EndSplineSet
EndChar

StartChar: quotedbl
Encoding: 34 34 5
Width: 323
GlyphClass: 2
Flags: W
LayerCount: 2
Fore
SplineSet
100 523 m 1,0,-1
 74 523 l 1,1,-1
 45 576 l 1,2,-1
 40 710 l 1,3,-1
 58 752 l 1,4,-1
 116 752 l 1,5,-1
 134 710 l 1,6,-1
 129 576 l 1,7,-1
 100 523 l 1,0,-1
249 523 m 1,8,-1
 223 523 l 1,9,-1
 194 576 l 1,10,-1
 189 710 l 1,11,-1
 207 752 l 1,12,-1
 265 752 l 1,13,-1
 283 710 l 1,14,-1
 278 576 l 1,15,-1
 249 523 l 1,8,-1
EndSplineSet
EndChar

StartChar: numbersign
Encoding: 35 35 6
Width: 723
GlyphClass: 2
Flags: W
LayerCount: 2
Fore
SplineSet
26 252 m 1,0,-1
 141 252 l 1,1,-1
 170 372 l 1,2,-1
 97 372 l 1,3,-1
 81 388 l 1,4,-1
 81 496 l 1,5,-1
 201 496 l 1,6,-1
 256 720 l 1,7,-1
 367 720 l 1,8,-1
 383 704 l 1,9,-1
 334 496 l 1,10,-1
 455 496 l 1,11,-1
 510 720 l 1,12,-1
 619 720 l 1,13,-1
 635 704 l 1,14,-1
 588 496 l 1,15,-1
 687 496 l 1,16,-1
 703 480 l 1,17,-1
 703 372 l 1,18,-1
 560 372 l 1,19,-1
 532 252 l 1,20,-1
 632 252 l 1,21,-1
 648 236 l 1,22,-1
 648 128 l 1,23,-1
 504 128 l 1,24,-1
 441 -146 l 1,25,-1
 317 -146 l 1,26,-1
 301 -130 l 1,27,-1
 364 128 l 1,28,-1
 250 128 l 1,29,-1
 187 -146 l 1,30,-1
 62 -146 l 1,31,-1
 46 -130 l 1,32,-1
 110 128 l 1,33,-1
 42 128 l 1,34,-1
 26 144 l 1,35,-1
 26 252 l 1,0,-1
306 372 m 1,36,-1
 278 252 l 1,37,-1
 395 252 l 1,38,-1
 424 372 l 1,39,-1
 306 372 l 1,36,-1
EndSplineSet
EndChar

StartChar: dollar
Encoding: 36 36 7
Width: 393
GlyphClass: 2
Flags: W
LayerCount: 2
Fore
SplineSet
149 505 m 0,0,1
 149 489 149 489 166.5 479 c 128,-1,2
 184 469 184 469 195 463.5 c 128,-1,3
 206 458 206 458 228 448 c 0,4,5
 302 416 302 416 338.5 377 c 128,-1,6
 375 338 375 338 375 300 c 0,7,8
 375 238 375 238 349.5 193 c 128,-1,9
 324 148 324 148 277 128 c 1,10,-1
 278 -1 l 1,11,-1
 154 -1 l 1,12,-1
 138 15 l 1,13,-1
 138 122 l 1,14,15
 65 136 65 136 21 193 c 1,16,17
 17 195 17 195 17 199 c 128,-1,18
 17 203 17 203 18.5 209 c 128,-1,19
 20 215 20 215 42 241.5 c 128,-1,20
 64 268 64 268 77 268 c 0,21,22
 81 268 81 268 85 264 c 0,23,24
 138 222 138 222 188 222 c 0,25,26
 216 222 216 222 230 238 c 128,-1,27
 244 254 244 254 244 273 c 128,-1,28
 244 292 244 292 228 304 c 128,-1,29
 212 316 212 316 188.5 327.5 c 128,-1,30
 165 339 165 339 163 340 c 128,-1,31
 161 341 161 341 157.5 343 c 128,-1,32
 154 345 154 345 151 346 c 0,33,34
 100 371 100 371 64.5 408.5 c 128,-1,35
 29 446 29 446 29 492 c 0,36,37
 29 558 29 558 57 593.5 c 128,-1,38
 85 629 85 629 144 639 c 1,39,-1
 146 768 l 1,40,-1
 257 768 l 1,41,-1
 273 752 l 1,42,-1
 273 634 l 1,43,44
 308 624 308 624 327 610 c 1,45,-1
 328 610 l 1,46,47
 336 605 336 605 337.5 598 c 128,-1,48
 339 591 339 591 336 568 c 0,49,50
 326 510 326 510 312 510 c 0,51,52
 309 510 309 510 306 512 c 2,53,-1
 268 531 l 1,54,55
 225 548 225 548 194 548 c 1,56,57
 149 546 149 546 149 505 c 0,0,1
EndSplineSet
EndChar

StartChar: percent
Encoding: 37 37 8
Width: 698
GlyphClass: 2
Flags: W
LayerCount: 2
Fore
SplineSet
179 16 m 1,0,-1
 407 720 l 1,1,-1
 509 720 l 1,2,-1
 525 704 l 1,3,-1
 304 0 l 1,4,-1
 195 0 l 1,5,-1
 179 16 l 1,0,-1
24 538 m 128,-1,7
 24 623 24 623 52.5 656.5 c 128,-1,8
 81 690 81 690 144 690 c 128,-1,9
 207 690 207 690 235.5 656.5 c 128,-1,10
 264 623 264 623 264 538 c 128,-1,11
 264 453 264 453 235.5 419.5 c 128,-1,12
 207 386 207 386 144 386 c 128,-1,13
 81 386 81 386 52.5 419.5 c 128,-1,6
 24 453 24 453 24 538 c 128,-1,7
107 538 m 0,14,15
 107 469 107 469 144 469 c 0,16,17
 159 469 159 469 170 491.5 c 128,-1,18
 181 514 181 514 181 549 c 128,-1,19
 181 584 181 584 174.5 595.5 c 128,-1,20
 168 607 168 607 148 607 c 128,-1,21
 128 607 128 607 117.5 587 c 128,-1,22
 107 567 107 567 107 538 c 0,14,15
432 168 m 128,-1,24
 432 253 432 253 460.5 286.5 c 128,-1,25
 489 320 489 320 552 320 c 128,-1,26
 615 320 615 320 643.5 286.5 c 128,-1,27
 672 253 672 253 672 168 c 128,-1,28
 672 83 672 83 643.5 49.5 c 128,-1,29
 615 16 615 16 552 16 c 128,-1,30
 489 16 489 16 460.5 49.5 c 128,-1,23
 432 83 432 83 432 168 c 128,-1,24
515 168 m 0,31,32
 515 99 515 99 552 99 c 0,33,34
 567 99 567 99 578 121.5 c 128,-1,35
 589 144 589 144 589 179 c 128,-1,36
 589 214 589 214 582.5 225.5 c 128,-1,37
 576 237 576 237 556 237 c 128,-1,38
 536 237 536 237 525.5 217 c 128,-1,39
 515 197 515 197 515 168 c 0,31,32
EndSplineSet
EndChar

StartChar: ampersand
Encoding: 38 38 9
Width: 777
GlyphClass: 2
Flags: W
LayerCount: 2
Fore
SplineSet
711 411 m 2,0,-1
 583 411 l 1,1,-1
 584 -223 l 1,2,-1
 584 -224 l 2,3,4
 584 -230 584 -230 582 -232 c 0,5,6
 578 -240 578 -240 544.5 -240 c 128,-1,7
 511 -240 511 -240 475.5 -235 c 128,-1,8
 440 -230 440 -230 440 -224 c 2,9,-1
 440 -208 l 1,10,-1
 441 411 l 1,11,-1
 220 411 l 2,12,13
 188 411 188 411 174.5 387.5 c 128,-1,14
 161 364 161 364 159 307 c 1,15,-1
 304 307 l 2,16,17
 321 307 321 307 324.5 298 c 128,-1,18
 328 289 328 289 328 278 c 0,19,20
 328 206 328 206 307 206 c 2,21,-1
 158 206 l 1,22,23
 161 132 161 132 176 107 c 128,-1,24
 191 82 191 82 223.5 82 c 128,-1,25
 256 82 256 82 298.5 88.5 c 128,-1,26
 341 95 341 95 344 94 c 0,27,28
 354 91 354 91 354 59.5 c 128,-1,29
 354 28 354 28 351 14.5 c 128,-1,30
 348 1 348 1 339 -2 c 0,31,32
 291 -16 291 -16 232 -16 c 0,33,34
 111 -16 111 -16 66.5 40.5 c 128,-1,35
 22 97 22 97 22 248 c 0,36,37
 22 330 22 330 31.5 380 c 128,-1,38
 41 430 41 430 66 460 c 128,-1,39
 91 490 91 490 129 501 c 128,-1,40
 167 512 167 512 230 512 c 2,41,-1
 711 512 l 2,42,43
 759 512 759 512 759 481 c 0,44,45
 759 447 759 447 749 429 c 128,-1,46
 739 411 739 411 711 411 c 2,0,-1
EndSplineSet
EndChar

StartChar: quotesingle
Encoding: 39 39 10
Width: 162
GlyphClass: 2
Flags: W
LayerCount: 2
Fore
SplineSet
94 523 m 1,0,-1
 68 523 l 1,1,-1
 39 576 l 1,2,-1
 34 710 l 1,3,-1
 52 752 l 1,4,-1
 110 752 l 1,5,-1
 128 710 l 1,6,-1
 123 576 l 1,7,-1
 94 523 l 1,0,-1
EndSplineSet
EndChar

StartChar: parenleft
Encoding: 40 40 11
Width: 343
GlyphClass: 2
Flags: W
LayerCount: 2
Fore
SplineSet
305 -37 m 1,0,-1
 305 -176 l 1,1,-1
 304 -176 l 2,2,3
 26 -176 26 -176 26 355 c 0,4,5
 26 602 26 602 84.5 719 c 128,-1,6
 143 836 143 836 288 836 c 1,7,-1
 290 701 l 1,8,9
 240 701 240 701 218 651 c 0,10,11
 193 595 193 595 189 538 c 128,-1,12
 185 481 185 481 184 445 c 128,-1,13
 183 409 183 409 183 355 c 128,-1,14
 183 301 183 301 183.5 268.5 c 128,-1,15
 184 236 184 236 185.5 193 c 128,-1,16
 187 150 187 150 190.5 124.5 c 128,-1,17
 194 99 194 99 200 69 c 128,-1,18
 206 39 206 39 215 22.5 c 128,-1,19
 224 6 224 6 236 -9 c 0,20,21
 260 -37 260 -37 305 -37 c 1,0,-1
EndSplineSet
EndChar

StartChar: parenright
Encoding: 41 41 12
Width: 342
GlyphClass: 2
Flags: W
LayerCount: 2
Fore
SplineSet
37 -176 m 1,0,-1
 37 -37 l 1,1,2
 82 -37 82 -37 106 -9 c 0,3,4
 133 24 133 24 140.5 61.5 c 128,-1,5
 148 99 148 99 151.5 124.5 c 128,-1,6
 155 150 155 150 156.5 193 c 128,-1,7
 158 236 158 236 158.5 268.5 c 128,-1,8
 159 301 159 301 159 355 c 128,-1,9
 159 409 159 409 158 445 c 128,-1,10
 157 481 157 481 154 525 c 128,-1,11
 151 569 151 569 143.5 597 c 128,-1,12
 136 625 136 625 124 651 c 0,13,14
 102 701 102 701 52 701 c 1,15,-1
 54 836 l 1,16,17
 199 836 199 836 257.5 719 c 128,-1,18
 316 602 316 602 316 355 c 0,19,20
 316 -176 316 -176 38 -176 c 2,21,-1
 37 -176 l 1,0,-1
EndSplineSet
EndChar

StartChar: asterisk
Encoding: 42 42 13
Width: 458
GlyphClass: 2
Flags: W
LayerCount: 2
Fore
SplineSet
168 568 m 1,0,-1
 275 568 l 1,1,-1
 292 551 l 1,2,-1
 292 476 l 1,3,-1
 369 521 l 1,4,-1
 424 430 l 1,5,-1
 418 407 l 1,6,-1
 353 370 l 1,7,-1
 433 324 l 1,8,-1
 376 225 l 1,9,-1
 361 223 l 1,10,-1
 292 262 l 1,11,-1
 292 171 l 1,12,-1
 184 171 l 1,13,-1
 168 187 l 1,14,-1
 168 263 l 1,15,-1
 89 217 l 1,16,-1
 33 314 l 1,17,-1
 35 329 l 1,18,-1
 106 369 l 1,19,-1
 25 416 l 1,20,-1
 81 508 l 1,21,-1
 104 514 l 1,22,-1
 168 477 l 1,23,-1
 168 568 l 1,0,-1
EndSplineSet
EndChar

StartChar: plus
Encoding: 43 43 14
Width: 427
GlyphClass: 2
Flags: W
LayerCount: 2
Fore
SplineSet
275 432 m 1,0,-1
 396 432 l 1,1,-1
 412 416 l 1,2,-1
 412 308 l 1,3,-1
 275 308 l 1,4,-1
 275 171 l 1,5,-1
 167 171 l 1,6,-1
 151 187 l 1,7,-1
 151 308 l 1,8,-1
 31 308 l 1,9,-1
 15 324 l 1,10,-1
 15 432 l 1,11,-1
 151 432 l 1,12,-1
 151 567 l 1,13,-1
 258 568 l 1,14,-1
 275 551 l 1,15,-1
 275 432 l 1,0,-1
EndSplineSet
EndChar

StartChar: comma
Encoding: 44 44 15
Width: 197
GlyphClass: 2
Flags: W
LayerCount: 2
Fore
SplineSet
40 56 m 0,0,1
 40 128 40 128 112 128 c 128,-1,2
 184 128 184 128 184 56 c 0,3,4
 184 17 184 17 165 0 c 1,5,-1
 65 -128 l 1,6,-1
 39 -111 l 1,7,-1
 39 -42 l 1,8,-1
 57 3 l 1,9,10
 40 20 40 20 40 56 c 0,0,1
EndSplineSet
EndChar

StartChar: hyphen
Encoding: 45 45 16
Width: 383
GlyphClass: 2
Flags: W
LayerCount: 2
Fore
SplineSet
337 308 m 1,0,-1
 61 308 l 1,1,-1
 45 324 l 1,2,-1
 45 432 l 1,3,-1
 321 432 l 1,4,-1
 337 416 l 1,5,-1
 337 308 l 1,0,-1
EndSplineSet
EndChar

StartChar: period
Encoding: 46 46 17
Width: 214
GlyphClass: 2
Flags: W
LayerCount: 2
Fore
SplineSet
35 56 m 128,-1,1
 35 128 35 128 107 128 c 128,-1,2
 179 128 179 128 179 56 c 128,-1,3
 179 -16 179 -16 107 -16 c 128,-1,0
 35 -16 35 -16 35 56 c 128,-1,1
EndSplineSet
EndChar

StartChar: slash
Encoding: 47 47 18
Width: 394
GlyphClass: 2
Flags: W
LayerCount: 2
Fore
SplineSet
8 -130 m 1,0,-1
 259 876 l 1,1,-1
 369 876 l 1,2,-1
 385 860 l 1,3,-1
 148 -146 l 1,4,-1
 24 -146 l 1,5,-1
 8 -130 l 1,0,-1
EndSplineSet
EndChar

StartChar: zero
Encoding: 48 48 19
Width: 520
GlyphClass: 2
Flags: W
LayerCount: 2
Fore
SplineSet
172 742 m 1,0,1
 207 752 207 752 260 752 c 0,2,3
 349 752 349 752 395 722 c 128,-1,4
 441 692 441 692 462 611 c 128,-1,5
 483 530 483 530 483 371 c 0,6,7
 483 152 483 152 435.5 68 c 128,-1,8
 388 -16 388 -16 260.5 -16 c 128,-1,9
 133 -16 133 -16 85 68 c 128,-1,10
 37 152 37 152 37 354 c 128,-1,11
 37 556 37 556 65 639 c 128,-1,12
 93 722 93 722 172 742 c 1,0,1
181 463.5 m 128,-1,14
 180 432 180 432 180 354 c 128,-1,15
 180 276 180 276 184.5 224 c 128,-1,16
 189 172 189 172 196.5 155 c 128,-1,17
 204 138 204 138 217 138 c 0,18,19
 250 138 250 138 267.5 139.5 c 128,-1,20
 285 141 285 141 301.5 150.5 c 128,-1,21
 318 160 318 160 324.5 172 c 128,-1,22
 331 184 331 184 336 214 c 0,23,24
 343 256 343 256 343 362 c 128,-1,25
 343 468 343 468 338.5 520 c 128,-1,26
 334 572 334 572 326 589.5 c 128,-1,27
 318 607 318 607 304 607 c 0,28,29
 272 607 272 607 253.5 605 c 128,-1,30
 235 603 235 603 219.5 592.5 c 128,-1,31
 204 582 204 582 197.5 570 c 128,-1,32
 191 558 191 558 186.5 526.5 c 128,-1,13
 182 495 182 495 181 463.5 c 128,-1,14
EndSplineSet
Substitution2: "'onum' Oldstyle Figures in Latin lookup 2 subtable" zero_onum
EndChar

StartChar: one
Encoding: 49 49 20
Width: 422
GlyphClass: 2
Flags: W
LayerCount: 2
Fore
SplineSet
398 0 m 1,0,-1
 59 0 l 1,1,-1
 43 16 l 1,2,-1
 43 124 l 1,3,-1
 157 124 l 1,4,-1
 157 589 l 1,5,-1
 68 571 l 1,6,-1
 33 690 l 1,7,-1
 268 752 l 1,8,-1
 284 736 l 1,9,-1
 300 432 l 1,10,-1
 301 124 l 1,11,-1
 382 124 l 1,12,-1
 398 108 l 1,13,-1
 398 0 l 1,0,-1
EndSplineSet
Substitution2: "'onum' Oldstyle Figures in Latin lookup 2 subtable" one_onum
EndChar

StartChar: two
Encoding: 50 50 21
Width: 475
GlyphClass: 2
Flags: W
LayerCount: 2
Fore
SplineSet
274 554 m 1,0,-1
 275 594 l 2,1,2
 275 613 275 613 271 617 c 128,-1,3
 267 621 267 621 261 624 c 0,4,5
 251 629 251 629 230.5 629 c 128,-1,6
 210 629 210 629 198 628.5 c 128,-1,7
 186 628 186 628 178.5 627.5 c 128,-1,8
 171 627 171 627 163.5 625.5 c 128,-1,9
 156 624 156 624 153 623 c 0,10,11
 138 618 138 618 130 616 c 1,12,-1
 81 616 l 1,13,-1
 53 717 l 1,14,15
 107 752 107 752 218 752 c 0,16,17
 287 752 287 752 327 742.5 c 128,-1,18
 367 733 367 733 387 706 c 128,-1,19
 407 679 407 679 412.5 646.5 c 128,-1,20
 418 614 418 614 418 582.5 c 128,-1,21
 418 551 418 551 418.5 536 c 128,-1,22
 419 521 419 521 418.5 516.5 c 128,-1,23
 418 512 418 512 416 495.5 c 128,-1,24
 414 479 414 479 410.5 468.5 c 128,-1,25
 407 458 407 458 399.5 436.5 c 128,-1,26
 392 415 392 415 381.5 396 c 128,-1,27
 371 377 371 377 355 348 c 128,-1,28
 339 319 339 319 318 288 c 0,29,30
 255 191 255 191 209 131 c 1,31,-1
 419 131 l 1,32,-1
 435 115 l 1,33,-1
 435 0 l 1,34,-1
 39 0 l 1,35,-1
 39 124 l 1,36,37
 191 341 191 341 232.5 413.5 c 128,-1,38
 274 486 274 486 274 554 c 1,0,-1
EndSplineSet
Substitution2: "'onum' Oldstyle Figures in Latin lookup 2 subtable" two_onum
EndChar

StartChar: three
Encoding: 51 51 22
Width: 484
GlyphClass: 2
Flags: W
LayerCount: 2
Fore
SplineSet
237 629 m 0,0,1
 160 629 160 629 116 616 c 1,2,-1
 67 616 l 1,3,-1
 39 717 l 1,4,5
 93 752 93 752 204 752 c 0,6,7
 342 752 342 752 388 700 c 0,8,9
 412 673 412 673 421 636 c 128,-1,10
 430 599 430 599 430 541 c 0,11,12
 430 450 430 450 388 395 c 1,13,14
 450 344 450 344 450 212 c 0,15,16
 450 159 450 159 439.5 120.5 c 128,-1,17
 429 82 429 82 402 50 c 0,18,19
 348 -16 348 -16 194 -16 c 0,20,21
 148 -16 148 -16 55 -6 c 1,22,-1
 55 118 l 1,23,24
 151 112 151 112 207 112 c 128,-1,25
 263 112 263 112 279.5 130.5 c 128,-1,26
 296 149 296 149 296 213 c 2,27,-1
 296 261 l 2,28,29
 296 286 296 286 293 290 c 128,-1,30
 290 294 290 294 285.5 300.5 c 128,-1,31
 281 307 281 307 275 308 c 128,-1,32
 269 309 269 309 259 312 c 0,33,34
 245 315 245 315 207 315 c 2,35,-1
 135 315 l 1,36,-1
 135 443 l 1,37,38
 202 443 202 443 226.5 449 c 128,-1,39
 251 455 251 455 258 466 c 0,40,41
 276 490 276 490 276 542 c 0,42,43
 276 629 276 629 237 629 c 0,0,1
EndSplineSet
Substitution2: "'onum' Oldstyle Figures in Latin lookup 2 subtable" three_onum
EndChar

StartChar: four
Encoding: 52 52 23
Width: 489
GlyphClass: 2
Flags: W
LayerCount: 2
Fore
SplineSet
461 308 m 1,0,-1
 403 308 l 1,1,-1
 403 0 l 1,2,-1
 275 0 l 1,3,-1
 259 16 l 1,4,-1
 259 308 l 1,5,-1
 36 308 l 1,6,-1
 20 324 l 1,7,-1
 21 752 l 1,8,-1
 130 752 l 1,9,-1
 146 736 l 1,10,-1
 162 432 l 1,11,-1
 259 432 l 1,12,-1
 260 752 l 1,13,-1
 371 752 l 1,14,-1
 387 736 l 1,15,-1
 403 432 l 1,16,-1
 445 432 l 1,17,-1
 461 416 l 1,18,-1
 461 308 l 1,0,-1
EndSplineSet
Substitution2: "'onum' Oldstyle Figures in Latin lookup 2 subtable" four_onum
EndChar

StartChar: five
Encoding: 53 53 24
Width: 442
GlyphClass: 2
Flags: W
LayerCount: 2
Fore
SplineSet
44 752 m 1,0,-1
 369 752 l 1,1,-1
 385 736 l 1,2,-1
 385 628 l 1,3,-1
 166 628 l 1,4,-1
 183 454 l 1,5,6
 193 453 193 453 216.5 451.5 c 128,-1,7
 240 450 240 450 251 449 c 128,-1,8
 262 448 262 448 280 445.5 c 128,-1,9
 298 443 298 443 308 440 c 0,10,11
 334 434 334 434 347 423 c 0,12,13
 409 372 409 372 409 226 c 0,14,15
 409 -16 409 -16 137 -16 c 0,16,17
 117 -16 117 -16 94.5 -12.5 c 128,-1,18
 72 -9 72 -9 46 -6 c 1,19,-1
 46 118 l 1,20,21
 142 112 142 112 144 112 c 0,22,23
 216 112 216 112 235.5 135.5 c 128,-1,24
 255 159 255 159 255 211.5 c 128,-1,25
 255 264 255 264 253 280.5 c 128,-1,26
 251 297 251 297 240 310.5 c 128,-1,27
 229 324 229 324 209 327 c 128,-1,28
 189 330 189 330 150 330 c 2,29,-1
 60 330 l 1,30,-1
 44 346 l 1,31,-1
 44 752 l 1,0,-1
EndSplineSet
Substitution2: "'onum' Oldstyle Figures in Latin lookup 2 subtable" five_onum
EndChar

StartChar: six
Encoding: 54 54 25
Width: 455
GlyphClass: 2
Flags: W
LayerCount: 2
Fore
SplineSet
33 250 m 0,0,1
 33 329 33 329 52 429.5 c 128,-1,2
 71 530 71 530 90 594.5 c 128,-1,3
 109 659 109 659 144 768 c 1,4,-1
 265 738 l 1,5,-1
 281 722 l 1,6,-1
 261 675 l 1,7,8
 220 594 220 594 209 504 c 1,9,-1
 233 514 l 1,10,11
 312 514 312 514 353.5 493 c 128,-1,12
 395 472 395 472 414 415.5 c 128,-1,13
 433 359 433 359 433 250 c 0,14,15
 433 100 433 100 390 42 c 128,-1,16
 347 -16 347 -16 233 -16 c 128,-1,17
 119 -16 119 -16 76 42 c 128,-1,18
 33 100 33 100 33 250 c 0,0,1
169 250 m 0,19,20
 169 82 169 82 201 82 c 0,21,22
 245 82 245 82 266 96 c 0,23,24
 277 104 277 104 281 125 c 0,25,26
 289 167 289 167 289 250 c 0,27,28
 289 418 289 418 257 418 c 0,29,30
 197 418 197 418 183 390 c 128,-1,31
 169 362 169 362 169 250 c 0,19,20
EndSplineSet
Substitution2: "'onum' Oldstyle Figures in Latin lookup 2 subtable" six_onum
EndChar

StartChar: seven
Encoding: 55 55 26
Width: 447
GlyphClass: 2
Flags: W
LayerCount: 2
Fore
SplineSet
61 752 m 1,0,-1
 418 752 l 1,1,-1
 433 736 l 1,2,-1
 433 629 l 1,3,-1
 365 432 l 1,4,-1
 179 0 l 1,5,-1
 52 0 l 1,6,-1
 36 16 l 1,7,-1
 298 628 l 1,8,-1
 77 628 l 1,9,-1
 61 644 l 1,10,-1
 61 752 l 1,0,-1
EndSplineSet
Substitution2: "'onum' Oldstyle Figures in Latin lookup 2 subtable" seven_onum
EndChar

StartChar: eight
Encoding: 56 56 27
Width: 487
GlyphClass: 2
Flags: W
LayerCount: 2
Fore
SplineSet
455 222 m 0,0,1
 455 113 455 113 403 48.5 c 128,-1,2
 351 -16 351 -16 243 -16 c 0,3,4
 32 -16 32 -16 32 222 c 0,5,6
 32 269 32 269 57 317.5 c 128,-1,7
 82 366 82 366 124 400 c 1,8,9
 93 433 93 433 73.5 476.5 c 128,-1,10
 54 520 54 520 54 562 c 0,11,12
 54 652 54 652 100.5 711 c 128,-1,13
 147 770 147 770 239 770 c 0,14,15
 433 770 433 770 433 562 c 0,16,17
 433 475 433 475 362 400 c 1,18,19
 404 367 404 367 429.5 318 c 128,-1,20
 455 269 455 269 455 222 c 0,0,1
188 577 m 0,21,22
 188 509 188 509 243 463 c 1,23,24
 300 509 300 509 300 577 c 0,25,26
 300 621 300 621 283.5 646 c 128,-1,27
 267 671 267 671 243.5 671 c 128,-1,28
 220 671 220 671 204 646 c 128,-1,29
 188 621 188 621 188 577 c 0,21,22
187.5 270.5 m 128,-1,31
 170 244 170 244 170 203 c 128,-1,32
 170 162 170 162 188.5 129 c 128,-1,33
 207 96 207 96 243.5 96 c 128,-1,34
 280 96 280 96 298.5 129 c 128,-1,35
 317 162 317 162 317 203 c 128,-1,36
 317 244 317 244 299 270.5 c 128,-1,37
 281 297 281 297 243 329 c 1,38,30
 205 297 205 297 187.5 270.5 c 128,-1,31
EndSplineSet
Substitution2: "'onum' Oldstyle Figures in Latin lookup 2 subtable" eight_onum
EndChar

StartChar: nine
Encoding: 57 57 28
Width: 454
GlyphClass: 2
Flags: W
LayerCount: 2
Fore
SplineSet
424 498 m 0,0,1
 424 416 424 416 407 336.5 c 128,-1,2
 390 257 390 257 373 212.5 c 128,-1,3
 356 168 356 168 323 96 c 128,-1,4
 290 24 290 24 280 0 c 1,5,-1
 264 -16 l 1,6,-1
 172 16 l 1,7,-1
 156 32 l 1,8,9
 157 34 157 34 178 74.5 c 128,-1,10
 199 115 199 115 210 137 c 0,11,12
 244 210 244 210 248 244 c 1,13,-1
 224 234 l 1,14,15
 145 234 145 234 103.5 255 c 128,-1,16
 62 276 62 276 43 332.5 c 128,-1,17
 24 389 24 389 24 498 c 0,18,19
 24 649 24 649 67.5 709.5 c 128,-1,20
 111 770 111 770 224 770 c 128,-1,21
 337 770 337 770 380.5 709.5 c 128,-1,22
 424 649 424 649 424 498 c 0,0,1
286 498 m 0,23,24
 286 655 286 655 255 655 c 0,25,26
 198 655 198 655 184 629 c 128,-1,27
 170 603 170 603 170 498 c 0,28,29
 170 347 170 347 201 347 c 0,30,31
 259 347 259 347 272.5 372 c 128,-1,32
 286 397 286 397 286 498 c 0,23,24
EndSplineSet
Substitution2: "'onum' Oldstyle Figures in Latin lookup 2 subtable" nine_onum
EndChar

StartChar: colon
Encoding: 58 58 29
Width: 221
GlyphClass: 2
Flags: W
LayerCount: 2
Fore
SplineSet
38 56 m 128,-1,1
 38 128 38 128 110 128 c 128,-1,2
 182 128 182 128 182 56 c 128,-1,3
 182 -16 182 -16 110 -16 c 128,-1,0
 38 -16 38 -16 38 56 c 128,-1,1
38 440 m 128,-1,5
 38 512 38 512 110 512 c 128,-1,6
 182 512 182 512 182 440 c 128,-1,7
 182 368 182 368 110 368 c 128,-1,4
 38 368 38 368 38 440 c 128,-1,5
EndSplineSet
EndChar

StartChar: semicolon
Encoding: 59 59 30
Width: 206
GlyphClass: 2
Flags: W
LayerCount: 2
Fore
SplineSet
44 440 m 128,-1,1
 44 512 44 512 116 512 c 128,-1,2
 188 512 188 512 188 440 c 128,-1,3
 188 368 188 368 116 368 c 128,-1,0
 44 368 44 368 44 440 c 128,-1,1
42 56 m 0,4,5
 42 128 42 128 114 128 c 128,-1,6
 186 128 186 128 186 56 c 0,7,8
 186 17 186 17 167 0 c 1,9,-1
 67 -128 l 1,10,-1
 41 -111 l 1,11,-1
 41 -42 l 1,12,-1
 59 3 l 1,13,14
 42 20 42 20 42 56 c 0,4,5
EndSplineSet
EndChar

StartChar: less
Encoding: 60 60 31
Width: 396
GlyphClass: 2
Flags: W
LayerCount: 2
Fore
SplineSet
365 79 m 1,0,-1
 301 40 l 1,1,-1
 247 53 l 1,2,-1
 29 331 l 1,3,-1
 9 380 l 1,4,-1
 29 429 l 1,5,-1
 231 723 l 1,6,-1
 285 736 l 1,7,-1
 349 697 l 1,8,-1
 156 380 l 1,9,-1
 365 79 l 1,0,-1
EndSplineSet
EndChar

StartChar: equal
Encoding: 61 61 32
Width: 438
GlyphClass: 2
Flags: W
LayerCount: 2
Fore
SplineSet
45 432 m 1,0,-1
 45 556 l 1,1,-1
 377 556 l 1,2,-1
 393 540 l 1,3,-1
 393 449 l 1,4,-1
 376 432 l 1,5,-1
 45 432 l 1,0,-1
45 186 m 1,6,-1
 45 310 l 1,7,-1
 377 310 l 1,8,-1
 393 294 l 1,9,-1
 393 203 l 1,10,-1
 376 186 l 1,11,-1
 45 186 l 1,6,-1
EndSplineSet
EndChar

StartChar: greater
Encoding: 62 62 33
Width: 396
GlyphClass: 2
Flags: W
LayerCount: 2
Fore
SplineSet
95 40 m 1,0,-1
 31 79 l 1,1,-1
 240 380 l 1,2,-1
 47 697 l 1,3,-1
 111 736 l 1,4,-1
 165 723 l 1,5,-1
 367 429 l 1,6,-1
 387 380 l 1,7,-1
 367 331 l 1,8,-1
 149 53 l 1,9,-1
 95 40 l 1,0,-1
EndSplineSet
EndChar

StartChar: question
Encoding: 63 63 34
Width: 438
GlyphClass: 2
Flags: W
LayerCount: 2
Fore
SplineSet
127 297 m 2,0,1
 127 323 127 323 170 368 c 0,2,3
 237 437 237 437 256.5 467.5 c 128,-1,4
 276 498 276 498 276 543 c 128,-1,5
 276 588 276 588 264.5 608.5 c 128,-1,6
 253 629 253 629 211 629 c 0,7,8
 144 629 144 629 100 616 c 1,9,-1
 51 616 l 1,10,-1
 23 717 l 1,11,12
 77 752 77 752 199 752 c 128,-1,13
 321 752 321 752 370.5 701.5 c 128,-1,14
 420 651 420 651 420 537 c 0,15,16
 420 509 420 509 414 490 c 0,17,18
 401 446 401 446 263 291 c 1,19,-1
 263 202 l 1,20,-1
 143 202 l 1,21,-1
 127 218 l 1,22,-1
 127 297 l 2,0,1
124 56 m 128,-1,24
 124 128 124 128 196 128 c 128,-1,25
 268 128 268 128 268 56 c 128,-1,26
 268 -16 268 -16 196 -16 c 128,-1,23
 124 -16 124 -16 124 56 c 128,-1,24
EndSplineSet
EndChar

StartChar: at
Encoding: 64 64 35
Width: 599
GlyphClass: 2
Flags: W
LayerCount: 2
Fore
SplineSet
203 428 m 2,0,-1
 204 351 l 1,1,2
 204 236 204 236 211 184 c 128,-1,3
 218 132 218 132 236 111 c 128,-1,4
 254 90 254 90 300.5 90 c 128,-1,5
 347 90 347 90 451 121.5 c 128,-1,6
 555 153 555 153 559 153 c 1,7,-1
 559 27 l 1,8,9
 551 26 551 26 504 10 c 0,10,11
 370 -37 370 -37 299 -37 c 0,12,13
 150 -37 150 -37 93.5 47 c 128,-1,14
 37 131 37 131 37 350 c 0,15,16
 37 511 37 511 60.5 591.5 c 128,-1,17
 84 672 84 672 139.5 703.5 c 128,-1,18
 195 735 195 735 306 735 c 1,19,20
 431 733 431 733 492 674 c 1,21,22
 544 622 544 622 556 476 c 0,23,24
 561 415 561 415 561 318 c 2,25,-1
 561 258 l 1,26,-1
 394 258 l 2,27,28
 352 258 352 258 325 287.5 c 128,-1,29
 298 317 298 317 298 369.5 c 128,-1,30
 298 422 298 422 323.5 451 c 128,-1,31
 349 480 349 480 389 482 c 1,32,33
 379 609 379 609 304 609 c 0,34,35
 265 609 265 609 244 588 c 0,36,37
 222 566 222 566 216 542 c 128,-1,38
 210 518 210 518 208 504 c 0,39,40
 203 477 203 477 203 428 c 2,0,-1
EndSplineSet
EndChar

StartChar: A
Encoding: 65 65 36
Width: 539
GlyphClass: 2
Flags: W
LayerCount: 2
Fore
SplineSet
298 769 m 0,0,1
 367 769 367 769 373 738 c 2,2,-1
 441 431 l 1,3,-1
 510 22 l 2,4,5
 512 12 512 12 512 3.5 c 128,-1,6
 512 -5 512 -5 507 -10.5 c 128,-1,7
 502 -16 502 -16 473 -16 c 0,8,9
 384 -16 384 -16 378 22 c 2,10,-1
 343 228 l 1,11,-1
 203 228 l 1,12,-1
 172 21 l 2,13,14
 169 0 169 0 164.5 -7 c 128,-1,15
 160 -14 160 -14 152 -15 c 128,-1,16
 144 -16 144 -16 126 -16 c 2,17,-1
 98 -16 l 2,18,19
 63 -16 63 -16 54 -12 c 0,20,21
 32 -4 32 -4 29 6 c 0,22,23
 28 11 28 11 28 15 c 128,-1,24
 28 19 28 19 49 147 c 128,-1,25
 70 275 70 275 100.5 452 c 128,-1,26
 131 629 131 629 140.5 684 c 128,-1,27
 150 739 150 739 151 746 c 0,28,29
 155 769 155 769 298 769 c 0,0,1
268 638 m 1,30,-1
 222 349 l 1,31,-1
 321 349 l 1,32,-1
 268 638 l 1,30,-1
EndSplineSet
EndChar

StartChar: B
Encoding: 66 66 37
Width: 560
GlyphClass: 2
Flags: W
LayerCount: 2
Fore
SplineSet
234 768 m 0,0,1
 387 768 387 768 446 717.5 c 128,-1,2
 505 667 505 667 505 558.5 c 128,-1,3
 505 450 505 450 462 395 c 1,4,5
 525 343 525 343 525 220 c 0,6,7
 525 -16 525 -16 254 -16 c 0,8,9
 222 -16 222 -16 45 0 c 1,10,-1
 45 752 l 1,11,12
 149 768 149 768 234 768 c 0,0,1
374 221 m 128,-1,14
 374 289 374 289 359 303 c 128,-1,15
 344 317 344 317 281.5 317 c 128,-1,16
 219 317 219 317 202.5 315 c 128,-1,17
 186 313 186 313 186 303 c 2,18,-1
 186 124 l 2,19,20
 186 113 186 113 199.5 111 c 128,-1,21
 213 109 213 109 274 109 c 128,-1,22
 335 109 335 109 354.5 131 c 128,-1,13
 374 153 374 153 374 221 c 128,-1,14
204 441 m 0,23,24
 291 441 291 441 322.5 462 c 128,-1,25
 354 483 354 483 354 555 c 0,26,27
 354 596 354 596 336.5 622.5 c 128,-1,28
 319 649 319 649 299 649 c 0,29,30
 214 649 214 649 196 638 c 0,31,32
 190 634 190 634 186 626 c 1,33,-1
 186 457 l 2,34,35
 186 445 186 445 190 443 c 0,36,37
 197 441 197 441 204 441 c 0,23,24
EndSplineSet
EndChar

StartChar: C
Encoding: 67 67 38
Width: 498
GlyphClass: 2
Flags: W
LayerCount: 2
Fore
SplineSet
436 118 m 0,0,1
 461 118 461 118 461 86 c 128,-1,2
 461 54 461 54 460 38 c 0,3,4
 456 2 456 2 428 -3 c 0,5,6
 339 -16 339 -16 296 -16 c 0,7,8
 147 -16 147 -16 91 68 c 128,-1,9
 35 152 35 152 35 371 c 0,10,11
 35 531 35 531 59.5 615.5 c 128,-1,12
 84 700 84 700 138.5 734 c 128,-1,13
 193 768 193 768 301.5 768 c 128,-1,14
 410 768 410 768 460 734 c 0,15,16
 470 727 470 727 470 717 c 128,-1,17
 470 707 470 707 460.5 679.5 c 128,-1,18
 451 652 451 652 442.5 640.5 c 128,-1,19
 434 629 434 629 425 629 c 128,-1,20
 416 629 416 629 411 630 c 0,21,22
 336 645 336 645 281.5 645 c 128,-1,23
 227 645 227 645 210.5 585 c 128,-1,24
 194 525 194 525 194 390.5 c 128,-1,25
 194 256 194 256 201 203 c 128,-1,26
 208 150 208 150 227 129 c 128,-1,27
 246 108 246 108 287.5 108 c 128,-1,28
 329 108 329 108 381.5 113 c 128,-1,29
 434 118 434 118 436 118 c 0,0,1
EndSplineSet
EndChar

StartChar: D
Encoding: 68 68 39
Width: 571
GlyphClass: 2
Flags: W
LayerCount: 2
Fore
SplineSet
264 768 m 0,0,1
 373 768 373 768 429 737 c 128,-1,2
 485 706 485 706 510 624.5 c 128,-1,3
 535 543 535 543 535 383 c 0,4,5
 535 161 535 161 477 72.5 c 128,-1,6
 419 -16 419 -16 264 -16 c 0,7,8
 226 -16 226 -16 45 0 c 1,9,-1
 45 751 l 1,10,11
 197 768 197 768 264 768 c 0,0,1
317 649 m 0,12,13
 230 649 230 649 208 645.5 c 128,-1,14
 186 642 186 642 186 626 c 2,15,-1
 186 124 l 2,16,17
 186 113 186 113 199.5 111 c 128,-1,18
 213 109 213 109 254.5 109 c 128,-1,19
 296 109 296 109 313 113.5 c 128,-1,20
 330 118 330 118 344.5 129.5 c 128,-1,21
 359 141 359 141 364 174 c 0,22,23
 374 238 374 238 374 372 c 0,24,25
 374 649 374 649 317 649 c 0,12,13
EndSplineSet
EndChar

StartChar: E
Encoding: 69 69 40
Width: 483
GlyphClass: 2
Flags: W
LayerCount: 2
Fore
SplineSet
378 455 m 2,0,1
 418 455 418 455 418 419 c 0,2,3
 418 370 418 370 412 352 c 128,-1,4
 406 334 406 334 381 334 c 2,5,-1
 185 334 l 1,6,-1
 185 121 l 1,7,-1
 416 121 l 1,8,9
 440 120 440 120 449 111.5 c 128,-1,10
 458 103 458 103 458 86 c 0,11,12
 458 37 458 37 449 18.5 c 128,-1,13
 440 0 440 0 413 0 c 2,14,-1
 61 0 l 1,15,-1
 45 16 l 1,16,-1
 45 752 l 1,17,-1
 400 752 l 1,18,19
 443 751 443 751 443 720 c 1,20,21
 442 693 442 693 440 677.5 c 128,-1,22
 438 662 438 662 427.5 647 c 128,-1,23
 417 632 417 632 397 632 c 2,24,-1
 174 632 l 1,25,-1
 185 455 l 1,26,-1
 378 455 l 2,0,1
EndSplineSet
EndChar

StartChar: F
Encoding: 70 70 41
Width: 439
GlyphClass: 2
Flags: W
LayerCount: 2
Fore
SplineSet
45 0 m 2,0,-1
 45 752 l 1,1,-1
 390 752 l 1,2,3
 443 751 443 751 443 723 c 0,4,5
 443 672 443 672 432 652 c 128,-1,6
 421 632 421 632 385 632 c 2,7,-1
 173 632 l 1,8,-1
 183 455 l 1,9,-1
 392 455 l 2,10,11
 433 455 433 455 433 423 c 0,12,13
 433 371 433 371 424 352.5 c 128,-1,14
 415 334 415 334 386 334 c 2,15,-1
 185 334 l 1,16,-1
 185 0 l 2,17,18
 185 -6 185 -6 184 -8 c 0,19,20
 179 -16 179 -16 145.5 -16 c 128,-1,21
 112 -16 112 -16 78.5 -11 c 128,-1,22
 45 -6 45 -6 45 0 c 2,0,-1
EndSplineSet
EndChar

StartChar: G
Encoding: 71 71 42
Width: 547
GlyphClass: 2
Flags: W
LayerCount: 2
Fore
SplineSet
298 -16 m 0,0,1
 149 -16 149 -16 92.5 68 c 128,-1,2
 36 152 36 152 36 371 c 0,3,4
 36 530 36 530 61 615 c 128,-1,5
 86 700 86 700 140.5 734 c 128,-1,6
 195 768 195 768 295 768 c 128,-1,7
 395 768 395 768 449 741 c 0,8,9
 471 730 471 730 471 711 c 0,10,11
 471 705 471 705 461.5 677 c 128,-1,12
 452 649 452 649 443.5 639 c 128,-1,13
 435 629 435 629 425 629 c 128,-1,14
 415 629 415 629 369.5 637 c 128,-1,15
 324 645 324 645 292 645 c 128,-1,16
 260 645 260 645 246 639 c 128,-1,17
 232 633 232 633 223 616.5 c 128,-1,18
 214 600 214 600 208.5 581.5 c 128,-1,19
 203 563 203 563 200 528 c 0,20,21
 196 481 196 481 196 342.5 c 128,-1,22
 196 204 196 204 212.5 156 c 128,-1,23
 229 108 229 108 289 108 c 1,24,-1
 371 113 l 1,25,-1
 371 331 l 1,26,27
 372 351 372 351 384.5 357.5 c 128,-1,28
 397 364 397 364 429 364.5 c 128,-1,29
 461 365 461 365 477 356.5 c 128,-1,30
 493 348 493 348 495 322 c 2,31,-1
 512 126 l 1,32,-1
 512 0 l 1,33,34
 385 -16 385 -16 298 -16 c 0,0,1
EndSplineSet
EndChar

StartChar: H
Encoding: 72 72 43
Width: 533
GlyphClass: 2
Flags: W
LayerCount: 2
Fore
SplineSet
348 734 m 2,0,1
 348 755 348 755 357.5 761.5 c 128,-1,2
 367 768 367 768 397 768 c 0,3,4
 469 768 469 768 470 731 c 1,5,-1
 489 431 l 1,6,-1
 489 21 l 2,7,8
 489 4 489 4 488 -2 c 0,9,10
 484 -16 484 -16 449 -16 c 0,11,12
 348 -16 348 -16 348 20 c 2,13,-1
 348 310 l 1,14,-1
 184 310 l 1,15,-1
 185 21 l 2,16,17
 185 4 185 4 184 -2 c 0,18,19
 180 -16 180 -16 145 -16 c 0,20,21
 45 -16 45 -16 45 22 c 2,22,-1
 45 733 l 2,23,24
 45 755 45 755 54.5 761.5 c 128,-1,25
 64 768 64 768 94 768 c 0,26,27
 166 768 166 768 167 733 c 2,28,-1
 184 430 l 1,29,-1
 348 430 l 1,30,-1
 348 734 l 2,0,1
EndSplineSet
EndChar

StartChar: I
Encoding: 73 73 44
Width: 325
GlyphClass: 2
Flags: W
LayerCount: 2
Fore
SplineSet
59 121 m 2,0,-1
 95 121 l 1,1,-1
 95 632 l 1,2,-1
 65 632 l 1,3,4
 45 633 45 633 38 645 c 0,5,6
 31 659 31 659 31 696 c 0,7,8
 31 752 31 752 64 752 c 2,9,-1
 241 752 l 2,10,11
 285 752 285 752 285 721 c 0,12,13
 285 632 285 632 250 632 c 2,14,-1
 225 632 l 1,15,-1
 235 432 l 1,16,-1
 236 121 l 1,17,-1
 266 121 l 1,18,19
 301 120 301 120 301 89 c 0,20,21
 299 0 299 0 252 0 c 2,22,-1
 63 0 l 1,23,24
 45 1 45 1 38 13 c 0,25,26
 31 27 31 27 31 65 c 0,27,28
 31 121 31 121 59 121 c 2,0,-1
EndSplineSet
EndChar

StartChar: J
Encoding: 74 74 45
Width: 289
GlyphClass: 2
Flags: W
LayerCount: 2
Fore
SplineSet
32 -113 m 0,0,1
 76 -113 76 -113 91 -53 c 128,-1,2
 106 7 106 7 106 163 c 2,3,-1
 107 732 l 2,4,5
 107 754 107 754 117.5 761 c 128,-1,6
 128 768 128 768 158 768 c 0,7,8
 230 768 230 768 231 731 c 2,9,-1
 247 432 l 1,10,-1
 247 165 l 2,11,12
 247 -4 247 -4 226 -90 c 0,13,14
 213 -140 213 -140 189 -167 c 0,15,16
 138 -224 138 -224 32 -224 c 1,17,18
 14 -223 14 -223 7.5 -210.5 c 128,-1,19
 1 -198 1 -198 0.5 -167.5 c 128,-1,20
 0 -137 0 -137 7.5 -125 c 128,-1,21
 15 -113 15 -113 32 -113 c 0,0,1
EndSplineSet
EndChar

StartChar: K
Encoding: 75 75 46
Width: 583
GlyphClass: 2
Flags: W
LayerCount: 2
Fore
SplineSet
362 732 m 1,0,1
 377 768 377 768 444 768 c 128,-1,2
 511 768 511 768 511 743 c 0,3,4
 511 738 511 738 508 732 c 2,5,-1
 357 417 l 1,6,-1
 548 21 l 2,7,8
 555 6 555 6 555 -0.5 c 128,-1,9
 555 -7 555 -7 551.5 -11.5 c 128,-1,10
 548 -16 548 -16 512.5 -16 c 128,-1,11
 477 -16 477 -16 436.5 -7.5 c 128,-1,12
 396 1 396 1 387 21 c 2,13,-1
 212 386 l 1,14,-1
 212 416 l 1,15,-1
 362 732 l 1,0,1
45 20 m 2,16,-1
 45 731 l 2,17,18
 45 753 45 753 56 760.5 c 128,-1,19
 67 768 67 768 97 768 c 0,20,21
 169 768 169 768 170 730 c 2,22,-1
 185 432 l 1,23,-1
 186 22 l 2,24,25
 186 4 186 4 184 -2 c 0,26,27
 181 -16 181 -16 146 -16 c 0,28,29
 45 -16 45 -16 45 20 c 2,16,-1
EndSplineSet
EndChar

StartChar: L
Encoding: 76 76 47
Width: 435
GlyphClass: 2
Flags: W
LayerCount: 2
Fore
SplineSet
45 731 m 2,0,1
 45 753 45 753 55.5 760.5 c 128,-1,2
 66 768 66 768 96 768 c 0,3,4
 168 768 168 768 169 732 c 2,5,-1
 184 432 l 1,6,-1
 185 121 l 1,7,-1
 379 121 l 2,8,9
 428 121 428 121 428 85 c 0,10,11
 428 20 428 20 409 7 c 0,12,13
 399 0 399 0 383 0 c 2,14,-1
 61 0 l 1,15,-1
 45 16 l 1,16,-1
 45 731 l 2,0,1
EndSplineSet
EndChar

StartChar: M
Encoding: 77 77 48
Width: 597
GlyphClass: 2
Flags: W
LayerCount: 2
Fore
SplineSet
412 21 m 2,0,-1
 412 475 l 1,1,-1
 347 354 l 1,2,-1
 246 354 l 1,3,-1
 185 473 l 1,4,-1
 185 22 l 2,5,6
 185 4 185 4 184 -2 c 0,7,8
 180 -16 180 -16 145 -16 c 0,9,10
 45 -16 45 -16 45 21 c 2,11,-1
 45 730 l 2,12,13
 45 768 45 768 114 768 c 128,-1,14
 183 768 183 768 197 731 c 2,15,-1
 298 473 l 1,16,-1
 404 732 l 2,17,18
 412 754 412 754 423.5 761 c 128,-1,19
 435 768 435 768 464 768 c 0,20,21
 536 768 536 768 537 729 c 1,22,-1
 553 431 l 1,23,-1
 553 28 l 2,24,25
 553 -2 553 -2 547.5 -9 c 128,-1,26
 542 -16 542 -16 511.5 -16 c 128,-1,27
 481 -16 481 -16 462 -14 c 128,-1,28
 443 -12 443 -12 427.5 -3.5 c 128,-1,29
 412 5 412 5 412 21 c 2,0,-1
EndSplineSet
EndChar

StartChar: N
Encoding: 78 78 49
Width: 543
GlyphClass: 2
Flags: W
LayerCount: 2
Fore
SplineSet
45 24 m 2,0,-1
 45 731 l 2,1,2
 45 768 45 768 117 768 c 0,3,4
 132 768 132 768 140.5 767 c 128,-1,5
 149 766 149 766 162 757.5 c 128,-1,6
 175 749 175 749 185 733 c 1,7,-1
 364 313 l 1,8,-1
 358 732 l 2,9,10
 358 768 358 768 430 768 c 0,11,12
 460 768 460 768 471 761 c 128,-1,13
 482 754 482 754 483 732 c 2,14,-1
 499 431 l 1,15,-1
 499 21 l 2,16,17
 499 4 499 4 498 -2 c 0,18,19
 494 -16 494 -16 459 -16 c 0,20,21
 394 -16 394 -16 381 21 c 1,22,-1
 184 436 l 1,23,-1
 185 22 l 2,24,25
 185 4 185 4 184 -2 c 0,26,27
 180 -16 180 -16 145 -16 c 0,28,29
 45 -16 45 -16 45 24 c 2,0,-1
EndSplineSet
EndChar

StartChar: O
Encoding: 79 79 50
Width: 597
GlyphClass: 2
Flags: W
LayerCount: 2
Fore
SplineSet
37 371 m 0,0,1
 37 530 37 530 62 615 c 128,-1,2
 87 700 87 700 141.5 734 c 128,-1,3
 196 768 196 768 299 768 c 128,-1,4
 402 768 402 768 456.5 734 c 128,-1,5
 511 700 511 700 535.5 615.5 c 128,-1,6
 560 531 560 531 560 371 c 0,7,8
 560 152 560 152 504 68 c 128,-1,9
 448 -16 448 -16 299 -16 c 128,-1,10
 150 -16 150 -16 93.5 68 c 128,-1,11
 37 152 37 152 37 371 c 0,0,1
197 481.5 m 128,-1,13
 196 443 196 443 196 351 c 128,-1,14
 196 259 196 259 202 197 c 128,-1,15
 208 135 208 135 218 115.5 c 128,-1,16
 228 96 228 96 245 96 c 0,17,18
 333 96 333 96 360 114 c 0,19,20
 370 121 370 121 379.5 137 c 128,-1,21
 389 153 389 153 393 170 c 128,-1,22
 397 187 397 187 400 220 c 0,23,24
 404 263 404 263 404 374.5 c 128,-1,25
 404 486 404 486 398.5 550.5 c 128,-1,26
 393 615 393 615 382.5 638.5 c 128,-1,27
 372 662 372 662 355 662 c 0,28,29
 315 662 315 662 290.5 658.5 c 128,-1,30
 266 655 266 655 247 641.5 c 128,-1,31
 228 628 228 628 219 611.5 c 128,-1,32
 210 595 210 595 204 557.5 c 128,-1,12
 198 520 198 520 197 481.5 c 128,-1,13
EndSplineSet
EndChar

StartChar: P
Encoding: 80 80 51
Width: 477
GlyphClass: 2
Flags: W
LayerCount: 2
Fore
SplineSet
45 22 m 2,0,-1
 45 752 l 1,1,2
 146 768 146 768 223 768 c 0,3,4
 359 768 359 768 412.5 711 c 128,-1,5
 466 654 466 654 466 532 c 0,6,7
 466 388 466 388 394 335 c 0,8,9
 347 301 347 301 302 293 c 1,10,11
 244 284 244 284 170 284 c 1,12,-1
 170 23 l 2,13,14
 170 4 170 4 168 -2 c 0,15,16
 165 -16 165 -16 130 -16 c 0,17,18
 45 -16 45 -16 45 22 c 2,0,-1
179.5 421.5 m 128,-1,20
 182 421 182 421 202.5 421 c 128,-1,21
 223 421 223 421 240 422 c 128,-1,22
 257 423 257 423 276.5 428.5 c 128,-1,23
 296 434 296 434 304 446 c 0,24,25
 322 476 322 476 322 529 c 128,-1,26
 322 582 322 582 306 615.5 c 128,-1,27
 290 649 290 649 272 649 c 0,28,29
 200 649 200 649 185 646 c 128,-1,30
 170 643 170 643 170 626 c 2,31,-1
 170 436 l 2,32,33
 170 425 170 425 173.5 423.5 c 128,-1,19
 177 422 177 422 179.5 421.5 c 128,-1,20
EndSplineSet
EndChar

StartChar: Q
Encoding: 81 81 52
Width: 589
GlyphClass: 2
Flags: W
LayerCount: 2
Fore
SplineSet
32 371 m 0,0,1
 32 530 32 530 57 615 c 128,-1,2
 82 700 82 700 136.5 734 c 128,-1,3
 191 768 191 768 294 768 c 128,-1,4
 397 768 397 768 451.5 734 c 128,-1,5
 506 700 506 700 530.5 615.5 c 128,-1,6
 555 531 555 531 555 371 c 0,7,8
 555 152 555 152 499 68 c 128,-1,9
 443 -16 443 -16 294 -16 c 128,-1,10
 145 -16 145 -16 88.5 68 c 128,-1,11
 32 152 32 152 32 371 c 0,0,1
192 481.5 m 128,-1,13
 191 443 191 443 191 351 c 128,-1,14
 191 259 191 259 197 197 c 128,-1,15
 203 135 203 135 213 115.5 c 128,-1,16
 223 96 223 96 240 96 c 0,17,18
 328 96 328 96 356 114 c 1,19,20
 365 121 365 121 374.5 137 c 128,-1,21
 384 153 384 153 388 170 c 128,-1,22
 392 187 392 187 395 220 c 0,23,24
 399 263 399 263 399 374.5 c 128,-1,25
 399 486 399 486 393.5 550.5 c 128,-1,26
 388 615 388 615 377.5 638.5 c 128,-1,27
 367 662 367 662 350 662 c 0,28,29
 310 662 310 662 285.5 658.5 c 128,-1,30
 261 655 261 655 242 641.5 c 128,-1,31
 223 628 223 628 214 611.5 c 128,-1,32
 205 595 205 595 199 557.5 c 128,-1,12
 193 520 193 520 192 481.5 c 128,-1,13
498.5 -176 m 128,-1,34
 484 -187 484 -187 439 -187 c 128,-1,35
 394 -187 394 -187 288.5 -176 c 128,-1,36
 183 -165 183 -165 127 -165 c 1,37,-1
 111 -116 l 1,38,39
 112 -81 112 -81 130 -68.5 c 128,-1,40
 148 -56 148 -56 189.5 -56 c 128,-1,41
 231 -56 231 -56 332.5 -66 c 128,-1,42
 434 -76 434 -76 489 -76 c 1,43,-1
 514 -133 l 1,44,33
 513 -165 513 -165 498.5 -176 c 128,-1,34
EndSplineSet
EndChar

StartChar: R
Encoding: 82 82 53
Width: 532
GlyphClass: 2
Flags: W
LayerCount: 2
Fore
SplineSet
45 24 m 2,0,-1
 45 752 l 1,1,2
 147 768 147 768 222 768 c 0,3,4
 361 768 361 768 414 716 c 128,-1,5
 467 664 467 664 467 544 c 0,6,7
 467 376 467 376 373 320 c 1,8,-1
 499 35 l 2,9,10
 510 10 510 10 510 2.5 c 128,-1,11
 510 -5 510 -5 508 -7 c 1,12,13
 504 -16 504 -16 474 -16 c 0,14,15
 377 -16 377 -16 360 22 c 2,16,-1
 246 286 l 1,17,18
 221 284 221 284 171 284 c 1,19,-1
 171 26 l 2,20,21
 171 -2 171 -2 165.5 -9 c 128,-1,22
 160 -16 160 -16 131 -16 c 0,23,24
 45 -16 45 -16 45 24 c 2,0,-1
187 421 m 0,25,26
 267 421 267 421 295 443.5 c 128,-1,27
 323 466 323 466 323 545 c 0,28,29
 323 593 323 593 307.5 621 c 128,-1,30
 292 649 292 649 273 649 c 0,31,32
 202 649 202 649 186.5 646 c 128,-1,33
 171 643 171 643 171 626 c 2,34,-1
 171 436 l 2,35,36
 171 423 171 423 176 422 c 128,-1,37
 181 421 181 421 187 421 c 0,25,26
EndSplineSet
EndChar

StartChar: S
Encoding: 83 83 54
Width: 522
GlyphClass: 2
Flags: W
LayerCount: 2
Fore
SplineSet
27 112.5 m 128,-1,1
 27 126 27 126 50.5 149.5 c 128,-1,2
 74 173 74 173 81.5 175 c 128,-1,3
 89 177 89 177 96 177 c 128,-1,4
 103 177 103 177 119 168 c 1,5,6
 193 110 193 110 249 110 c 128,-1,7
 305 110 305 110 322 136 c 128,-1,8
 339 162 339 162 339 204 c 128,-1,9
 339 246 339 246 309 272 c 128,-1,10
 279 298 279 298 210.5 335 c 128,-1,11
 142 372 142 372 91 431 c 128,-1,12
 40 490 40 490 40 553 c 0,13,14
 40 665 40 665 98.5 716.5 c 128,-1,15
 157 768 157 768 270 768 c 0,16,17
 339 768 339 768 405 735 c 1,18,19
 440 721 440 721 438 706 c 0,20,21
 437 700 437 700 436 688 c 1,22,23
 417 634 417 634 407 626 c 0,24,25
 404 624 404 624 393.5 624 c 128,-1,26
 383 624 383 624 338 640.5 c 128,-1,27
 293 657 293 657 261.5 657 c 128,-1,28
 230 657 230 657 209 635 c 128,-1,29
 188 613 188 613 188 573 c 128,-1,30
 188 533 188 533 224 500.5 c 128,-1,31
 260 468 260 468 335 433 c 1,32,33
 414 392 414 392 453.5 348 c 128,-1,34
 493 304 493 304 493 230 c 0,35,36
 493 -16 493 -16 285 -16 c 0,37,38
 130 -16 130 -16 48 73 c 1,39,0
 27 99 27 99 27 112.5 c 128,-1,1
EndSplineSet
EndChar

StartChar: T
Encoding: 84 84 55
Width: 470
GlyphClass: 2
Flags: W
LayerCount: 2
Fore
SplineSet
172 21 m 2,0,-1
 172 632 l 1,1,-1
 47 632 l 1,2,3
 23 633 23 633 16 645 c 0,4,5
 7 659 7 659 7 695 c 0,6,7
 7 752 7 752 41 752 c 2,8,-1
 405 752 l 2,9,10
 463 752 463 752 463 721 c 0,11,12
 463 632 463 632 415 632 c 2,13,-1
 303 633 l 1,14,-1
 312 430 l 1,15,-1
 313 23 l 2,16,17
 313 4 313 4 312 -2 c 0,18,19
 308 -16 308 -16 273 -16 c 0,20,21
 172 -16 172 -16 172 21 c 2,0,-1
EndSplineSet
EndChar

StartChar: U
Encoding: 85 85 56
Width: 550
GlyphClass: 2
Flags: W
LayerCount: 2
Fore
SplineSet
367 722 m 2,0,1
 367 750 367 750 379 759 c 128,-1,2
 391 768 391 768 429 768 c 128,-1,3
 467 768 467 768 481.5 756 c 128,-1,4
 496 744 496 744 497 698 c 1,5,-1
 509 429 l 2,6,7
 509 414 509 414 509 399 c 0,8,9
 509 244 509 244 488.5 153 c 128,-1,10
 468 62 468 62 418.5 23 c 128,-1,11
 369 -16 369 -16 277 -16 c 0,12,13
 143 -16 143 -16 92 68 c 128,-1,14
 41 152 41 152 41 370 c 2,15,-1
 41 700 l 2,16,17
 41 743 41 743 53.5 755.5 c 128,-1,18
 66 768 66 768 105 768 c 128,-1,19
 144 768 144 768 158 754.5 c 128,-1,20
 172 741 172 741 174 690 c 2,21,-1
 188 431 l 1,22,23
 188 178 188 178 208 130 c 0,24,25
 216 109 216 109 231 109 c 0,26,27
 266 109 266 109 285 110.5 c 128,-1,28
 304 112 304 112 322 122.5 c 128,-1,29
 340 133 340 133 347 147 c 128,-1,30
 354 161 354 161 360 194 c 0,31,32
 367 240 367 240 367 370 c 2,33,-1
 367 722 l 2,0,1
EndSplineSet
EndChar

StartChar: V
Encoding: 86 86 57
Width: 576
GlyphClass: 2
Flags: W
LayerCount: 2
Fore
SplineSet
485 768 m 0,0,1
 552 768 552 768 552 739 c 0,2,3
 552 734 552 734 551 729 c 2,4,-1
 383 21 l 2,5,6
 378 -2 378 -2 370 -9 c 128,-1,7
 362 -16 362 -16 322 -16 c 0,8,9
 229 -16 229 -16 219 22 c 2,10,-1
 25 731 l 2,11,12
 24 735 24 735 24 739 c 0,13,14
 24 768 24 768 92 768 c 0,15,16
 125 768 125 768 143.5 759.5 c 128,-1,17
 162 751 162 751 168 727 c 2,18,-1
 304 194 l 1,19,-1
 424 732 l 2,20,21
 428 753 428 753 441 760.5 c 128,-1,22
 454 768 454 768 485 768 c 0,0,1
EndSplineSet
EndChar

StartChar: W
Encoding: 87 87 58
Width: 948
GlyphClass: 2
Flags: W
LayerCount: 2
Fore
SplineSet
32 740 m 0,0,1
 32 768 32 768 99.5 768 c 128,-1,2
 167 768 167 768 176 731 c 2,3,-1
 311 194 l 1,4,-1
 407 632 l 2,5,6
 411 652 411 652 424 659 c 128,-1,7
 437 666 437 666 468 666 c 0,8,9
 548 666 548 666 559 623 c 2,10,-1
 667 194 l 1,11,-1
 786 731 l 2,12,13
 791 753 791 753 804 760.5 c 128,-1,14
 817 768 817 768 855 768 c 128,-1,15
 893 768 893 768 904.5 763 c 128,-1,16
 916 758 916 758 916 740 c 0,17,18
 916 736 916 736 915 731 c 2,19,-1
 748 20 l 2,20,21
 743 -1 743 -1 733.5 -8.5 c 128,-1,22
 724 -16 724 -16 703 -16 c 0,23,24
 596 -16 596 -16 586 20 c 2,25,-1
 480 375 l 1,26,-1
 390 22 l 2,27,28
 385 0 385 0 375 -8 c 128,-1,29
 365 -16 365 -16 345 -16 c 0,30,31
 238 -16 238 -16 229 20 c 2,32,-1
 33 734 l 2,33,34
 32 737 32 737 32 740 c 0,0,1
EndSplineSet
EndChar

StartChar: X
Encoding: 88 88 59
Width: 598
GlyphClass: 2
Flags: W
LayerCount: 2
Fore
SplineSet
378 731 m 1,0,1
 390 768 390 768 457.5 768 c 128,-1,2
 525 768 525 768 525 742 c 0,3,4
 525 736 525 736 521 727 c 2,5,-1
 372 414 l 1,6,-1
 562 21 l 2,7,8
 569 6 569 6 569 -0.5 c 128,-1,9
 569 -7 569 -7 565.5 -11.5 c 128,-1,10
 562 -16 562 -16 526.5 -16 c 128,-1,11
 491 -16 491 -16 450.5 -7.5 c 128,-1,12
 410 1 410 1 402 22 c 2,13,-1
 299 282 l 1,14,-1
 195 22 l 2,15,16
 186 -1 186 -1 176.5 -8.5 c 128,-1,17
 167 -16 167 -16 148 -16 c 128,-1,18
 129 -16 129 -16 110 -14 c 0,19,20
 35 -8 35 -8 35 14 c 0,21,22
 35 17 35 17 37 21 c 2,23,-1
 226 415 l 1,24,-1
 77 731 l 2,25,26
 75 737 75 737 75 742 c 0,27,28
 75 768 75 768 141.5 768 c 128,-1,29
 208 768 208 768 220 731 c 1,30,-1
 299 522 l 1,31,-1
 378 731 l 1,0,1
EndSplineSet
EndChar

StartChar: Y
Encoding: 89 89 60
Width: 575
GlyphClass: 2
Flags: W
LayerCount: 2
Fore
SplineSet
21 745 m 0,0,1
 21 768 21 768 87 768 c 128,-1,2
 153 768 153 768 168 731 c 1,3,-1
 305 492 l 1,4,-1
 424 734 l 1,5,6
 432 754 432 754 446 761 c 128,-1,7
 460 768 460 768 490 768 c 0,8,9
 558 768 558 768 558 743 c 0,10,11
 558 737 558 737 555 731 c 2,12,-1
 360 349 l 1,13,-1
 360 21 l 2,14,15
 360 4 360 4 358 -2 c 0,16,17
 355 -16 355 -16 320 -16 c 0,18,19
 243 -16 243 -16 243 22 c 2,20,-1
 243 349 l 1,21,-1
 25 732 l 2,22,23
 21 739 21 739 21 745 c 0,0,1
EndSplineSet
EndChar

StartChar: Z
Encoding: 90 90 61
Width: 530
GlyphClass: 2
Flags: W
LayerCount: 2
Fore
SplineSet
450 0 m 2,0,-1
 60 0 l 1,1,-1
 44 16 l 1,2,-1
 44 122 l 1,3,-1
 328 632 l 1,4,-1
 72 632 l 1,5,6
 46 633 46 633 38 644 c 1,7,8
 30 658 30 658 30 690.5 c 128,-1,9
 30 723 30 723 37 737.5 c 128,-1,10
 44 752 44 752 67 752 c 2,11,-1
 469 752 l 1,12,-1
 485 736 l 1,13,-1
 485 648 l 1,14,-1
 208 121 l 1,15,-1
 445 121 l 1,16,17
 478 120 478 120 489.5 112.5 c 128,-1,18
 501 105 501 105 501 89 c 0,19,20
 499 0 499 0 450 0 c 2,0,-1
EndSplineSet
EndChar

StartChar: bracketleft
Encoding: 91 91 62
Width: 369
GlyphClass: 2
Flags: W
LayerCount: 2
Fore
SplineSet
319 -140 m 1,0,-1
 59 -140 l 1,1,-1
 43 -124 l 1,2,-1
 51 889 l 1,3,-1
 67 905 l 1,4,-1
 327 905 l 1,5,-1
 343 889 l 1,6,-1
 343 797 l 1,7,-1
 327 781 l 1,8,-1
 162 781 l 1,9,-1
 180 431 l 1,10,-1
 182 -16 l 1,11,-1
 319 -16 l 1,12,-1
 335 -32 l 1,13,-1
 335 -124 l 1,14,-1
 319 -140 l 1,0,-1
EndSplineSet
EndChar

StartChar: backslash
Encoding: 92 92 63
Width: 372
GlyphClass: 2
Flags: W
LayerCount: 2
Fore
SplineSet
364 -146 m 1,0,-1
 228 -146 l 1,1,-1
 12 769 l 1,2,-1
 12 876 l 1,3,-1
 117 876 l 1,4,-1
 364 -114 l 1,5,-1
 364 -146 l 1,0,-1
EndSplineSet
EndChar

StartChar: bracketright
Encoding: 93 93 64
Width: 368
GlyphClass: 2
Flags: W
LayerCount: 2
Fore
SplineSet
311 -140 m 1,0,-1
 51 -140 l 1,1,-1
 35 -124 l 1,2,-1
 35 -32 l 1,3,-1
 51 -16 l 1,4,-1
 187 -16 l 1,5,-1
 192 781 l 1,6,-1
 43 781 l 1,7,-1
 27 797 l 1,8,-1
 27 889 l 1,9,-1
 43 905 l 1,10,-1
 287 905 l 1,11,-1
 303 889 l 1,12,-1
 323 431 l 1,13,-1
 327 -124 l 1,14,-1
 311 -140 l 1,0,-1
EndSplineSet
EndChar

StartChar: asciicircum
Encoding: 94 94 65
Width: 377
GlyphClass: 2
Flags: W
LayerCount: 2
Fore
SplineSet
353 556 m 1,0,-1
 314 524 l 1,1,-1
 189 637 l 1,2,-1
 64 524 l 1,3,-1
 25 556 l 1,4,-1
 38 610 l 1,5,-1
 140 732 l 1,6,-1
 189 752 l 1,7,-1
 238 732 l 1,8,-1
 340 610 l 1,9,-1
 353 556 l 1,0,-1
EndSplineSet
EndChar

StartChar: underscore
Encoding: 95 95 66
Width: 487
GlyphClass: 2
Flags: W
LayerCount: 2
Fore
SplineSet
45 0 m 1,0,-1
 45 124 l 1,1,-1
 426 124 l 1,2,-1
 442 108 l 1,3,-1
 442 16 l 1,4,-1
 426 0 l 1,5,-1
 45 0 l 1,0,-1
EndSplineSet
EndChar

StartChar: grave
Encoding: 96 96 67
Width: 240
GlyphClass: 2
Flags: W
LayerCount: 2
Fore
SplineSet
212 557 m 1,0,-1
 166 536 l 1,1,-1
 6 708 l 1,2,-1
 114 768 l 1,3,-1
 156 736 l 1,4,-1
 213 612 l 1,5,-1
 212 557 l 1,0,-1
EndSplineSet
EndChar

StartChar: a
Encoding: 97 97 68
Width: 435
GlyphClass: 2
Flags: W
LayerCount: 2
Fore
SplineSet
274 31 m 1,0,1
 222 -16 222 -16 181.5 -16 c 128,-1,2
 141 -16 141 -16 116 -10.5 c 128,-1,3
 91 -5 91 -5 71 13.5 c 128,-1,4
 51 32 51 32 43 67 c 128,-1,5
 35 102 35 102 35 160 c 0,6,7
 35 241 35 241 114 271 c 1,8,-1
 257 308 l 1,9,10
 256 373 256 373 244 392 c 128,-1,11
 232 411 232 411 192 411 c 128,-1,12
 152 411 152 411 123 398 c 1,13,-1
 88 384 l 1,14,-1
 87 384 l 1,15,16
 78 379 78 379 71 392 c 0,17,18
 53 430 53 430 53 451.5 c 128,-1,19
 53 473 53 473 56.5 475.5 c 128,-1,20
 60 478 60 478 60 479 c 0,21,22
 110 512 110 512 189.5 512 c 128,-1,23
 269 512 269 512 312 491 c 128,-1,24
 355 470 355 470 374.5 414.5 c 128,-1,25
 394 359 394 359 394 250 c 2,26,-1
 392 0 l 2,27,28
 392 -6 392 -6 390 -8 c 0,29,30
 386 -16 386 -16 352 -16 c 0,31,32
 290 -16 290 -16 290 0 c 1,33,-1
 274 31 l 1,0,1
146 158 m 0,34,35
 146 86 146 86 188 82 c 1,36,37
 217 82 217 82 230 92 c 0,38,39
 258 111 258 111 258 234 c 1,40,41
 206 227 206 227 176 205.5 c 128,-1,42
 146 184 146 184 146 158 c 0,34,35
EndSplineSet
Substitution2: "'smcp' Lowercase to Small Capitals in Latin lookup 1 subtable" A_smcp
EndChar

StartChar: b
Encoding: 98 98 69
Width: 451
GlyphClass: 2
Flags: W
LayerCount: 2
Fore
SplineSet
227 512 m 2,0,1
 348 512 348 512 391.5 458.5 c 128,-1,2
 435 405 435 405 435 255 c 128,-1,3
 435 105 435 105 400.5 44.5 c 128,-1,4
 366 -16 366 -16 292 -16 c 0,5,6
 241 -16 241 -16 170 -4 c 2,7,-1
 147 0 l 1,8,9
 120 -16 120 -16 45 -16 c 1,10,-1
 45 752 l 2,11,12
 45 768 45 768 80 768 c 128,-1,13
 115 768 115 768 138 763.5 c 128,-1,14
 161 759 161 759 162 752 c 2,15,-1
 179 512 l 1,16,-1
 227 512 l 2,0,1
179 416 m 1,17,-1
 179 80 l 1,18,-1
 275 80 l 2,19,20
 286 80 286 80 288.5 122.5 c 128,-1,21
 291 165 291 165 291 260 c 128,-1,22
 291 355 291 355 277.5 385.5 c 128,-1,23
 264 416 264 416 227 416 c 2,24,-1
 179 416 l 1,17,-1
EndSplineSet
Substitution2: "'smcp' Lowercase to Small Capitals in Latin lookup 1 subtable" B_smcp
EndChar

StartChar: c
Encoding: 99 99 70
Width: 411
GlyphClass: 2
Flags: W
LayerCount: 2
Fore
SplineSet
371 478 m 1,0,1
 378 474 378 474 378 459.5 c 128,-1,2
 378 445 378 445 371 421 c 0,3,4
 358 377 358 377 343 384 c 1,5,-1
 342 384 l 1,6,-1
 307 398 l 1,7,8
 278 411 278 411 236.5 411 c 128,-1,9
 195 411 195 411 183.5 377 c 128,-1,10
 172 343 172 343 172 246 c 128,-1,11
 172 149 172 149 186.5 115.5 c 128,-1,12
 201 82 201 82 242 82 c 0,13,14
 301 82 301 82 334 89 c 128,-1,15
 367 96 367 96 368 96 c 0,16,17
 375 98 375 98 379.5 88 c 128,-1,18
 384 78 384 78 384 41 c 128,-1,19
 384 4 384 4 368 0 c 0,20,21
 306 -16 306 -16 246 -16 c 0,22,23
 125 -16 125 -16 80.5 41.5 c 128,-1,24
 36 99 36 99 36 250 c 0,25,26
 36 359 36 359 55.5 414.5 c 128,-1,27
 75 470 75 470 118 491 c 128,-1,28
 161 512 161 512 243 512 c 128,-1,29
 325 512 325 512 370 478 c 1,30,-1
 371 478 l 1,0,1
EndSplineSet
Substitution2: "'smcp' Lowercase to Small Capitals in Latin lookup 1 subtable" C_smcp
EndChar

StartChar: d
Encoding: 100 100 71
Width: 451
GlyphClass: 2
Flags: W
LayerCount: 2
Fore
SplineSet
160 -16 m 0,0,1
 86 -16 86 -16 51.5 44.5 c 128,-1,2
 17 105 17 105 17 255 c 128,-1,3
 17 405 17 405 60.5 458.5 c 128,-1,4
 104 512 104 512 225 512 c 2,5,-1
 273 512 l 1,6,-1
 273 752 l 2,7,8
 273 768 273 768 308 768 c 128,-1,9
 343 768 343 768 366 763.5 c 128,-1,10
 389 759 389 759 390 752 c 2,11,-1
 407 433 l 1,12,-1
 407 0 l 2,13,14
 407 -6 407 -6 406 -8 c 0,15,16
 401 -16 401 -16 369 -16 c 128,-1,17
 337 -16 337 -16 314.5 -11.5 c 128,-1,18
 292 -7 292 -7 292 0 c 1,19,-1
 273 31 l 1,20,21
 244 12 244 12 232 4 c 0,22,23
 199 -16 199 -16 160 -16 c 0,0,1
174.5 385.5 m 128,-1,25
 161 355 161 355 161 282.5 c 128,-1,26
 161 210 161 210 161.5 187 c 128,-1,27
 162 164 162 164 163 134 c 0,28,29
 165 80 165 80 177 80 c 0,30,31
 213 80 213 80 273 116 c 1,32,-1
 273 416 l 1,33,-1
 225 416 l 2,34,24
 188 416 188 416 174.5 385.5 c 128,-1,25
EndSplineSet
Substitution2: "'smcp' Lowercase to Small Capitals in Latin lookup 1 subtable" D_smcp
EndChar

StartChar: e
Encoding: 101 101 72
Width: 454
GlyphClass: 2
Flags: W
LayerCount: 2
Fore
SplineSet
227 -16 m 0,0,1
 120 -16 120 -16 78.5 42 c 128,-1,2
 37 100 37 100 37 250 c 0,3,4
 37 358 37 358 56 414.5 c 128,-1,5
 75 471 75 471 113.5 491.5 c 128,-1,6
 152 512 152 512 227 512 c 128,-1,7
 302 512 302 512 340.5 491 c 128,-1,8
 379 470 379 470 397 413 c 128,-1,9
 415 356 415 356 415 251 c 0,10,11
 415 245 415 245 415 239 c 128,-1,12
 415 233 415 233 391.5 228 c 128,-1,13
 368 223 368 223 335 223 c 2,14,-1
 181 223 l 1,15,16
 183 106 183 106 198 90 c 1,17,18
 207 82 207 82 227 82 c 0,19,20
 358 82 358 82 406 95 c 0,21,22
 408 96 408 96 409 96 c 0,23,24
 416 98 416 98 420.5 88 c 128,-1,25
 425 78 425 78 425 41 c 128,-1,26
 425 4 425 4 409 0 c 1,27,28
 368 -16 368 -16 227 -16 c 0,0,1
181 381 m 2,29,-1
 181 303 l 1,30,-1
 282 303 l 1,31,32
 278 419 278 419 259 419 c 0,33,34
 225 419 225 419 203 409 c 128,-1,35
 181 399 181 399 181 381 c 2,29,-1
EndSplineSet
Substitution2: "'smcp' Lowercase to Small Capitals in Latin lookup 1 subtable" E_smcp
EndChar

StartChar: f
Encoding: 102 102 73
Width: 369
GlyphClass: 2
Flags: W
LayerCount: 2
Fore
SplineSet
367 654 m 1,0,1
 338 667 338 667 297 667 c 128,-1,2
 256 667 256 667 244 629 c 128,-1,3
 232 591 232 591 232 496 c 1,4,-1
 328 496 l 2,5,6
 344 496 344 496 344 456 c 128,-1,7
 344 416 344 416 328 416 c 2,8,-1
 240 416 l 1,9,-1
 240 -224 l 2,10,11
 240 -230 240 -230 238 -232 c 0,12,13
 234 -240 234 -240 200.5 -240 c 128,-1,14
 167 -240 167 -240 133 -235 c 128,-1,15
 99 -230 99 -230 99 -224 c 2,16,-1
 99 416 l 1,17,-1
 19 416 l 2,18,19
 7 416 7 416 5.5 421.5 c 128,-1,20
 4 427 4 427 4 434 c 0,21,22
 4 477 4 477 19 480 c 2,23,-1
 99 496 l 1,24,25
 99 657 99 657 141.5 712.5 c 128,-1,26
 184 768 184 768 306 768 c 0,27,28
 385 768 385 768 430 734 c 1,29,-1
 431 734 l 1,30,31
 440 729 440 729 440 716.5 c 128,-1,32
 440 704 440 704 436 688 c 128,-1,33
 432 672 432 672 426.5 659 c 128,-1,34
 421 646 421 646 416 641 c 128,-1,35
 411 636 411 636 407.5 637 c 128,-1,36
 404 638 404 638 404 639 c 2,37,-1
 367 654 l 1,0,1
EndSplineSet
Substitution2: "'smcp' Lowercase to Small Capitals in Latin lookup 1 subtable" F_smcp
EndChar

StartChar: g
Encoding: 103 103 74
Width: 486
GlyphClass: 2
Flags: W
LayerCount: 2
Fore
SplineSet
254 -48 m 2,0,-1
 169 -49 l 2,1,2
 107 -49 107 -49 94.5 -39 c 128,-1,3
 82 -29 82 -29 82 -15 c 128,-1,4
 82 -1 82 -1 87 16 c 2,5,-1
 122 122 l 1,6,7
 74 143 74 143 53 191 c 128,-1,8
 32 239 32 239 32 311 c 128,-1,9
 32 383 32 383 41 420 c 128,-1,10
 50 457 50 457 75.5 478 c 128,-1,11
 101 499 101 499 136 505.5 c 128,-1,12
 171 512 171 512 232 512 c 2,13,-1
 450 512 l 2,14,15
 466 512 466 512 466 472 c 0,16,17
 466 452 466 452 450 448 c 1,18,-1
 447 447 l 1,19,-1
 404 439 l 1,20,21
 432 393 432 393 432 320 c 0,22,23
 432 205 432 205 387.5 154.5 c 128,-1,24
 343 104 343 104 232 104 c 2,25,-1
 210 104 l 1,26,-1
 201 57 l 1,27,28
 314 55 314 55 348 49 c 128,-1,29
 382 43 382 43 395 35 c 128,-1,30
 408 27 408 27 419.5 11 c 128,-1,31
 431 -5 431 -5 433.5 -26 c 128,-1,32
 436 -47 436 -47 436 -81 c 0,33,34
 436 -164 436 -164 390 -202 c 128,-1,35
 344 -240 344 -240 226 -240 c 0,36,37
 171 -240 171 -240 88 -224 c 0,38,39
 73 -221 73 -221 73 -173 c 128,-1,40
 73 -125 73 -125 87 -125 c 2,41,42
 87 -125 87 -125 88 -125 c 2,43,-1
 89 -125 l 1,44,45
 179 -135 179 -135 232.5 -135 c 128,-1,46
 286 -135 286 -135 299 -127 c 128,-1,47
 312 -119 312 -119 312 -87.5 c 128,-1,48
 312 -56 312 -56 300.5 -52 c 128,-1,49
 289 -48 289 -48 254 -48 c 2,0,-1
178.5 402.5 m 128,-1,51
 165 389 165 389 165 327.5 c 128,-1,52
 165 266 165 266 170.5 238.5 c 128,-1,53
 176 211 176 211 182 206.5 c 128,-1,54
 188 202 188 202 211.5 202 c 128,-1,55
 235 202 235 202 249.5 203.5 c 128,-1,56
 264 205 264 205 276 218 c 128,-1,57
 288 231 288 231 289.5 252 c 128,-1,58
 291 273 291 273 291 318 c 128,-1,59
 291 363 291 363 285.5 385.5 c 128,-1,60
 280 408 280 408 274 412 c 128,-1,61
 268 416 268 416 257 416 c 0,62,50
 192 416 192 416 178.5 402.5 c 128,-1,51
EndSplineSet
Substitution2: "'smcp' Lowercase to Small Capitals in Latin lookup 1 subtable" G_smcp
EndChar

StartChar: h
Encoding: 104 104 75
Width: 464
GlyphClass: 2
Flags: W
LayerCount: 2
Fore
SplineSet
302 512 m 0,0,1
 376 512 376 512 410.5 466 c 128,-1,2
 445 420 445 420 445 304 c 2,3,-1
 445 0 l 2,4,5
 445 -6 445 -6 444 -8 c 0,6,7
 439 -16 439 -16 405.5 -16 c 128,-1,8
 372 -16 372 -16 337 -11 c 128,-1,9
 302 -6 302 -6 302 0 c 2,10,-1
 301 304 l 2,11,12
 301 416 301 416 285 416 c 0,13,14
 249 416 249 416 189 380 c 1,15,-1
 189 0 l 2,16,17
 189 -6 189 -6 188 -8 c 0,18,19
 183 -16 183 -16 149.5 -16 c 128,-1,20
 116 -16 116 -16 80.5 -11 c 128,-1,21
 45 -6 45 -6 45 0 c 2,22,-1
 45 752 l 2,23,24
 45 768 45 768 80.5 768 c 128,-1,25
 116 768 116 768 142 763.5 c 128,-1,26
 168 759 168 759 169 752 c 2,27,-1
 187 463 l 1,28,29
 263 512 263 512 302 512 c 0,0,1
EndSplineSet
Substitution2: "'smcp' Lowercase to Small Capitals in Latin lookup 1 subtable" H_smcp
EndChar

StartChar: i
Encoding: 105 105 76
Width: 227
GlyphClass: 2
Flags: W
LayerCount: 2
Fore
SplineSet
47 0 m 2,0,-1
 47 496 l 2,1,2
 47 512 47 512 83 512 c 128,-1,3
 119 512 119 512 151 507 c 128,-1,4
 183 502 183 502 183 496 c 2,5,-1
 183 0 l 2,6,7
 183 -6 183 -6 182 -8 c 0,8,9
 177 -16 177 -16 144 -16 c 128,-1,10
 111 -16 111 -16 79 -11 c 128,-1,11
 47 -6 47 -6 47 0 c 2,0,-1
37 696 m 128,-1,13
 37 768 37 768 109 768 c 128,-1,14
 181 768 181 768 181 696 c 128,-1,15
 181 624 181 624 109 624 c 128,-1,12
 37 624 37 624 37 696 c 128,-1,13
EndSplineSet
Substitution2: "'smcp' Lowercase to Small Capitals in Latin lookup 1 subtable" I_smcp
EndChar

StartChar: j
Encoding: 106 106 77
Width: 216
GlyphClass: 2
Flags: W
LayerCount: 2
Fore
SplineSet
41 496 m 2,0,1
 41 512 41 512 77 512 c 128,-1,2
 113 512 113 512 144 507 c 128,-1,3
 175 502 175 502 175 496 c 2,4,-1
 175 -224 l 2,5,6
 175 -230 175 -230 174 -232 c 0,7,8
 169 -240 169 -240 136.5 -240 c 128,-1,9
 104 -240 104 -240 81 -235.5 c 128,-1,10
 58 -231 58 -231 57 -224 c 2,11,-1
 41 0 l 1,12,-1
 41 496 l 2,0,1
34 696 m 128,-1,14
 34 768 34 768 106 768 c 128,-1,15
 178 768 178 768 178 696 c 128,-1,16
 178 624 178 624 106 624 c 128,-1,13
 34 624 34 624 34 696 c 128,-1,14
EndSplineSet
Substitution2: "'smcp' Lowercase to Small Capitals in Latin lookup 1 subtable" J_smcp
EndChar

StartChar: k
Encoding: 107 107 78
Width: 486
GlyphClass: 2
Flags: W
LayerCount: 2
Fore
SplineSet
181 0 m 2,0,1
 181 -6 181 -6 180 -8 c 0,2,3
 175 -16 175 -16 142 -16 c 128,-1,4
 109 -16 109 -16 77 -11 c 128,-1,5
 45 -6 45 -6 45 0 c 2,6,-1
 45 752 l 2,7,8
 45 768 45 768 80 768 c 128,-1,9
 115 768 115 768 138 763.5 c 128,-1,10
 161 759 161 759 162 752 c 2,11,-1
 181 431 l 1,12,-1
 181 0 l 2,0,1
480 -5 m 0,13,14
 480 -16 480 -16 443 -16 c 128,-1,15
 406 -16 406 -16 371 -11 c 128,-1,16
 336 -6 336 -6 333 0 c 1,17,-1
 332 1 l 1,18,-1
 202 272 l 1,19,-1
 202 304 l 1,20,-1
 308 495 l 2,21,22
 309 495 309 495 309 496 c 0,23,24
 318 512 318 512 349 512 c 0,25,26
 420 512 420 512 440 500 c 0,27,28
 444 498 444 498 443 496 c 2,29,-1
 330 304 l 1,30,-1
 479 0 l 2,31,32
 480 -3 480 -3 480 -5 c 0,13,14
EndSplineSet
Substitution2: "'smcp' Lowercase to Small Capitals in Latin lookup 1 subtable" K_smcp
EndChar

StartChar: l
Encoding: 108 108 79
Width: 222
GlyphClass: 2
Flags: W
LayerCount: 2
Fore
SplineSet
180 0 m 2,0,1
 180 -6 180 -6 178 -8 c 0,2,3
 174 -16 174 -16 141 -16 c 128,-1,4
 108 -16 108 -16 76.5 -11 c 128,-1,5
 45 -6 45 -6 45 0 c 2,6,-1
 45 752 l 2,7,8
 45 768 45 768 80 768 c 128,-1,9
 115 768 115 768 138 763.5 c 128,-1,10
 161 759 161 759 162 752 c 2,11,-1
 180 431 l 1,12,-1
 180 0 l 2,0,1
EndSplineSet
Substitution2: "'smcp' Lowercase to Small Capitals in Latin lookup 1 subtable" L_smcp
EndChar

StartChar: m
Encoding: 109 109 80
Width: 745
GlyphClass: 2
Flags: W
LayerCount: 2
Fore
SplineSet
557 0 m 2,0,-1
 557 304 l 2,1,2
 557 416 557 416 541 416 c 0,3,4
 506 416 506 416 440 377 c 1,5,6
 445 340 445 340 445 304 c 2,7,-1
 445 0 l 2,8,9
 445 -6 445 -6 444 -8 c 0,10,11
 439 -16 439 -16 405.5 -16 c 128,-1,12
 372 -16 372 -16 336.5 -11 c 128,-1,13
 301 -6 301 -6 301 0 c 2,14,-1
 301 341 l 1,15,16
 299 416 299 416 285 416 c 0,17,18
 249 416 249 416 189 380 c 1,19,-1
 189 0 l 2,20,21
 189 -6 189 -6 188 -8 c 0,22,23
 183 -16 183 -16 149.5 -16 c 128,-1,24
 116 -16 116 -16 80.5 -11 c 128,-1,25
 45 -6 45 -6 45 0 c 2,26,-1
 45 496 l 2,27,28
 45 512 45 512 85 512 c 0,29,30
 148 512 148 512 157 496 c 0,31,32
 157 494 157 494 158 494 c 2,33,-1
 177 456 l 1,34,35
 261 512 261 512 302 512 c 0,36,37
 390 512 390 512 421 448 c 1,38,39
 513 512 513 512 558 512 c 0,40,41
 632 512 632 512 666.5 466 c 128,-1,42
 701 420 701 420 701 304 c 2,43,-1
 701 0 l 2,44,45
 701 -6 701 -6 700 -8 c 0,46,47
 695 -16 695 -16 661.5 -16 c 128,-1,48
 628 -16 628 -16 592.5 -11 c 128,-1,49
 557 -6 557 -6 557 0 c 2,0,-1
EndSplineSet
Substitution2: "'smcp' Lowercase to Small Capitals in Latin lookup 1 subtable" M_smcp
EndChar

StartChar: n
Encoding: 110 110 81
Width: 488
GlyphClass: 2
Flags: W
LayerCount: 2
Fore
SplineSet
302 512 m 0,0,1
 376 512 376 512 410.5 466 c 128,-1,2
 445 420 445 420 445 304 c 2,3,-1
 445 0 l 2,4,5
 445 -6 445 -6 444 -8 c 0,6,7
 439 -16 439 -16 405.5 -16 c 128,-1,8
 372 -16 372 -16 337 -11 c 128,-1,9
 302 -6 302 -6 302 0 c 2,10,-1
 301 304 l 2,11,12
 301 416 301 416 285 416 c 0,13,14
 249 416 249 416 189 380 c 1,15,-1
 189 0 l 2,16,17
 189 -6 189 -6 188 -8 c 0,18,19
 183 -16 183 -16 149.5 -16 c 128,-1,20
 116 -16 116 -16 80.5 -11 c 128,-1,21
 45 -6 45 -6 45 0 c 2,22,-1
 45 496 l 2,23,24
 45 512 45 512 85 512 c 0,25,26
 148 512 148 512 157 496 c 0,27,28
 157 494 157 494 158 494 c 2,29,-1
 177 456 l 1,30,31
 261 512 261 512 302 512 c 0,0,1
EndSplineSet
Substitution2: "'smcp' Lowercase to Small Capitals in Latin lookup 1 subtable" N_smcp
EndChar

StartChar: o
Encoding: 111 111 82
Width: 474
GlyphClass: 2
Flags: W
LayerCount: 2
Fore
SplineSet
37 250 m 0,0,1
 37 359 37 359 56 415 c 128,-1,2
 75 471 75 471 116 491.5 c 128,-1,3
 157 512 157 512 237 512 c 128,-1,4
 317 512 317 512 358 491.5 c 128,-1,5
 399 471 399 471 418 415 c 128,-1,6
 437 359 437 359 437 250 c 0,7,8
 437 100 437 100 394 42 c 128,-1,9
 351 -16 351 -16 237 -16 c 128,-1,10
 123 -16 123 -16 80 42 c 128,-1,11
 37 100 37 100 37 250 c 0,0,1
173 250 m 0,12,13
 173 82 173 82 205 82 c 0,14,15
 249 82 249 82 270 96 c 0,16,17
 281 104 281 104 285 125 c 0,18,19
 293 167 293 167 293 250 c 0,20,21
 293 416 293 416 261 416 c 0,22,23
 201 416 201 416 187 388.5 c 128,-1,24
 173 361 173 361 173 250 c 0,12,13
EndSplineSet
Substitution2: "'smcp' Lowercase to Small Capitals in Latin lookup 1 subtable" O_smcp
EndChar

StartChar: p
Encoding: 112 112 83
Width: 453
GlyphClass: 2
Flags: W
LayerCount: 2
Fore
SplineSet
292 512 m 0,0,1
 366 512 366 512 400.5 451.5 c 128,-1,2
 435 391 435 391 435 241 c 128,-1,3
 435 91 435 91 391.5 37.5 c 128,-1,4
 348 -16 348 -16 227 -16 c 2,5,-1
 179 -16 l 1,6,-1
 179 -224 l 2,7,8
 179 -230 179 -230 178 -232 c 0,9,10
 173 -240 173 -240 140 -240 c 128,-1,11
 107 -240 107 -240 76 -235 c 128,-1,12
 45 -230 45 -230 45 -224 c 2,13,-1
 45 496 l 2,14,15
 45 512 45 512 92 512 c 256,16,17
 139 512 139 512 148 494 c 2,18,-1
 167 456 l 1,19,20
 251 512 251 512 292 512 c 0,0,1
277.5 110.5 m 128,-1,22
 291 141 291 141 291 213.5 c 128,-1,23
 291 286 291 286 290.5 309 c 128,-1,24
 290 332 290 332 289 362 c 0,25,26
 287 416 287 416 275 416 c 0,27,28
 239 416 239 416 179 380 c 1,29,-1
 179 80 l 1,30,-1
 227 80 l 2,31,21
 264 80 264 80 277.5 110.5 c 128,-1,22
EndSplineSet
Substitution2: "'smcp' Lowercase to Small Capitals in Latin lookup 1 subtable" P_smcp
EndChar

StartChar: q
Encoding: 113 113 84
Width: 453
GlyphClass: 2
Flags: W
LayerCount: 2
Fore
SplineSet
287 16 m 1,0,1
 240 -15 240 -15 163.5 -15 c 128,-1,2
 87 -15 87 -15 52 38 c 128,-1,3
 17 91 17 91 17 213 c 128,-1,4
 17 335 17 335 36.5 399 c 128,-1,5
 56 463 56 463 99 487.5 c 128,-1,6
 142 512 142 512 225 512 c 2,7,-1
 287 512 l 2,8,9
 337 512 337 512 390 498 c 1,10,-1
 407 493 l 1,11,-1
 407 -224 l 2,12,13
 407 -230 407 -230 406 -232 c 0,14,15
 401 -240 401 -240 368.5 -240 c 128,-1,16
 336 -240 336 -240 312.5 -235.5 c 128,-1,17
 289 -231 289 -231 289 -224 c 2,18,-1
 287 16 l 1,0,1
167.5 345.5 m 128,-1,20
 161 301 161 301 161 191 c 128,-1,21
 161 81 161 81 177 81 c 0,22,23
 227 81 227 81 287 117 c 1,24,-1
 287 417 l 1,25,-1
 225 417 l 2,26,27
 199 417 199 417 186.5 403.5 c 128,-1,19
 174 390 174 390 167.5 345.5 c 128,-1,20
EndSplineSet
Substitution2: "'smcp' Lowercase to Small Capitals in Latin lookup 1 subtable" Q_smcp
EndChar

StartChar: r
Encoding: 114 114 85
Width: 368
GlyphClass: 2
Flags: W
LayerCount: 2
Fore
SplineSet
162 456 m 1,0,1
 244 512 244 512 270.5 512 c 128,-1,2
 297 512 297 512 318.5 502 c 128,-1,3
 340 492 340 492 350 482 c 2,4,-1
 359 473 l 1,5,6
 344 409 344 409 336 393 c 128,-1,7
 328 377 328 377 314.5 377 c 128,-1,8
 301 377 301 377 280 388 c 128,-1,9
 259 399 259 399 242 399 c 128,-1,10
 225 399 225 399 174 368 c 1,11,-1
 174 0 l 2,12,13
 174 -6 174 -6 172 -8 c 0,14,15
 168 -16 168 -16 135 -16 c 128,-1,16
 102 -16 102 -16 73.5 -11 c 128,-1,17
 45 -6 45 -6 45 0 c 2,18,-1
 45 496 l 2,19,20
 45 512 45 512 90 512 c 128,-1,21
 135 512 135 512 142 496 c 1,22,-1
 142 494 l 1,23,-1
 162 456 l 1,0,1
EndSplineSet
Substitution2: "'smcp' Lowercase to Small Capitals in Latin lookup 1 subtable" R_smcp
EndChar

StartChar: s
Encoding: 115 115 86
Width: 415
GlyphClass: 2
Flags: W
LayerCount: 2
Fore
SplineSet
323 378 m 1,0,-1
 317 380 l 1,1,-1
 279 399 l 1,2,3
 236 416 236 416 205 416 c 1,4,5
 160 414 160 414 160 373 c 0,6,7
 160 357 160 357 177.5 347 c 128,-1,8
 195 337 195 337 206 331.5 c 128,-1,9
 217 326 217 326 238 316 c 0,10,11
 313 284 313 284 349.5 245 c 128,-1,12
 386 206 386 206 386 168 c 0,13,14
 386 85 386 85 342 34.5 c 128,-1,15
 298 -16 298 -16 222.5 -16 c 128,-1,16
 147 -16 147 -16 104 4 c 128,-1,17
 61 24 61 24 32 61 c 1,18,19
 28 63 28 63 28 67 c 128,-1,20
 28 71 28 71 29.5 77 c 128,-1,21
 31 83 31 83 53 109.5 c 128,-1,22
 75 136 75 136 88 136 c 0,23,24
 92 136 92 136 96 132 c 0,25,26
 149 90 149 90 199 90 c 0,27,28
 227 90 227 90 241 106 c 128,-1,29
 255 122 255 122 255 141 c 128,-1,30
 255 160 255 160 239 172 c 128,-1,31
 223 184 223 184 199.5 195.5 c 128,-1,32
 176 207 176 207 174 208 c 128,-1,33
 172 209 172 209 168.5 211 c 128,-1,34
 165 213 165 213 162 214 c 0,35,36
 111 239 111 239 75.5 276.5 c 128,-1,37
 40 314 40 314 40 360 c 0,38,39
 40 440 40 440 81.5 476 c 128,-1,40
 123 512 123 512 213 512 c 0,41,42
 247 512 247 512 278 504 c 0,43,44
 320 493 320 493 338 478 c 1,45,-1
 339 478 l 1,46,47
 347 473 347 473 348.5 466 c 128,-1,48
 350 459 350 459 347 436 c 0,49,50
 337 378 337 378 323 378 c 1,0,-1
EndSplineSet
Substitution2: "'smcp' Lowercase to Small Capitals in Latin lookup 1 subtable" S_smcp
EndChar

StartChar: t
Encoding: 116 116 87
Width: 337
GlyphClass: 2
Flags: W
LayerCount: 2
Fore
SplineSet
93 416 m 1,0,-1
 13 416 l 2,1,2
 1 416 1 416 -0.5 421.5 c 128,-1,3
 -2 427 -2 427 -2 434 c 0,4,5
 -2 477 -2 477 13 480 c 2,6,-1
 93 496 l 1,7,-1
 149 609 l 1,8,9
 161 624 161 624 195 624 c 0,10,11
 204 624 204 624 212 588 c 128,-1,12
 220 552 220 552 229 496 c 1,13,-1
 325 496 l 2,14,15
 341 496 341 496 341 456 c 128,-1,16
 341 416 341 416 325 416 c 2,17,-1
 228 416 l 1,18,-1
 228 98 l 1,19,-1
 244 -15 l 1,20,-1
 244 -16 l 1,21,22
 245 -22 245 -22 244 -24 c 0,23,24
 239 -32 239 -32 194 -32 c 256,25,26
 149 -32 149 -32 140 -14 c 2,27,-1
 93 81 l 1,28,-1
 93 416 l 1,0,-1
EndSplineSet
Substitution2: "'smcp' Lowercase to Small Capitals in Latin lookup 1 subtable" T_smcp
EndChar

StartChar: u
Encoding: 117 117 88
Width: 487
GlyphClass: 2
Flags: W
LayerCount: 2
Fore
SplineSet
185 -16 m 0,0,1
 111 -16 111 -16 76.5 30 c 128,-1,2
 42 76 42 76 42 192 c 2,3,-1
 42 496 l 2,4,5
 42 512 42 512 78.5 512 c 128,-1,6
 115 512 115 512 150 507 c 128,-1,7
 185 502 185 502 185 496 c 2,8,-1
 186 192 l 2,9,10
 186 80 186 80 202 80 c 0,11,12
 238 80 238 80 298 116 c 1,13,-1
 298 496 l 2,14,15
 298 512 298 512 334.5 512 c 128,-1,16
 371 512 371 512 406.5 507 c 128,-1,17
 442 502 442 502 442 496 c 2,18,-1
 442 0 l 2,19,20
 442 -6 442 -6 440 -8 c 0,21,22
 436 -16 436 -16 388.5 -16 c 128,-1,23
 341 -16 341 -16 330 0 c 2,24,-1
 309 31 l 1,25,26
 239 -16 239 -16 185 -16 c 0,0,1
EndSplineSet
Substitution2: "'smcp' Lowercase to Small Capitals in Latin lookup 1 subtable" U_smcp
EndChar

StartChar: v
Encoding: 118 118 89
Width: 470
GlyphClass: 2
Flags: W
LayerCount: 2
Fore
SplineSet
21 499 m 0,0,1
 21 512 21 512 57.5 512 c 128,-1,2
 94 512 94 512 125.5 507 c 128,-1,3
 157 502 157 502 158 496 c 2,4,-1
 247 122 l 1,5,-1
 325 496 l 2,6,7
 329 512 329 512 357 512 c 128,-1,8
 385 512 385 512 404 510 c 0,9,10
 450 505 450 505 448 496 c 1,11,-1
 447 494 l 1,12,-1
 322 0 l 2,13,14
 318 -16 318 -16 283.5 -16 c 128,-1,15
 249 -16 249 -16 210.5 -11 c 128,-1,16
 172 -6 172 -6 170 0 c 2,17,-1
 22 494 l 1,18,-1
 22 496 l 1,19,20
 21 498 21 498 21 499 c 0,0,1
EndSplineSet
Substitution2: "'smcp' Lowercase to Small Capitals in Latin lookup 1 subtable" V_smcp
EndChar

StartChar: w
Encoding: 119 119 90
Width: 734
GlyphClass: 2
Flags: W
LayerCount: 2
Fore
SplineSet
28 499 m 0,0,1
 28 512 28 512 64.5 512 c 128,-1,2
 101 512 101 512 132.5 507 c 128,-1,3
 164 502 164 502 165 496 c 2,4,-1
 254 145 l 1,5,-1
 313 416 l 1,6,7
 313 426 313 426 324 429 c 0,8,9
 336 432 336 432 354 432 c 128,-1,10
 372 432 372 432 403 427.5 c 128,-1,11
 434 423 434 423 436 416 c 2,12,-1
 505 143 l 1,13,-1
 583 496 l 2,14,15
 587 512 587 512 615 512 c 128,-1,16
 643 512 643 512 662 510 c 0,17,18
 708 505 708 505 706 496 c 1,19,-1
 705 494 l 1,20,-1
 580 0 l 2,21,22
 576 -16 576 -16 541.5 -16 c 128,-1,23
 507 -16 507 -16 468.5 -11 c 128,-1,24
 430 -6 430 -6 428 0 c 2,25,-1
 374 180 l 1,26,-1
 329 0 l 2,27,28
 325 -16 325 -16 290.5 -16 c 128,-1,29
 256 -16 256 -16 217.5 -11 c 128,-1,30
 179 -6 179 -6 177 0 c 2,31,-1
 29 494 l 1,32,-1
 29 496 l 1,33,34
 28 498 28 498 28 499 c 0,0,1
EndSplineSet
Substitution2: "'smcp' Lowercase to Small Capitals in Latin lookup 1 subtable" W_smcp
EndChar

StartChar: x
Encoding: 120 120 91
Width: 517
GlyphClass: 2
Flags: W
LayerCount: 2
Fore
SplineSet
486 -4 m 0,0,1
 486 -16 486 -16 449 -16 c 128,-1,2
 412 -16 412 -16 376.5 -11 c 128,-1,3
 341 -6 341 -6 337 0 c 0,4,5
 336 0 336 0 336 1 c 2,6,-1
 256 144 l 1,7,-1
 176 1 l 1,8,-1
 176 0 l 1,9,10
 174 -4 174 -4 173 -5 c 128,-1,11
 172 -6 172 -6 169.5 -9 c 128,-1,12
 167 -12 167 -12 164 -13 c 0,13,14
 153 -16 153 -16 138 -16 c 0,15,16
 61 -16 61 -16 31 -5 c 0,17,18
 25 -2 25 -2 26 0 c 2,19,-1
 179 261 l 1,20,-1
 46 496 l 2,21,22
 37 512 37 512 86 512 c 0,23,24
 117 512 117 512 147 507 c 128,-1,25
 177 502 177 502 181 496 c 1,26,-1
 181 495 l 1,27,-1
 252 362 l 1,28,-1
 312 494 l 2,29,30
 321 512 321 512 353 512 c 128,-1,31
 385 512 385 512 415 507 c 128,-1,32
 445 502 445 502 443 496 c 2,33,-1
 334 261 l 1,34,-1
 485 0 l 2,35,36
 486 -2 486 -2 486 -4 c 0,0,1
EndSplineSet
Substitution2: "'smcp' Lowercase to Small Capitals in Latin lookup 1 subtable" X_smcp
EndChar

StartChar: y
Encoding: 121 121 92
Width: 460
GlyphClass: 2
Flags: W
LayerCount: 2
Fore
SplineSet
21 499 m 0,0,1
 21 512 21 512 57.5 512 c 128,-1,2
 94 512 94 512 125.5 507 c 128,-1,3
 157 502 157 502 158 496 c 2,4,-1
 247 154 l 1,5,-1
 325 496 l 2,6,7
 329 512 329 512 357 512 c 0,8,9
 412 512 412 512 430 506 c 128,-1,10
 448 500 448 500 448 497 c 2,11,-1
 248 -224 l 2,12,13
 244 -240 244 -240 216 -240 c 128,-1,14
 188 -240 188 -240 170 -238 c 0,15,16
 131 -233 131 -233 133 -224 c 0,17,18
 133 -221 133 -221 134 -219 c 2,19,-1
 185 0 l 1,20,-1
 22 494 l 1,21,-1
 22 496 l 1,22,23
 21 498 21 498 21 499 c 0,0,1
EndSplineSet
Substitution2: "'smcp' Lowercase to Small Capitals in Latin lookup 1 subtable" Y_smcp
EndChar

StartChar: z
Encoding: 122 122 93
Width: 420
GlyphClass: 2
Flags: W
LayerCount: 2
Fore
SplineSet
50 390 m 2,0,1
 35 390 35 390 35 437 c 0,2,3
 35 440 35 440 35 443 c 0,4,5
 35 496 35 496 50 496 c 2,6,-1
 346 496 l 1,7,-1
 362 480 l 1,8,-1
 362 390 l 1,9,-1
 188 112 l 1,10,-1
 378 112 l 2,11,12
 394 112 394 112 394 72 c 0,13,14
 394 2 394 2 378 0 c 1,15,-1
 58 0 l 1,16,-1
 42 16 l 1,17,-1
 42 96 l 1,18,-1
 236 390 l 1,19,-1
 50 390 l 2,0,1
EndSplineSet
Substitution2: "'smcp' Lowercase to Small Capitals in Latin lookup 1 subtable" Z_smcp
EndChar

StartChar: braceleft
Encoding: 123 123 94
Width: 426
GlyphClass: 2
Flags: W
LayerCount: 2
Fore
SplineSet
388 -146 m 1,0,-1
 112 -146 l 1,1,-1
 96 -130 l 1,2,-1
 99 269 l 1,3,-1
 19 384 l 1,4,-1
 101 501 l 1,5,-1
 104 905 l 1,6,-1
 380 905 l 1,7,-1
 396 889 l 1,8,-1
 396 781 l 1,9,-1
 215 781 l 1,10,-1
 233 509 l 1,11,-1
 136 384 l 1,12,-1
 234 259 l 1,13,-1
 236 -22 l 1,14,-1
 372 -22 l 1,15,-1
 388 -38 l 1,16,-1
 388 -146 l 1,0,-1
EndSplineSet
EndChar

StartChar: bar
Encoding: 124 124 95
Width: 224
GlyphClass: 2
Flags: W
LayerCount: 2
Fore
SplineSet
182 -146 m 1,0,-1
 58 -146 l 1,1,-1
 42 -130 l 1,2,-1
 50 905 l 1,3,-1
 150 905 l 1,4,-1
 166 889 l 1,5,-1
 182 432 l 1,6,-1
 182 -146 l 1,0,-1
EndSplineSet
EndChar

StartChar: braceright
Encoding: 125 125 96
Width: 425
GlyphClass: 2
Flags: W
LayerCount: 2
Fore
SplineSet
30 905 m 1,0,-1
 290 905 l 1,1,-1
 306 889 l 1,2,-1
 325 501 l 1,3,-1
 407 384 l 1,4,-1
 327 269 l 1,5,-1
 330 -146 l 1,6,-1
 55 -146 l 1,7,-1
 38 -129 l 1,8,-1
 38 -22 l 1,9,-1
 190 -22 l 1,10,-1
 192 259 l 1,11,-1
 290 384 l 1,12,-1
 193 509 l 1,13,-1
 195 781 l 1,14,-1
 46 781 l 1,15,-1
 30 797 l 1,16,-1
 30 905 l 1,0,-1
EndSplineSet
EndChar

StartChar: asciitilde
Encoding: 126 126 97
Width: 504
GlyphClass: 2
Flags: W
LayerCount: 2
Fore
SplineSet
455 318 m 1,0,1
 448 318 448 318 408 318 c 128,-1,2
 368 318 368 318 265.5 308 c 128,-1,3
 163 298 163 298 113 298 c 128,-1,4
 63 298 63 298 49.5 307.5 c 128,-1,5
 36 317 36 317 36 350 c 1,6,-1
 61 401 l 1,7,8
 136 401 136 401 232.5 410 c 128,-1,9
 329 419 329 419 382 419 c 128,-1,10
 435 419 435 419 453 408.5 c 128,-1,11
 471 398 471 398 471 363 c 1,12,-1
 455 318 l 1,0,1
EndSplineSet
EndChar

StartChar: exclamdown
Encoding: 161 161 98
Width: 247
GlyphClass: 2
Flags: W
LayerCount: 2
Fore
SplineSet
20 -221 m 1,0,-1
 83 287 l 1,1,-1
 184 276 l 1,2,-1
 198 258 l 1,3,-1
 182 -47 l 1,4,-1
 150 -267 l 1,5,-1
 48 -256 l 1,6,-1
 20 -221 l 1,0,-1
81 440 m 128,-1,8
 81 512 81 512 153 512 c 128,-1,9
 225 512 225 512 225 440 c 128,-1,10
 225 368 225 368 153 368 c 128,-1,7
 81 368 81 368 81 440 c 128,-1,8
EndSplineSet
EndChar

StartChar: cent
Encoding: 162 162 99
Width: 379
GlyphClass: 2
Flags: W
LayerCount: 2
Fore
SplineSet
281 640 m 1,0,1
 333 632 333 632 370 609 c 1,2,-1
 371 609 l 1,3,4
 378 605 378 605 378 590.5 c 128,-1,5
 378 576 378 576 371 552 c 0,6,7
 358 508 358 508 343 515 c 1,8,-1
 342 515 l 1,9,-1
 307 529 l 1,10,11
 278 542 278 542 236.5 542 c 128,-1,12
 195 542 195 542 183.5 508 c 128,-1,13
 172 474 172 474 172 377 c 128,-1,14
 172 280 172 280 186.5 246.5 c 128,-1,15
 201 213 201 213 242 213 c 0,16,17
 301 213 301 213 334 220 c 128,-1,18
 367 227 367 227 368 227 c 0,19,20
 375 229 375 229 379.5 219 c 128,-1,21
 384 209 384 209 384 172 c 128,-1,22
 384 135 384 135 368 131 c 0,23,24
 328 119 328 119 285 116 c 1,25,-1
 286 -1 l 1,26,-1
 163 -1 l 1,27,-1
 146 30 l 1,28,-1
 146 128 l 1,29,30
 85 148 85 148 60.5 206.5 c 128,-1,31
 36 265 36 265 36 386 c 128,-1,32
 36 507 36 507 61 562.5 c 128,-1,33
 86 618 86 618 152 634 c 1,34,-1
 154 768 l 1,35,-1
 262 768 l 1,36,-1
 281 752 l 1,37,-1
 281 640 l 1,0,1
EndSplineSet
EndChar

StartChar: sterling
Encoding: 163 163 100
Width: 495
GlyphClass: 2
Flags: W
LayerCount: 2
Fore
SplineSet
90 304 m 1,0,-1
 40 304 l 1,1,-1
 24 320 l 1,2,-1
 24 428 l 1,3,-1
 85 428 l 1,4,5
 86 581 86 581 108.5 667 c 128,-1,6
 131 753 131 753 183.5 793 c 128,-1,7
 236 833 236 833 331 836 c 1,8,-1
 347 820 l 1,9,-1
 347 717 l 1,10,11
 269 717 269 717 252 605 c 0,12,13
 242 540 242 540 242 428 c 1,14,-1
 300 428 l 1,15,-1
 316 412 l 1,16,-1
 316 304 l 1,17,-1
 229 304 l 1,18,-1
 230 121 l 1,19,-1
 457 121 l 1,20,-1
 473 105 l 1,21,-1
 473 0 l 1,22,-1
 106 0 l 1,23,-1
 90 16 l 1,24,-1
 90 304 l 1,0,-1
EndSplineSet
EndChar

StartChar: currency
Encoding: 164 164 101
Width: 425
GlyphClass: 2
Flags: W
LayerCount: 2
Fore
SplineSet
271 244 m 1,0,1
 242 236 242 236 214 236 c 128,-1,2
 186 236 186 236 161 242 c 1,3,-1
 131 212 l 1,4,-1
 108 212 l 1,5,-1
 32 289 l 1,6,-1
 70 327 l 1,7,8
 63 351 63 351 63 382 c 128,-1,9
 63 413 63 413 69 437 c 1,10,-1
 37 469 l 1,11,-1
 37 492 l 1,12,-1
 114 568 l 1,13,-1
 155 526 l 1,14,15
 184 534 184 534 212 534 c 128,-1,16
 240 534 240 534 265 528 c 1,17,-1
 295 558 l 1,18,-1
 318 558 l 1,19,-1
 394 481 l 1,20,-1
 356 443 l 1,21,22
 363 419 363 419 363 388 c 128,-1,23
 363 357 363 357 357 333 c 1,24,-1
 389 301 l 1,25,-1
 389 278 l 1,26,-1
 312 202 l 1,27,-1
 271 244 l 1,0,1
268 385 m 0,28,29
 267 439 267 439 212.5 439 c 128,-1,30
 158 439 158 439 158 385 c 0,31,32
 159 331 159 331 213.5 331 c 128,-1,33
 268 331 268 331 268 385 c 0,28,29
EndSplineSet
EndChar

StartChar: yen
Encoding: 165 165 102
Width: 584
GlyphClass: 2
Flags: W
LayerCount: 2
Fore
SplineSet
23 745 m 0,0,1
 23 768 23 768 89 768 c 128,-1,2
 155 768 155 768 170 731 c 1,3,-1
 290 522 l 1,4,-1
 322 522 l 1,5,-1
 426 734 l 1,6,7
 434 754 434 754 448 761 c 128,-1,8
 462 768 462 768 492 768 c 0,9,10
 560 768 560 768 560 743 c 0,11,12
 560 737 560 737 557 731 c 2,13,-1
 450 522 l 1,14,-1
 514 522 l 1,15,-1
 530 506 l 1,16,-1
 530 398 l 1,17,-1
 118 398 l 1,18,-1
 102 414 l 1,19,-1
 102 522 l 1,20,-1
 146 522 l 1,21,-1
 27 732 l 2,22,23
 23 739 23 739 23 745 c 0,0,1
102 320 m 1,24,-1
 514 320 l 1,25,-1
 530 304 l 1,26,-1
 530 196 l 1,27,-1
 362 196 l 1,28,-1
 362 21 l 2,29,30
 362 4 362 4 360 -2 c 0,31,32
 357 -16 357 -16 322 -16 c 0,33,34
 245 -16 245 -16 245 22 c 2,35,-1
 245 196 l 1,36,-1
 118 196 l 1,37,-1
 102 212 l 1,38,-1
 102 320 l 1,24,-1
EndSplineSet
EndChar

StartChar: brokenbar
Encoding: 166 166 103
Width: 219
GlyphClass: 2
Flags: W
LayerCount: 2
Fore
SplineSet
45 295 m 1,0,-1
 169 295 l 1,1,-1
 185 279 l 1,2,-1
 185 -146 l 1,3,-1
 61 -146 l 1,4,-1
 45 -130 l 1,5,-1
 45 295 l 1,0,-1
185 482 m 1,6,-1
 61 482 l 1,7,-1
 45 498 l 1,8,-1
 45 905 l 1,9,-1
 169 905 l 1,10,-1
 185 889 l 1,11,-1
 185 482 l 1,6,-1
EndSplineSet
EndChar

StartChar: section
Encoding: 167 167 104
Width: 446
GlyphClass: 2
Flags: W
LayerCount: 2
Fore
SplineSet
285.5 350.5 m 128,-1,1
 288 360 288 360 288 379.5 c 128,-1,2
 288 399 288 399 260.5 407.5 c 128,-1,3
 233 416 233 416 204 416 c 1,4,5
 159 414 159 414 159 373 c 0,6,7
 159 353 159 353 180 338 c 128,-1,8
 201 323 201 323 226.5 323 c 128,-1,9
 252 323 252 323 267.5 332 c 128,-1,0
 283 341 283 341 285.5 350.5 c 128,-1,1
351 614 m 1,10,-1
 345 616 l 1,11,-1
 307 635 l 1,12,13
 264 652 264 652 233 652 c 1,14,15
 188 650 188 650 188 609 c 0,16,17
 188 593 188 593 205.5 583 c 128,-1,18
 223 573 223 573 234 567.5 c 128,-1,19
 245 562 245 562 266 552 c 0,20,21
 341 520 341 520 377.5 481 c 128,-1,22
 414 442 414 442 414 404 c 0,23,24
 414 299 414 299 346 248 c 1,25,26
 386 206 386 206 386 168 c 0,27,28
 386 85 386 85 342 34.5 c 128,-1,29
 298 -16 298 -16 222.5 -16 c 128,-1,30
 147 -16 147 -16 104 4 c 128,-1,31
 61 24 61 24 32 61 c 1,32,33
 28 63 28 63 28 67 c 128,-1,34
 28 71 28 71 29.5 77 c 128,-1,35
 31 83 31 83 53 109.5 c 128,-1,36
 75 136 75 136 88 136 c 0,37,38
 92 136 92 136 96 132 c 0,39,40
 149 90 149 90 199 90 c 0,41,42
 227 90 227 90 241 106 c 128,-1,43
 255 122 255 122 255 141 c 128,-1,44
 255 160 255 160 239 172 c 128,-1,45
 223 184 223 184 199.5 195.5 c 128,-1,46
 176 207 176 207 174 208 c 128,-1,47
 172 209 172 209 168.5 211 c 128,-1,48
 165 213 165 213 162 214 c 0,49,50
 111 239 111 239 75.5 276.5 c 128,-1,51
 40 314 40 314 40 360 c 0,52,53
 40 468 40 468 118 498 c 1,54,55
 68 543 68 543 68 596 c 0,56,57
 68 676 68 676 109.5 712 c 128,-1,58
 151 748 151 748 241 748 c 0,59,60
 275 748 275 748 306 740 c 0,61,62
 348 729 348 729 366 714 c 1,63,-1
 367 714 l 1,64,65
 375 709 375 709 376.5 702 c 128,-1,66
 378 695 378 695 375 672 c 0,67,68
 365 614 365 614 351 614 c 1,10,-1
EndSplineSet
EndChar

StartChar: dieresis
Encoding: 168 168 105
Width: 460
GlyphClass: 2
Flags: W
LayerCount: 2
Fore
SplineSet
41 696 m 128,-1,1
 41 768 41 768 113 768 c 128,-1,2
 185 768 185 768 185 696 c 128,-1,3
 185 624 185 624 113 624 c 128,-1,0
 41 624 41 624 41 696 c 128,-1,1
275 696 m 128,-1,5
 275 768 275 768 347 768 c 128,-1,6
 419 768 419 768 419 696 c 128,-1,7
 419 624 419 624 347 624 c 128,-1,4
 275 624 275 624 275 696 c 128,-1,5
EndSplineSet
EndChar

StartChar: copyright
Encoding: 169 169 106
Width: 747
GlyphClass: 2
Flags: W
LayerCount: 2
Fore
SplineSet
389 145 m 0,0,1
 306 145 306 145 275 186.5 c 128,-1,2
 244 228 244 228 244 340.5 c 128,-1,3
 244 453 244 453 274 490.5 c 128,-1,4
 304 528 304 528 378 528 c 128,-1,5
 452 528 452 528 485 506 c 1,6,-1
 472 460 l 1,7,-1
 426 460 l 1,8,9
 415 465 415 465 385 465 c 0,10,11
 367 465 367 465 362 439 c 128,-1,12
 357 413 357 413 357 334 c 128,-1,13
 357 255 357 255 362.5 231.5 c 128,-1,14
 368 208 368 208 387 208 c 0,15,16
 420 208 420 208 478 215 c 1,17,-1
 478 153 l 1,18,19
 420 145 420 145 389 145 c 0,0,1
31 342 m 128,-1,21
 31 492 31 492 128.5 596.5 c 128,-1,22
 226 701 226 701 373 701 c 128,-1,23
 520 701 520 701 618 596.5 c 128,-1,24
 716 492 716 492 716 342 c 128,-1,25
 716 192 716 192 618 88 c 128,-1,26
 520 -16 520 -16 373 -16 c 128,-1,27
 226 -16 226 -16 128.5 88 c 128,-1,20
 31 192 31 192 31 342 c 128,-1,21
99 342 m 128,-1,29
 99 220 99 220 177 136 c 128,-1,30
 255 52 255 52 373.5 52 c 128,-1,31
 492 52 492 52 570 136 c 128,-1,32
 648 220 648 220 648 342 c 128,-1,33
 648 464 648 464 569.5 548.5 c 128,-1,34
 491 633 491 633 373 633 c 128,-1,35
 255 633 255 633 177 548.5 c 128,-1,28
 99 464 99 464 99 342 c 128,-1,29
EndSplineSet
EndChar

StartChar: ordfeminine
Encoding: 170 170 107
Width: 345
GlyphClass: 2
Flags: W
LayerCount: 2
Fore
SplineSet
191.5 661 m 128,-1,1
 183 676 183 676 152 676 c 128,-1,2
 121 676 121 676 101 666 c 1,3,-1
 71 666 l 1,4,-1
 53 726 l 1,5,6
 87 752 87 752 147 752 c 0,7,8
 239 752 239 752 271.5 713 c 128,-1,9
 304 674 304 674 304 554 c 2,10,-1
 303 366 l 1,11,-1
 226 366 l 1,12,-1
 214 389 l 1,13,14
 174 354 174 354 147 354 c 0,15,16
 83 354 83 354 59 378.5 c 128,-1,17
 35 403 35 403 35 486 c 0,18,19
 35 547 35 547 94 569 c 1,20,-1
 201 597 l 1,21,0
 200 646 200 646 191.5 661 c 128,-1,1
118 485 m 0,22,23
 118 430 118 430 150 428 c 1,24,25
 181 428 181 428 191.5 448 c 128,-1,26
 202 468 202 468 202 542 c 1,27,28
 163 536 163 536 140.5 520 c 128,-1,29
 118 504 118 504 118 485 c 0,22,23
EndSplineSet
EndChar

StartChar: guillemotleft
Encoding: 171 171 108
Width: 591
GlyphClass: 2
Flags: W
LayerCount: 2
Fore
SplineSet
553 195 m 1,0,-1
 521 156 l 1,1,-1
 467 169 l 1,2,-1
 281 335 l 1,3,-1
 261 384 l 1,4,-1
 281 433 l 1,5,-1
 451 599 l 1,6,-1
 505 612 l 1,7,-1
 537 573 l 1,8,-1
 376 384 l 1,9,-1
 553 195 l 1,0,-1
313 195 m 1,10,-1
 281 156 l 1,11,-1
 227 169 l 1,12,-1
 41 335 l 1,13,-1
 21 384 l 1,14,-1
 41 433 l 1,15,-1
 211 599 l 1,16,-1
 265 612 l 1,17,-1
 297 573 l 1,18,-1
 136 384 l 1,19,-1
 313 195 l 1,10,-1
EndSplineSet
EndChar

StartChar: logicalnot
Encoding: 172 172 109
Width: 521
GlyphClass: 2
Flags: W
LayerCount: 2
Fore
SplineSet
350 308 m 1,0,-1
 25 308 l 1,1,-1
 9 324 l 1,2,-1
 9 432 l 1,3,-1
 459 432 l 1,4,-1
 475 416 l 1,5,-1
 474 137 l 1,6,-1
 366 137 l 1,7,-1
 350 153 l 1,8,-1
 350 308 l 1,0,-1
EndSplineSet
EndChar

StartChar: registered
Encoding: 174 174 110
Width: 747
GlyphClass: 2
Flags: W
LayerCount: 2
Fore
SplineSet
357 289 m 1,0,-1
 357 145 l 1,1,-1
 276 145 l 1,2,-1
 260 161 l 1,3,-1
 260 519 l 1,4,5
 327 532 327 532 367 532 c 0,6,7
 446 532 446 532 476.5 505 c 128,-1,8
 507 478 507 478 507 412 c 128,-1,9
 507 346 507 346 459 308 c 1,10,-1
 531 145 l 1,11,-1
 436 145 l 1,12,-1
 420 161 l 1,13,-1
 364 289 l 1,14,-1
 357 289 l 1,0,-1
402 417 m 128,-1,16
 402 469 402 469 393 469 c 0,17,18
 359 469 359 469 357 458 c 1,19,-1
 358 366 l 1,20,21
 366 363 366 363 374 363 c 0,22,15
 402 365 402 365 402 417 c 128,-1,16
31 342 m 128,-1,24
 31 492 31 492 128.5 596.5 c 128,-1,25
 226 701 226 701 373 701 c 128,-1,26
 520 701 520 701 618 596.5 c 128,-1,27
 716 492 716 492 716 342 c 128,-1,28
 716 192 716 192 618 88 c 128,-1,29
 520 -16 520 -16 373 -16 c 128,-1,30
 226 -16 226 -16 128.5 88 c 128,-1,23
 31 192 31 192 31 342 c 128,-1,24
99 342 m 128,-1,32
 99 220 99 220 177 136 c 128,-1,33
 255 52 255 52 373.5 52 c 128,-1,34
 492 52 492 52 570 136 c 128,-1,35
 648 220 648 220 648 342 c 128,-1,36
 648 464 648 464 569.5 548.5 c 128,-1,37
 491 633 491 633 373 633 c 128,-1,38
 255 633 255 633 177 548.5 c 128,-1,31
 99 464 99 464 99 342 c 128,-1,32
EndSplineSet
EndChar

StartChar: degree
Encoding: 176 176 111
Width: 308
GlyphClass: 2
Flags: W
LayerCount: 2
Fore
SplineSet
34 633 m 128,-1,1
 34 753 34 753 154 753 c 128,-1,2
 274 753 274 753 274 633 c 128,-1,3
 274 513 274 513 154 513 c 128,-1,0
 34 513 34 513 34 633 c 128,-1,1
110 633 m 128,-1,5
 110 589 110 589 154 589 c 128,-1,6
 198 589 198 589 198 633 c 128,-1,7
 198 677 198 677 154 677 c 128,-1,4
 110 677 110 677 110 633 c 128,-1,5
EndSplineSet
EndChar

StartChar: plusminus
Encoding: 177 177 112
Width: 455
GlyphClass: 2
Flags: W
LayerCount: 2
Fore
SplineSet
289 592 m 1,0,-1
 410 592 l 1,1,-1
 426 576 l 1,2,-1
 426 468 l 1,3,-1
 289 468 l 1,4,-1
 289 331 l 1,5,-1
 181 331 l 1,6,-1
 165 347 l 1,7,-1
 165 468 l 1,8,-1
 45 468 l 1,9,-1
 29 484 l 1,10,-1
 29 592 l 1,11,-1
 165 592 l 1,12,-1
 165 728 l 1,13,-1
 272 728 l 1,14,-1
 289 711 l 1,15,-1
 289 592 l 1,0,-1
426 160 m 1,16,-1
 45 160 l 1,17,-1
 29 176 l 1,18,-1
 29 284 l 1,19,-1
 410 284 l 1,20,-1
 426 268 l 1,21,-1
 426 160 l 1,16,-1
EndSplineSet
EndChar

StartChar: twosuperior
Encoding: 178 178 113
Width: 416
GlyphClass: 2
Flags: W
LayerCount: 2
Fore
SplineSet
201 659 m 0,0,1
 151 659 151 659 121 650 c 1,2,-1
 71 650 l 1,3,-1
 51 723 l 1,4,5
 93 752 93 752 191 752 c 128,-1,6
 289 752 289 752 328.5 714 c 128,-1,7
 368 676 368 676 368 590 c 0,8,9
 368 557 368 557 335 499.5 c 128,-1,10
 302 442 302 442 185 284 c 1,11,-1
 365 284 l 1,12,-1
 380 269 l 1,13,-1
 380 185 l 1,14,-1
 55 185 l 1,15,-1
 39 201 l 1,16,-1
 39 275 l 1,17,-1
 157 434 l 2,18,19
 192 480 192 480 205 498 c 0,20,21
 240 548 240 548 240 588 c 128,-1,22
 240 628 240 628 233 643.5 c 128,-1,23
 226 659 226 659 201 659 c 0,0,1
EndSplineSet
EndChar

StartChar: threesuperior
Encoding: 179 179 114
Width: 413
GlyphClass: 2
Flags: W
LayerCount: 2
Fore
SplineSet
189 659 m 0,0,1
 139 659 139 659 109 650 c 1,2,-1
 59 650 l 1,3,-1
 39 723 l 1,4,5
 81 752 81 752 180 752 c 128,-1,6
 279 752 279 752 321.5 713.5 c 128,-1,7
 364 675 364 675 364 598.5 c 128,-1,8
 364 522 364 522 328 481 c 1,9,10
 379 440 379 440 379 355 c 128,-1,11
 379 270 379 270 330.5 225 c 128,-1,12
 282 180 282 180 165 180 c 0,13,14
 127 180 127 180 50 189 c 1,15,-1
 50 281 l 1,16,17
 135 276 135 276 173 276 c 128,-1,18
 211 276 211 276 223.5 289.5 c 128,-1,19
 236 303 236 303 236 351.5 c 128,-1,20
 236 400 236 400 226 410.5 c 128,-1,21
 216 421 216 421 167 421 c 2,22,-1
 110 421 l 1,23,-1
 110 517 l 1,24,25
 178 517 178 517 199.5 528.5 c 128,-1,26
 221 540 221 540 221 591 c 0,27,28
 221 659 221 659 189 659 c 0,0,1
EndSplineSet
EndChar

StartChar: acute
Encoding: 180 180 115
Width: 240
GlyphClass: 2
Flags: W
LayerCount: 2
Fore
SplineSet
74 536 m 1,0,-1
 28 557 l 1,1,-1
 27 612 l 1,2,-1
 84 736 l 1,3,-1
 126 768 l 1,4,-1
 234 708 l 1,5,-1
 74 536 l 1,0,-1
EndSplineSet
EndChar

StartChar: mu
Encoding: 181 181 116
AltUni2: 0003bc.ffffffff.0
Width: 465
GlyphClass: 2
Flags: W
LayerCount: 2
Fore
SplineSet
138 -234.5 m 128,-1,1
 115 -239 115 -239 80 -239 c 128,-1,2
 45 -239 45 -239 45 -223 c 2,3,-1
 45 496 l 2,4,5
 45 512 45 512 81.5 512 c 128,-1,6
 118 512 118 512 153 507 c 128,-1,7
 188 502 188 502 188 496 c 2,8,-1
 189 192 l 2,9,10
 189 133 189 133 194.5 106.5 c 128,-1,11
 200 80 200 80 215 80 c 1,12,13
 243 83 243 83 301 116 c 1,14,-1
 301 496 l 2,15,16
 301 512 301 512 337.5 512 c 128,-1,17
 374 512 374 512 409.5 507 c 128,-1,18
 445 502 445 502 445 496 c 2,19,-1
 445 0 l 2,20,21
 445 -6 445 -6 444 -8 c 0,22,23
 439 -16 439 -16 391.5 -16 c 128,-1,24
 344 -16 344 -16 333 0 c 2,25,-1
 312 31 l 1,26,27
 255 -15 255 -15 173 -15 c 1,28,-1
 162 -223 l 2,29,0
 161 -230 161 -230 138 -234.5 c 128,-1,1
EndSplineSet
EndChar

StartChar: paragraph
Encoding: 182 182 117
Width: 703
GlyphClass: 2
Flags: W
LayerCount: 2
Fore
SplineSet
203 472 m 1,0,-1
 24 472 l 1,1,2
 24 554 24 554 33.5 604 c 128,-1,3
 43 654 43 654 68 684 c 128,-1,4
 93 714 93 714 131 725 c 128,-1,5
 169 736 169 736 232 736 c 2,6,-1
 657 736 l 1,7,-1
 673 720 l 1,8,-1
 673 635 l 1,9,-1
 557 635 l 1,10,-1
 558 0 l 1,11,-1
 430 0 l 1,12,-1
 414 16 l 1,13,-1
 415 635 l 1,14,-1
 346 635 l 1,15,-1
 347 0 l 1,16,-1
 219 0 l 1,17,-1
 203 16 l 1,18,-1
 203 472 l 1,0,-1
EndSplineSet
EndChar

StartChar: periodcentered
Encoding: 183 183 118
Width: 214
GlyphClass: 2
Flags: W
LayerCount: 2
Fore
SplineSet
35 295 m 128,-1,1
 35 367 35 367 107 367 c 128,-1,2
 179 367 179 367 179 295 c 128,-1,3
 179 223 179 223 107 223 c 128,-1,0
 35 223 35 223 35 295 c 128,-1,1
EndSplineSet
EndChar

StartChar: cedilla
Encoding: 184 184 119
Width: 220
GlyphClass: 2
Flags: W
LayerCount: 2
Fore
SplineSet
195 -153 m 0,0,1
 195 -168 195 -168 192 -186 c 0,2,3
 173 -286 173 -286 87 -286 c 0,4,5
 71 -286 71 -286 53 -283 c 1,6,-1
 66 -209 l 1,7,8
 72 -210 72 -210 77 -210 c 0,9,10
 110 -210 110 -210 117 -173 c 0,11,12
 118 -166 118 -166 118 -160 c 0,13,14
 118 -128 118 -128 81 -122 c 2,15,-1
 24 -112 l 1,16,-1
 45 9 l 1,17,-1
 102 -1 l 1,18,-1
 94 -47 l 1,19,20
 195 -66 195 -66 195 -153 c 0,0,1
EndSplineSet
EndChar

StartChar: onesuperior
Encoding: 185 185 120
Width: 290
GlyphClass: 2
Flags: W
LayerCount: 2
Fore
SplineSet
257 188 m 1,0,-1
 71 188 l 1,1,-1
 55 204 l 1,2,-1
 55 281 l 1,3,-1
 93 281 l 1,4,-1
 93 626 l 1,5,-1
 51 613 l 1,6,-1
 24 703 l 1,7,-1
 204 754 l 1,8,-1
 220 738 l 1,9,-1
 221 281 l 1,10,-1
 241 281 l 1,11,-1
 257 265 l 1,12,-1
 257 188 l 1,0,-1
EndSplineSet
EndChar

StartChar: ordmasculine
Encoding: 186 186 121
Width: 470
GlyphClass: 2
Flags: W
LayerCount: 2
Fore
SplineSet
79.5 238 m 128,-1,1
 36 300 36 300 36 458.5 c 128,-1,2
 36 617 36 617 80 686.5 c 128,-1,3
 124 756 124 756 236 756 c 0,4,5
 346 756 346 756 394 666 c 1,6,7
 436 585 436 585 436 451.5 c 128,-1,8
 436 318 436 318 390.5 247 c 128,-1,9
 345 176 345 176 234 176 c 128,-1,0
 123 176 123 176 79.5 238 c 128,-1,1
172 452 m 0,10,11
 172 274 172 274 204 274 c 0,12,13
 263 274 263 274 277.5 304.5 c 128,-1,14
 292 335 292 335 292 426 c 128,-1,15
 292 517 292 517 288 566 c 0,16,17
 279 660 279 660 260 660 c 0,18,19
 203 660 203 660 187.5 616 c 128,-1,20
 172 572 172 572 172 452 c 0,10,11
EndSplineSet
EndChar

StartChar: guillemotright
Encoding: 187 187 122
Width: 591
GlyphClass: 2
Flags: W
LayerCount: 2
Fore
SplineSet
70 156 m 1,0,-1
 38 195 l 1,1,-1
 215 384 l 1,2,-1
 54 573 l 1,3,-1
 86 612 l 1,4,-1
 140 599 l 1,5,-1
 310 433 l 1,6,-1
 330 384 l 1,7,-1
 310 335 l 1,8,-1
 124 169 l 1,9,-1
 70 156 l 1,0,-1
310 156 m 1,10,-1
 278 195 l 1,11,-1
 455 384 l 1,12,-1
 294 573 l 1,13,-1
 326 612 l 1,14,-1
 380 599 l 1,15,-1
 550 433 l 1,16,-1
 570 384 l 1,17,-1
 550 335 l 1,18,-1
 364 169 l 1,19,-1
 310 156 l 1,10,-1
EndSplineSet
EndChar

StartChar: onequarter
Encoding: 188 188 123
Width: 987
GlyphClass: 2
Flags: W
LayerCount: 2
Fore
SplineSet
723 324 m 1,0,-1
 799 324 l 1,1,-1
 800 564 l 1,2,-1
 911 564 l 1,3,-1
 927 548 l 1,4,-1
 927 324 l 1,5,-1
 955 324 l 1,6,-1
 971 308 l 1,7,-1
 971 231 l 1,8,-1
 927 231 l 1,9,-1
 927 0 l 1,10,-1
 815 0 l 1,11,-1
 799 16 l 1,12,-1
 799 231 l 1,13,-1
 612 231 l 1,14,-1
 596 247 l 1,15,-1
 597 564 l 1,16,-1
 707 564 l 1,17,-1
 723 548 l 1,18,-1
 723 324 l 1,0,-1
256 188 m 1,19,-1
 70 188 l 1,20,-1
 54 204 l 1,21,-1
 54 281 l 1,22,-1
 92 281 l 1,23,-1
 92 626 l 1,24,-1
 50 613 l 1,25,-1
 23 703 l 1,26,-1
 203 754 l 1,27,-1
 219 738 l 1,28,-1
 220 281 l 1,29,-1
 240 281 l 1,30,-1
 256 265 l 1,31,-1
 256 188 l 1,19,-1
584 876 m 1,32,-1
 584 769 l 1,33,-1
 368 -146 l 1,34,-1
 232 -146 l 1,35,-1
 232 -114 l 1,36,-1
 479 876 l 1,37,-1
 584 876 l 1,32,-1
EndSplineSet
EndChar

StartChar: onehalf
Encoding: 189 189 124
Width: 994
GlyphClass: 2
Flags: W
LayerCount: 2
Fore
SplineSet
613 876 m 1,0,-1
 613 769 l 1,1,-1
 397 -146 l 1,2,-1
 261 -146 l 1,3,-1
 261 -114 l 1,4,-1
 508 876 l 1,5,-1
 613 876 l 1,0,-1
255 188 m 1,6,-1
 69 188 l 1,7,-1
 53 204 l 1,8,-1
 53 281 l 1,9,-1
 91 281 l 1,10,-1
 91 626 l 1,11,-1
 49 613 l 1,12,-1
 22 703 l 1,13,-1
 202 754 l 1,14,-1
 218 738 l 1,15,-1
 219 281 l 1,16,-1
 239 281 l 1,17,-1
 255 265 l 1,18,-1
 255 188 l 1,6,-1
799 474 m 0,19,20
 749 474 749 474 719 465 c 1,21,-1
 669 465 l 1,22,-1
 649 538 l 1,23,24
 691 567 691 567 789 567 c 128,-1,25
 887 567 887 567 926.5 529 c 128,-1,26
 966 491 966 491 966 405 c 0,27,28
 966 372 966 372 933 314.5 c 128,-1,29
 900 257 900 257 783 99 c 1,30,-1
 963 99 l 1,31,-1
 978 84 l 1,32,-1
 978 0 l 1,33,-1
 653 0 l 1,34,-1
 637 16 l 1,35,-1
 637 90 l 1,36,-1
 755 249 l 2,37,38
 790 295 790 295 803 314 c 0,39,40
 838 363 838 363 838 403 c 128,-1,41
 838 443 838 443 831 458.5 c 128,-1,42
 824 474 824 474 799 474 c 0,19,20
EndSplineSet
EndChar

StartChar: threequarters
Encoding: 190 190 125
Width: 1038
GlyphClass: 2
Flags: W
LayerCount: 2
Fore
SplineSet
655 876 m 1,0,-1
 655 769 l 1,1,-1
 439 -146 l 1,2,-1
 303 -146 l 1,3,-1
 303 -114 l 1,4,-1
 550 876 l 1,5,-1
 655 876 l 1,0,-1
168 659 m 0,6,7
 118 659 118 659 88 650 c 1,8,-1
 38 650 l 1,9,-1
 18 723 l 1,10,11
 60 752 60 752 159 752 c 128,-1,12
 258 752 258 752 300.5 713.5 c 128,-1,13
 343 675 343 675 343 598.5 c 128,-1,14
 343 522 343 522 307 481 c 1,15,16
 358 440 358 440 358 355 c 128,-1,17
 358 270 358 270 309.5 225 c 128,-1,18
 261 180 261 180 144 180 c 0,19,20
 106 180 106 180 29 189 c 1,21,-1
 29 281 l 1,22,23
 114 276 114 276 152 276 c 128,-1,24
 190 276 190 276 202.5 289.5 c 128,-1,25
 215 303 215 303 215 351.5 c 128,-1,26
 215 400 215 400 205 410.5 c 128,-1,27
 195 421 195 421 146 421 c 2,28,-1
 89 421 l 1,29,-1
 89 517 l 1,30,31
 157 517 157 517 178.5 528.5 c 128,-1,32
 200 540 200 540 200 591 c 0,33,34
 200 659 200 659 168 659 c 0,6,7
772 324 m 1,35,-1
 848 324 l 1,36,-1
 849 564 l 1,37,-1
 960 564 l 1,38,-1
 976 548 l 1,39,-1
 976 324 l 1,40,-1
 1004 324 l 1,41,-1
 1020 308 l 1,42,-1
 1020 231 l 1,43,-1
 976 231 l 1,44,-1
 976 0 l 1,45,-1
 864 0 l 1,46,-1
 848 16 l 1,47,-1
 848 231 l 1,48,-1
 661 231 l 1,49,-1
 645 247 l 1,50,-1
 646 564 l 1,51,-1
 756 564 l 1,52,-1
 772 548 l 1,53,-1
 772 324 l 1,35,-1
EndSplineSet
EndChar

StartChar: questiondown
Encoding: 191 191 126
Width: 439
GlyphClass: 2
Flags: W
LayerCount: 2
Fore
SplineSet
312 183 m 2,0,1
 312 157 312 157 269 112 c 0,2,3
 202 43 202 43 182.5 12.5 c 128,-1,4
 163 -18 163 -18 163 -63 c 128,-1,5
 163 -108 163 -108 174.5 -128.5 c 128,-1,6
 186 -149 186 -149 228 -149 c 0,7,8
 295 -149 295 -149 339 -136 c 1,9,-1
 388 -136 l 1,10,-1
 416 -237 l 1,11,12
 362 -272 362 -272 240 -272 c 128,-1,13
 118 -272 118 -272 68.5 -221.5 c 128,-1,14
 19 -171 19 -171 19 -57 c 0,15,16
 19 -29 19 -29 24 -11 c 0,17,18
 39 35 39 35 176 189 c 1,19,-1
 176 295 l 1,20,-1
 296 295 l 1,21,-1
 312 279 l 1,22,-1
 312 183 l 2,0,1
166 440 m 128,-1,24
 166 512 166 512 238 512 c 128,-1,25
 310 512 310 512 310 440 c 128,-1,26
 310 368 310 368 238 368 c 128,-1,23
 166 368 166 368 166 440 c 128,-1,24
EndSplineSet
EndChar

StartChar: Agrave
Encoding: 192 192 127
Width: 529
GlyphClass: 2
Flags: W
LayerCount: 2
Fore
SplineSet
298 813 m 1,0,-1
 252 792 l 1,1,-1
 92 964 l 1,2,-1
 200 1024 l 1,3,-1
 242 992 l 1,4,-1
 299 868 l 1,5,-1
 298 813 l 1,0,-1
298 769 m 0,6,7
 367 769 367 769 373 738 c 2,8,-1
 441 431 l 1,9,-1
 510 22 l 2,10,11
 512 12 512 12 512 3.5 c 128,-1,12
 512 -5 512 -5 507 -10.5 c 128,-1,13
 502 -16 502 -16 473 -16 c 0,14,15
 384 -16 384 -16 378 22 c 2,16,-1
 343 228 l 1,17,-1
 203 228 l 1,18,-1
 172 21 l 2,19,20
 169 0 169 0 164.5 -7 c 128,-1,21
 160 -14 160 -14 152 -15 c 128,-1,22
 144 -16 144 -16 126 -16 c 2,23,-1
 98 -16 l 2,24,25
 63 -16 63 -16 54 -12 c 0,26,27
 32 -4 32 -4 29 6 c 0,28,29
 28 11 28 11 28 15 c 128,-1,30
 28 19 28 19 49 147 c 128,-1,31
 70 275 70 275 100.5 452 c 128,-1,32
 131 629 131 629 140.5 684 c 128,-1,33
 150 739 150 739 151 746 c 0,34,35
 155 769 155 769 298 769 c 0,6,7
268 638 m 1,36,-1
 222 349 l 1,37,-1
 321 349 l 1,38,-1
 268 638 l 1,36,-1
EndSplineSet
EndChar

StartChar: Aacute
Encoding: 193 193 128
Width: 528
GlyphClass: 2
Flags: W
LayerCount: 2
Fore
SplineSet
268 792 m 1,0,-1
 222 813 l 1,1,-1
 221 868 l 1,2,-1
 278 992 l 1,3,-1
 320 1024 l 1,4,-1
 428 964 l 1,5,-1
 268 792 l 1,0,-1
298 769 m 0,6,7
 367 769 367 769 373 738 c 2,8,-1
 441 431 l 1,9,-1
 510 22 l 2,10,11
 512 12 512 12 512 3.5 c 128,-1,12
 512 -5 512 -5 507 -10.5 c 128,-1,13
 502 -16 502 -16 473 -16 c 0,14,15
 384 -16 384 -16 378 22 c 2,16,-1
 343 228 l 1,17,-1
 203 228 l 1,18,-1
 172 21 l 2,19,20
 169 0 169 0 164.5 -7 c 128,-1,21
 160 -14 160 -14 152 -15 c 128,-1,22
 144 -16 144 -16 126 -16 c 2,23,-1
 98 -16 l 2,24,25
 63 -16 63 -16 54 -12 c 0,26,27
 32 -4 32 -4 29 6 c 0,28,29
 28 11 28 11 28 15 c 128,-1,30
 28 19 28 19 49 147 c 128,-1,31
 70 275 70 275 100.5 452 c 128,-1,32
 131 629 131 629 140.5 684 c 128,-1,33
 150 739 150 739 151 746 c 0,34,35
 155 769 155 769 298 769 c 0,6,7
268 638 m 1,36,-1
 222 349 l 1,37,-1
 321 349 l 1,38,-1
 268 638 l 1,36,-1
EndSplineSet
EndChar

StartChar: Acircumflex
Encoding: 194 194 129
Width: 536
GlyphClass: 2
Flags: W
LayerCount: 2
Fore
SplineSet
142 828 m 1,0,-1
 103 860 l 1,1,-1
 116 914 l 1,2,-1
 218 1004 l 1,3,-1
 267 1024 l 1,4,-1
 316 1004 l 1,5,-1
 418 914 l 1,6,-1
 431 860 l 1,7,-1
 392 828 l 1,8,-1
 267 909 l 1,9,-1
 142 828 l 1,0,-1
298 769 m 0,10,11
 367 769 367 769 373 738 c 2,12,-1
 441 431 l 1,13,-1
 510 22 l 2,14,15
 512 12 512 12 512 3.5 c 128,-1,16
 512 -5 512 -5 507 -10.5 c 128,-1,17
 502 -16 502 -16 473 -16 c 0,18,19
 384 -16 384 -16 378 22 c 2,20,-1
 343 228 l 1,21,-1
 203 228 l 1,22,-1
 172 21 l 2,23,24
 169 0 169 0 164.5 -7 c 128,-1,25
 160 -14 160 -14 152 -15 c 128,-1,26
 144 -16 144 -16 126 -16 c 2,27,-1
 98 -16 l 2,28,29
 63 -16 63 -16 54 -12 c 0,30,31
 32 -4 32 -4 29 6 c 0,32,33
 28 11 28 11 28 15 c 128,-1,34
 28 19 28 19 49 147 c 128,-1,35
 70 275 70 275 100.5 452 c 128,-1,36
 131 629 131 629 140.5 684 c 128,-1,37
 150 739 150 739 151 746 c 0,38,39
 155 769 155 769 298 769 c 0,10,11
268 638 m 1,40,-1
 222 349 l 1,41,-1
 321 349 l 1,42,-1
 268 638 l 1,40,-1
EndSplineSet
EndChar

StartChar: Atilde
Encoding: 195 195 130
Width: 531
GlyphClass: 2
Flags: W
LayerCount: 2
Fore
SplineSet
435 884 m 1,0,1
 428 884 428 884 389.5 884 c 128,-1,2
 351 884 351 884 278 874 c 128,-1,3
 205 864 205 864 155 864 c 128,-1,4
 105 864 105 864 91.5 873.5 c 128,-1,5
 78 883 78 883 78 916 c 1,6,-1
 103 967 l 1,7,8
 178 967 178 967 243.5 976 c 128,-1,9
 309 985 309 985 362 985 c 128,-1,10
 415 985 415 985 433 974.5 c 128,-1,11
 451 964 451 964 451 929 c 1,12,-1
 435 884 l 1,0,1
298 769 m 0,13,14
 367 769 367 769 373 738 c 2,15,-1
 441 431 l 1,16,-1
 510 22 l 2,17,18
 512 12 512 12 512 3.5 c 128,-1,19
 512 -5 512 -5 507 -10.5 c 128,-1,20
 502 -16 502 -16 473 -16 c 0,21,22
 384 -16 384 -16 378 22 c 2,23,-1
 343 228 l 1,24,-1
 203 228 l 1,25,-1
 172 21 l 2,26,27
 169 0 169 0 164.5 -7 c 128,-1,28
 160 -14 160 -14 152 -15 c 128,-1,29
 144 -16 144 -16 126 -16 c 2,30,-1
 98 -16 l 2,31,32
 63 -16 63 -16 54 -12 c 0,33,34
 32 -4 32 -4 29 6 c 0,35,36
 28 11 28 11 28 15 c 128,-1,37
 28 19 28 19 49 147 c 128,-1,38
 70 275 70 275 100.5 452 c 128,-1,39
 131 629 131 629 140.5 684 c 128,-1,40
 150 739 150 739 151 746 c 0,41,42
 155 769 155 769 298 769 c 0,13,14
268 638 m 1,43,-1
 222 349 l 1,44,-1
 321 349 l 1,45,-1
 268 638 l 1,43,-1
EndSplineSet
EndChar

StartChar: Adieresis
Encoding: 196 196 131
Width: 539
GlyphClass: 2
Flags: W
LayerCount: 2
Fore
SplineSet
79 952 m 128,-1,1
 79 1024 79 1024 151 1024 c 128,-1,2
 223 1024 223 1024 223 952 c 128,-1,3
 223 880 223 880 151 880 c 128,-1,0
 79 880 79 880 79 952 c 128,-1,1
313 952 m 128,-1,5
 313 1024 313 1024 385 1024 c 128,-1,6
 457 1024 457 1024 457 952 c 128,-1,7
 457 880 457 880 385 880 c 128,-1,4
 313 880 313 880 313 952 c 128,-1,5
298 769 m 0,8,9
 367 769 367 769 373 738 c 2,10,-1
 441 431 l 1,11,-1
 510 22 l 2,12,13
 512 12 512 12 512 3.5 c 128,-1,14
 512 -5 512 -5 507 -10.5 c 128,-1,15
 502 -16 502 -16 473 -16 c 0,16,17
 384 -16 384 -16 378 22 c 2,18,-1
 343 228 l 1,19,-1
 203 228 l 1,20,-1
 172 21 l 2,21,22
 169 0 169 0 164.5 -7 c 128,-1,23
 160 -14 160 -14 152 -15 c 128,-1,24
 144 -16 144 -16 126 -16 c 2,25,-1
 98 -16 l 2,26,27
 63 -16 63 -16 54 -12 c 0,28,29
 32 -4 32 -4 29 6 c 0,30,31
 28 11 28 11 28 15 c 128,-1,32
 28 19 28 19 49 147 c 128,-1,33
 70 275 70 275 100.5 452 c 128,-1,34
 131 629 131 629 140.5 684 c 128,-1,35
 150 739 150 739 151 746 c 0,36,37
 155 769 155 769 298 769 c 0,8,9
268 638 m 1,38,-1
 222 349 l 1,39,-1
 321 349 l 1,40,-1
 268 638 l 1,38,-1
EndSplineSet
EndChar

StartChar: Aring
Encoding: 197 197 132
Width: 529
GlyphClass: 2
Flags: W
LayerCount: 2
Fore
SplineSet
167 889 m 128,-1,1
 167 985 167 985 263 985 c 128,-1,2
 359 985 359 985 359 889 c 128,-1,3
 359 793 359 793 263 793 c 128,-1,0
 167 793 167 793 167 889 c 128,-1,1
228 889 m 128,-1,5
 228 854 228 854 263 854 c 128,-1,6
 298 854 298 854 298 889 c 128,-1,7
 298 924 298 924 263 924 c 128,-1,4
 228 924 228 924 228 889 c 128,-1,5
298 769 m 0,8,9
 367 769 367 769 373 738 c 2,10,-1
 441 431 l 1,11,-1
 510 22 l 2,12,13
 512 12 512 12 512 3.5 c 128,-1,14
 512 -5 512 -5 507 -10.5 c 128,-1,15
 502 -16 502 -16 473 -16 c 0,16,17
 384 -16 384 -16 378 22 c 2,18,-1
 343 228 l 1,19,-1
 203 228 l 1,20,-1
 172 21 l 2,21,22
 169 0 169 0 164.5 -7 c 128,-1,23
 160 -14 160 -14 152 -15 c 128,-1,24
 144 -16 144 -16 126 -16 c 2,25,-1
 98 -16 l 2,26,27
 63 -16 63 -16 54 -12 c 0,28,29
 32 -4 32 -4 29 6 c 0,30,31
 28 11 28 11 28 15 c 128,-1,32
 28 19 28 19 49 147 c 128,-1,33
 70 275 70 275 100.5 452 c 128,-1,34
 131 629 131 629 140.5 684 c 128,-1,35
 150 739 150 739 151 746 c 0,36,37
 155 769 155 769 298 769 c 0,8,9
268 638 m 1,38,-1
 222 349 l 1,39,-1
 321 349 l 1,40,-1
 268 638 l 1,38,-1
EndSplineSet
EndChar

StartChar: AE
Encoding: 198 198 133
Width: 765
GlyphClass: 2
Flags: W
LayerCount: 2
Fore
SplineSet
323 752 m 2,0,-1
 677 752 l 1,1,2
 720 751 720 751 720 720 c 1,3,4
 719 693 719 693 717 677.5 c 128,-1,5
 715 662 715 662 704.5 647 c 128,-1,6
 694 632 694 632 674 632 c 2,7,-1
 451 632 l 1,8,-1
 462 455 l 1,9,-1
 655 455 l 2,10,11
 695 455 695 455 695 419 c 0,12,13
 695 370 695 370 689 352 c 128,-1,14
 683 334 683 334 658 334 c 2,15,-1
 462 334 l 1,16,-1
 462 121 l 1,17,-1
 693 121 l 1,18,19
 717 120 717 120 726 111.5 c 128,-1,20
 735 103 735 103 735 86 c 0,21,22
 735 37 735 37 726 18.5 c 128,-1,23
 717 0 717 0 690 0 c 2,24,-1
 338 0 l 1,25,-1
 322 16 l 1,26,-1
 322 228 l 1,27,-1
 203 228 l 1,28,-1
 172 21 l 2,29,30
 169 0 169 0 164.5 -7 c 128,-1,31
 160 -14 160 -14 152 -15 c 128,-1,32
 144 -16 144 -16 126 -16 c 2,33,-1
 98 -16 l 2,34,35
 63 -16 63 -16 54 -12 c 0,36,37
 32 -4 32 -4 29 6 c 0,38,39
 28 11 28 11 28 15 c 128,-1,40
 28 19 28 19 28 22 c 2,41,-1
 144 692 l 1,42,43
 150 740 150 740 226 748 c 0,44,45
 262 752 262 752 323 752 c 2,0,-1
321 349 m 1,46,-1
 321 638 l 1,47,-1
 268 638 l 1,48,-1
 222 349 l 1,49,-1
 321 349 l 1,46,-1
EndSplineSet
EndChar

StartChar: Ccedilla
Encoding: 199 199 134
Width: 469
GlyphClass: 2
Flags: W
LayerCount: 2
Fore
SplineSet
436 118 m 0,0,1
 461 118 461 118 461 86 c 128,-1,2
 461 54 461 54 460 38 c 0,3,4
 456 2 456 2 428 -3 c 0,5,6
 339 -16 339 -16 295 -16 c 1,7,-1
 290 -47 l 1,8,9
 391 -66 391 -66 391 -153 c 0,10,11
 391 -168 391 -168 388 -186 c 0,12,13
 369 -286 369 -286 283 -286 c 0,14,15
 267 -286 267 -286 249 -283 c 1,16,-1
 262 -209 l 1,17,18
 268 -210 268 -210 273 -210 c 0,19,20
 306 -210 306 -210 313 -173 c 0,21,22
 314 -166 314 -166 314 -160 c 0,23,24
 314 -128 314 -128 277 -122 c 2,25,-1
 220 -112 l 1,26,-1
 237 -12 l 1,27,28
 123 2 123 2 79 88 c 128,-1,29
 35 174 35 174 35 352.5 c 128,-1,30
 35 531 35 531 59.5 615.5 c 128,-1,31
 84 700 84 700 138.5 734 c 128,-1,32
 193 768 193 768 301.5 768 c 128,-1,33
 410 768 410 768 460 734 c 0,34,35
 470 727 470 727 470 717 c 128,-1,36
 470 707 470 707 460.5 679.5 c 128,-1,37
 451 652 451 652 442.5 640.5 c 128,-1,38
 434 629 434 629 425 629 c 128,-1,39
 416 629 416 629 411 630 c 0,40,41
 336 645 336 645 281.5 645 c 128,-1,42
 227 645 227 645 210.5 585 c 128,-1,43
 194 525 194 525 194 390.5 c 128,-1,44
 194 256 194 256 201 203 c 128,-1,45
 208 150 208 150 227 129 c 128,-1,46
 246 108 246 108 287.5 108 c 128,-1,47
 329 108 329 108 381.5 113 c 128,-1,48
 434 118 434 118 436 118 c 0,0,1
EndSplineSet
EndChar

StartChar: Egrave
Encoding: 200 200 135
Width: 450
GlyphClass: 2
Flags: W
LayerCount: 2
Fore
SplineSet
271 813 m 1,0,-1
 225 792 l 1,1,-1
 65 964 l 1,2,-1
 173 1024 l 1,3,-1
 215 992 l 1,4,-1
 272 868 l 1,5,-1
 271 813 l 1,0,-1
378 455 m 2,6,7
 418 455 418 455 418 419 c 0,8,9
 418 370 418 370 412 352 c 128,-1,10
 406 334 406 334 381 334 c 2,11,-1
 185 334 l 1,12,-1
 185 121 l 1,13,-1
 416 121 l 1,14,15
 440 120 440 120 449 111.5 c 128,-1,16
 458 103 458 103 458 86 c 0,17,18
 458 37 458 37 449 18.5 c 128,-1,19
 440 0 440 0 413 0 c 2,20,-1
 61 0 l 1,21,-1
 45 16 l 1,22,-1
 45 752 l 1,23,-1
 400 752 l 1,24,25
 443 751 443 751 443 720 c 1,26,27
 442 693 442 693 440 677.5 c 128,-1,28
 438 662 438 662 427.5 647 c 128,-1,29
 417 632 417 632 397 632 c 2,30,-1
 174 632 l 1,31,-1
 185 455 l 1,32,-1
 378 455 l 2,6,7
EndSplineSet
EndChar

StartChar: Eacute
Encoding: 201 201 136
Width: 451
GlyphClass: 2
Flags: W
LayerCount: 2
Fore
SplineSet
230 792 m 1,0,-1
 184 813 l 1,1,-1
 183 868 l 1,2,-1
 240 992 l 1,3,-1
 282 1024 l 1,4,-1
 390 964 l 1,5,-1
 230 792 l 1,0,-1
362 455 m 2,6,7
 402 455 402 455 402 419 c 0,8,9
 402 370 402 370 396 352 c 128,-1,10
 390 334 390 334 365 334 c 2,11,-1
 169 334 l 1,12,-1
 169 121 l 1,13,-1
 400 121 l 1,14,15
 424 120 424 120 433 111.5 c 128,-1,16
 442 103 442 103 442 86 c 0,17,18
 442 37 442 37 433 18.5 c 128,-1,19
 424 0 424 0 397 0 c 2,20,-1
 45 0 l 1,21,-1
 29 16 l 1,22,-1
 29 752 l 1,23,-1
 384 752 l 1,24,25
 427 751 427 751 427 720 c 1,26,27
 426 693 426 693 424 677.5 c 128,-1,28
 422 662 422 662 411.5 647 c 128,-1,29
 401 632 401 632 381 632 c 2,30,-1
 158 632 l 1,31,-1
 169 455 l 1,32,-1
 362 455 l 2,6,7
EndSplineSet
EndChar

StartChar: Ecircumflex
Encoding: 202 202 137
Width: 461
GlyphClass: 2
Flags: W
LayerCount: 2
Fore
SplineSet
110 828 m 1,0,-1
 71 860 l 1,1,-1
 84 914 l 1,2,-1
 186 1004 l 1,3,-1
 235 1024 l 1,4,-1
 284 1004 l 1,5,-1
 386 914 l 1,6,-1
 399 860 l 1,7,-1
 360 828 l 1,8,-1
 235 909 l 1,9,-1
 110 828 l 1,0,-1
371 455 m 2,10,11
 411 455 411 455 411 419 c 0,12,13
 411 370 411 370 405 352 c 128,-1,14
 399 334 399 334 374 334 c 2,15,-1
 178 334 l 1,16,-1
 178 121 l 1,17,-1
 409 121 l 1,18,19
 433 120 433 120 442 111.5 c 128,-1,20
 451 103 451 103 451 86 c 0,21,22
 451 37 451 37 442 18.5 c 128,-1,23
 433 0 433 0 406 0 c 2,24,-1
 54 0 l 1,25,-1
 38 16 l 1,26,-1
 38 752 l 1,27,-1
 393 752 l 1,28,29
 436 751 436 751 436 720 c 1,30,31
 435 693 435 693 433 677.5 c 128,-1,32
 431 662 431 662 420.5 647 c 128,-1,33
 410 632 410 632 390 632 c 2,34,-1
 167 632 l 1,35,-1
 178 455 l 1,36,-1
 371 455 l 2,10,11
EndSplineSet
EndChar

StartChar: Edieresis
Encoding: 203 203 138
Width: 466
GlyphClass: 2
Flags: W
LayerCount: 2
Fore
SplineSet
48 952 m 128,-1,1
 48 1024 48 1024 120 1024 c 128,-1,2
 192 1024 192 1024 192 952 c 128,-1,3
 192 880 192 880 120 880 c 128,-1,0
 48 880 48 880 48 952 c 128,-1,1
282 952 m 128,-1,5
 282 1024 282 1024 354 1024 c 128,-1,6
 426 1024 426 1024 426 952 c 128,-1,7
 426 880 426 880 354 880 c 128,-1,4
 282 880 282 880 282 952 c 128,-1,5
374 455 m 2,8,9
 414 455 414 455 414 419 c 0,10,11
 414 370 414 370 408 352 c 128,-1,12
 402 334 402 334 377 334 c 2,13,-1
 181 334 l 1,14,-1
 181 121 l 1,15,-1
 412 121 l 1,16,17
 436 120 436 120 445 111.5 c 128,-1,18
 454 103 454 103 454 86 c 0,19,20
 454 37 454 37 445 18.5 c 128,-1,21
 436 0 436 0 409 0 c 2,22,-1
 57 0 l 1,23,-1
 41 16 l 1,24,-1
 41 752 l 1,25,-1
 396 752 l 1,26,27
 439 751 439 751 439 720 c 1,28,29
 438 693 438 693 436 677.5 c 128,-1,30
 434 662 434 662 423.5 647 c 128,-1,31
 413 632 413 632 393 632 c 2,32,-1
 170 632 l 1,33,-1
 181 455 l 1,34,-1
 374 455 l 2,8,9
EndSplineSet
EndChar

StartChar: Igrave
Encoding: 204 204 139
Width: 335
GlyphClass: 2
Flags: W
LayerCount: 2
Fore
SplineSet
225 813 m 1,0,-1
 179 792 l 1,1,-1
 19 964 l 1,2,-1
 127 1024 l 1,3,-1
 169 992 l 1,4,-1
 226 868 l 1,5,-1
 225 813 l 1,0,-1
91 121 m 2,6,-1
 127 121 l 1,7,-1
 127 632 l 1,8,-1
 97 632 l 1,9,10
 77 633 77 633 70 645 c 0,11,12
 63 659 63 659 63 696 c 0,13,14
 63 752 63 752 96 752 c 2,15,-1
 273 752 l 2,16,17
 317 752 317 752 317 721 c 0,18,19
 317 632 317 632 282 632 c 2,20,-1
 257 632 l 1,21,-1
 267 432 l 1,22,-1
 268 121 l 1,23,-1
 298 121 l 1,24,25
 333 120 333 120 333 89 c 0,26,27
 331 0 331 0 284 0 c 2,28,-1
 95 0 l 1,29,30
 77 1 77 1 70 13 c 0,31,32
 63 27 63 27 63 65 c 0,33,34
 63 121 63 121 91 121 c 2,6,-1
EndSplineSet
EndChar

StartChar: Iacute
Encoding: 205 205 140
Width: 335
GlyphClass: 2
Flags: W
LayerCount: 2
Fore
SplineSet
156 792 m 1,0,-1
 110 813 l 1,1,-1
 109 868 l 1,2,-1
 166 992 l 1,3,-1
 208 1024 l 1,4,-1
 316 964 l 1,5,-1
 156 792 l 1,0,-1
37 121 m 2,6,-1
 73 121 l 1,7,-1
 73 632 l 1,8,-1
 43 632 l 1,9,10
 23 633 23 633 16 645 c 0,11,12
 9 659 9 659 9 696 c 0,13,14
 9 752 9 752 42 752 c 2,15,-1
 219 752 l 2,16,17
 263 752 263 752 263 721 c 0,18,19
 263 632 263 632 228 632 c 2,20,-1
 203 632 l 1,21,-1
 213 432 l 1,22,-1
 214 121 l 1,23,-1
 244 121 l 1,24,25
 279 120 279 120 279 89 c 0,26,27
 277 0 277 0 230 0 c 2,28,-1
 41 0 l 1,29,30
 23 1 23 1 16 13 c 0,31,32
 9 27 9 27 9 65 c 0,33,34
 9 121 9 121 37 121 c 2,6,-1
EndSplineSet
EndChar

StartChar: Icircumflex
Encoding: 206 206 141
Width: 376
GlyphClass: 2
Flags: W
LayerCount: 2
Fore
SplineSet
62 828 m 1,0,-1
 23 860 l 1,1,-1
 36 914 l 1,2,-1
 138 1004 l 1,3,-1
 187 1024 l 1,4,-1
 236 1004 l 1,5,-1
 338 914 l 1,6,-1
 351 860 l 1,7,-1
 312 828 l 1,8,-1
 187 909 l 1,9,-1
 62 828 l 1,0,-1
86 121 m 2,10,-1
 122 121 l 1,11,-1
 122 632 l 1,12,-1
 92 632 l 1,13,14
 72 633 72 633 66 645 c 0,15,16
 58 659 58 659 58 696 c 0,17,18
 58 752 58 752 91 752 c 2,19,-1
 268 752 l 2,20,21
 312 752 312 752 312 721 c 0,22,23
 312 632 312 632 277 632 c 2,24,-1
 252 632 l 1,25,-1
 262 432 l 1,26,-1
 263 121 l 1,27,-1
 293 121 l 1,28,29
 328 120 328 120 328 89 c 0,30,31
 326 0 326 0 279 0 c 2,32,-1
 90 0 l 1,33,34
 72 1 72 1 66 13 c 0,35,36
 58 27 58 27 58 65 c 0,37,38
 58 121 58 121 86 121 c 2,10,-1
EndSplineSet
EndChar

StartChar: Idieresis
Encoding: 207 207 142
Width: 421
GlyphClass: 2
Flags: W
LayerCount: 2
Fore
SplineSet
21 952 m 128,-1,1
 21 1024 21 1024 93 1024 c 128,-1,2
 165 1024 165 1024 165 952 c 128,-1,3
 165 880 165 880 93 880 c 128,-1,0
 21 880 21 880 21 952 c 128,-1,1
255 952 m 128,-1,5
 255 1024 255 1024 327 1024 c 128,-1,6
 399 1024 399 1024 399 952 c 128,-1,7
 399 880 399 880 327 880 c 128,-1,4
 255 880 255 880 255 952 c 128,-1,5
130 121 m 2,8,-1
 166 121 l 1,9,-1
 166 632 l 1,10,-1
 136 632 l 1,11,12
 116 633 116 633 110 645 c 0,13,14
 102 659 102 659 102 696 c 0,15,16
 102 752 102 752 135 752 c 2,17,-1
 312 752 l 2,18,19
 356 752 356 752 356 721 c 0,20,21
 356 632 356 632 321 632 c 2,22,-1
 296 632 l 1,23,-1
 306 432 l 1,24,-1
 307 121 l 1,25,-1
 337 121 l 1,26,27
 372 120 372 120 372 89 c 0,28,29
 370 0 370 0 323 0 c 2,30,-1
 134 0 l 1,31,32
 116 1 116 1 110 13 c 0,33,34
 102 27 102 27 102 65 c 0,35,36
 102 121 102 121 130 121 c 2,8,-1
EndSplineSet
EndChar

StartChar: Eth
Encoding: 208 208 143
Width: 571
GlyphClass: 2
Flags: W
LayerCount: 2
Fore
SplineSet
264 768 m 0,0,1
 373 768 373 768 429 737 c 128,-1,2
 485 706 485 706 510 624.5 c 128,-1,3
 535 543 535 543 535 383 c 0,4,5
 535 161 535 161 477 72.5 c 128,-1,6
 419 -16 419 -16 264 -16 c 0,7,8
 226 -16 226 -16 45 0 c 1,9,-1
 45 751 l 1,10,11
 197 768 197 768 264 768 c 0,0,1
310 419 m 0,12,13
 310 370 310 370 304 352 c 128,-1,14
 298 334 298 334 273 334 c 2,15,-1
 186 334 l 1,16,-1
 186 124 l 2,17,18
 186 113 186 113 199.5 111 c 128,-1,19
 213 109 213 109 254.5 109 c 128,-1,20
 296 109 296 109 313 113.5 c 128,-1,21
 330 118 330 118 344.5 129.5 c 128,-1,22
 359 141 359 141 364 174 c 0,23,24
 374 238 374 238 374 372 c 0,25,26
 374 649 374 649 317 649 c 0,27,28
 230 649 230 649 208 645.5 c 128,-1,29
 186 642 186 642 186 626 c 2,30,-1
 186 455 l 1,31,-1
 274 455 l 1,32,33
 310 453 310 453 310 419 c 0,12,13
EndSplineSet
EndChar

StartChar: Ntilde
Encoding: 209 209 144
Width: 527
GlyphClass: 2
Flags: W
LayerCount: 2
Fore
SplineSet
433 884 m 1,0,1
 426 884 426 884 387.5 884 c 128,-1,2
 349 884 349 884 276 874 c 128,-1,3
 203 864 203 864 153 864 c 128,-1,4
 103 864 103 864 89.5 873.5 c 128,-1,5
 76 883 76 883 76 916 c 1,6,-1
 101 967 l 1,7,8
 176 967 176 967 241.5 976 c 128,-1,9
 307 985 307 985 360 985 c 128,-1,10
 413 985 413 985 431 974.5 c 128,-1,11
 449 964 449 964 449 929 c 1,12,-1
 433 884 l 1,0,1
37 24 m 2,13,-1
 37 731 l 2,14,15
 37 768 37 768 109 768 c 0,16,17
 124 768 124 768 132.5 767 c 128,-1,18
 141 766 141 766 154 757.5 c 128,-1,19
 167 749 167 749 177 733 c 1,20,-1
 356 313 l 1,21,-1
 350 732 l 2,22,23
 350 768 350 768 422 768 c 0,24,25
 452 768 452 768 463 761 c 128,-1,26
 474 754 474 754 475 732 c 2,27,-1
 491 431 l 1,28,-1
 491 21 l 2,29,30
 491 4 491 4 490 -2 c 0,31,32
 486 -16 486 -16 451 -16 c 0,33,34
 386 -16 386 -16 373 21 c 1,35,-1
 176 436 l 1,36,-1
 177 22 l 2,37,38
 177 4 177 4 176 -2 c 0,39,40
 172 -16 172 -16 137 -16 c 0,41,42
 37 -16 37 -16 37 24 c 2,13,-1
EndSplineSet
EndChar

StartChar: Ograve
Encoding: 210 210 145
Width: 577
GlyphClass: 2
Flags: W
LayerCount: 2
Fore
SplineSet
31 371 m 0,0,1
 31 530 31 530 56 615 c 128,-1,2
 81 700 81 700 135.5 734 c 128,-1,3
 190 768 190 768 293 768 c 128,-1,4
 396 768 396 768 450.5 734 c 128,-1,5
 505 700 505 700 529.5 615.5 c 128,-1,6
 554 531 554 531 554 371 c 0,7,8
 554 152 554 152 498 68 c 128,-1,9
 442 -16 442 -16 293 -16 c 128,-1,10
 144 -16 144 -16 87.5 68 c 128,-1,11
 31 152 31 152 31 371 c 0,0,1
191 481.5 m 128,-1,13
 190 443 190 443 190 351 c 128,-1,14
 190 259 190 259 196 197 c 128,-1,15
 202 135 202 135 212 115.5 c 128,-1,16
 222 96 222 96 239 96 c 0,17,18
 327 96 327 96 354 114 c 0,19,20
 364 121 364 121 373.5 137 c 128,-1,21
 383 153 383 153 387 170 c 128,-1,22
 391 187 391 187 394 220 c 0,23,24
 398 263 398 263 398 374.5 c 128,-1,25
 398 486 398 486 392.5 550.5 c 128,-1,26
 387 615 387 615 376.5 638.5 c 128,-1,27
 366 662 366 662 349 662 c 0,28,29
 309 662 309 662 284.5 658.5 c 128,-1,30
 260 655 260 655 241 641.5 c 128,-1,31
 222 628 222 628 213 611.5 c 128,-1,32
 204 595 204 595 198 557.5 c 128,-1,12
 192 520 192 520 191 481.5 c 128,-1,13
313 813 m 1,33,-1
 267 792 l 1,34,-1
 107 964 l 1,35,-1
 215 1024 l 1,36,-1
 257 992 l 1,37,-1
 314 868 l 1,38,-1
 313 813 l 1,33,-1
EndSplineSet
EndChar

StartChar: Oacute
Encoding: 211 211 146
Width: 577
GlyphClass: 2
Flags: W
LayerCount: 2
Fore
SplineSet
23 371 m 0,0,1
 23 530 23 530 48 615 c 128,-1,2
 73 700 73 700 127.5 734 c 128,-1,3
 182 768 182 768 285 768 c 128,-1,4
 388 768 388 768 442.5 734 c 128,-1,5
 497 700 497 700 521.5 615.5 c 128,-1,6
 546 531 546 531 546 371 c 0,7,8
 546 152 546 152 490 68 c 128,-1,9
 434 -16 434 -16 285 -16 c 128,-1,10
 136 -16 136 -16 79.5 68 c 128,-1,11
 23 152 23 152 23 371 c 0,0,1
183 481.5 m 128,-1,13
 182 443 182 443 182 351 c 128,-1,14
 182 259 182 259 188 197 c 128,-1,15
 194 135 194 135 204 115.5 c 128,-1,16
 214 96 214 96 231 96 c 0,17,18
 319 96 319 96 346 114 c 0,19,20
 356 121 356 121 365.5 137 c 128,-1,21
 375 153 375 153 379 170 c 128,-1,22
 383 187 383 187 386 220 c 0,23,24
 390 263 390 263 390 374.5 c 128,-1,25
 390 486 390 486 384.5 550.5 c 128,-1,26
 379 615 379 615 368.5 638.5 c 128,-1,27
 358 662 358 662 341 662 c 0,28,29
 301 662 301 662 276.5 658.5 c 128,-1,30
 252 655 252 655 233 641.5 c 128,-1,31
 214 628 214 628 205 611.5 c 128,-1,32
 196 595 196 595 190 557.5 c 128,-1,12
 184 520 184 520 183 481.5 c 128,-1,13
303 792 m 1,33,-1
 257 813 l 1,34,-1
 256 868 l 1,35,-1
 313 992 l 1,36,-1
 355 1024 l 1,37,-1
 463 964 l 1,38,-1
 303 792 l 1,33,-1
EndSplineSet
EndChar

StartChar: Ocircumflex
Encoding: 212 212 147
Width: 583
GlyphClass: 2
Flags: W
LayerCount: 2
Fore
SplineSet
30 371 m 0,0,1
 30 530 30 530 55 615 c 128,-1,2
 80 700 80 700 134.5 734 c 128,-1,3
 189 768 189 768 292 768 c 128,-1,4
 395 768 395 768 449.5 734 c 128,-1,5
 504 700 504 700 528.5 615.5 c 128,-1,6
 553 531 553 531 553 371 c 0,7,8
 553 152 553 152 497 68 c 128,-1,9
 441 -16 441 -16 292 -16 c 128,-1,10
 143 -16 143 -16 86.5 68 c 128,-1,11
 30 152 30 152 30 371 c 0,0,1
190 481.5 m 128,-1,13
 189 443 189 443 189 351 c 128,-1,14
 189 259 189 259 195 197 c 128,-1,15
 201 135 201 135 211 115.5 c 128,-1,16
 221 96 221 96 238 96 c 0,17,18
 326 96 326 96 354 114 c 1,19,20
 363 121 363 121 372.5 137 c 128,-1,21
 382 153 382 153 386 170 c 128,-1,22
 390 187 390 187 393 220 c 0,23,24
 397 263 397 263 397 374.5 c 128,-1,25
 397 486 397 486 391.5 550.5 c 128,-1,26
 386 615 386 615 375.5 638.5 c 128,-1,27
 365 662 365 662 348 662 c 0,28,29
 308 662 308 662 283.5 658.5 c 128,-1,30
 259 655 259 655 240 641.5 c 128,-1,31
 221 628 221 628 212 611.5 c 128,-1,32
 203 595 203 595 197 557.5 c 128,-1,12
 191 520 191 520 190 481.5 c 128,-1,13
166 828 m 1,33,-1
 127 860 l 1,34,-1
 140 914 l 1,35,-1
 242 1004 l 1,36,-1
 291 1024 l 1,37,-1
 340 1004 l 1,38,-1
 442 914 l 1,39,-1
 455 860 l 1,40,-1
 416 828 l 1,41,-1
 291 909 l 1,42,-1
 166 828 l 1,33,-1
EndSplineSet
EndChar

StartChar: Otilde
Encoding: 213 213 148
Width: 583
GlyphClass: 2
Flags: W
LayerCount: 2
Fore
SplineSet
30 371 m 0,0,1
 30 530 30 530 55 615 c 128,-1,2
 80 700 80 700 134.5 734 c 128,-1,3
 189 768 189 768 292 768 c 128,-1,4
 395 768 395 768 449.5 734 c 128,-1,5
 504 700 504 700 528.5 615.5 c 128,-1,6
 553 531 553 531 553 371 c 0,7,8
 553 152 553 152 497 68 c 128,-1,9
 441 -16 441 -16 292 -16 c 128,-1,10
 143 -16 143 -16 86.5 68 c 128,-1,11
 30 152 30 152 30 371 c 0,0,1
190 481.5 m 128,-1,13
 189 443 189 443 189 351 c 128,-1,14
 189 259 189 259 195 197 c 128,-1,15
 201 135 201 135 211 115.5 c 128,-1,16
 221 96 221 96 238 96 c 0,17,18
 326 96 326 96 354 114 c 1,19,20
 363 121 363 121 372.5 137 c 128,-1,21
 382 153 382 153 386 170 c 128,-1,22
 390 187 390 187 393 220 c 0,23,24
 397 263 397 263 397 374.5 c 128,-1,25
 397 486 397 486 391.5 550.5 c 128,-1,26
 386 615 386 615 375.5 638.5 c 128,-1,27
 365 662 365 662 348 662 c 0,28,29
 308 662 308 662 283.5 658.5 c 128,-1,30
 259 655 259 655 240 641.5 c 128,-1,31
 221 628 221 628 212 611.5 c 128,-1,32
 203 595 203 595 197 557.5 c 128,-1,12
 191 520 191 520 190 481.5 c 128,-1,13
461 884 m 1,33,34
 454 884 454 884 415.5 884 c 128,-1,35
 377 884 377 884 304 874 c 128,-1,36
 231 864 231 864 181 864 c 128,-1,37
 131 864 131 864 117.5 873.5 c 128,-1,38
 104 883 104 883 104 916 c 1,39,-1
 129 967 l 1,40,41
 204 967 204 967 269.5 976 c 128,-1,42
 335 985 335 985 388 985 c 128,-1,43
 441 985 441 985 459 974.5 c 128,-1,44
 477 964 477 964 477 929 c 1,45,-1
 461 884 l 1,33,34
EndSplineSet
EndChar

StartChar: Odieresis
Encoding: 214 214 149
Width: 586
GlyphClass: 2
Flags: W
LayerCount: 2
Fore
SplineSet
31 371 m 0,0,1
 31 530 31 530 56 615 c 128,-1,2
 81 700 81 700 135.5 734 c 128,-1,3
 190 768 190 768 293 768 c 128,-1,4
 396 768 396 768 450.5 734 c 128,-1,5
 505 700 505 700 529.5 615.5 c 128,-1,6
 554 531 554 531 554 371 c 0,7,8
 554 152 554 152 498 68 c 128,-1,9
 442 -16 442 -16 293 -16 c 128,-1,10
 144 -16 144 -16 87.5 68 c 128,-1,11
 31 152 31 152 31 371 c 0,0,1
191 481.5 m 128,-1,13
 190 443 190 443 190 351 c 128,-1,14
 190 259 190 259 196 197 c 128,-1,15
 202 135 202 135 212 115.5 c 128,-1,16
 222 96 222 96 239 96 c 0,17,18
 327 96 327 96 354 114 c 0,19,20
 364 121 364 121 373.5 137 c 128,-1,21
 383 153 383 153 387 170 c 128,-1,22
 391 187 391 187 394 220 c 0,23,24
 398 263 398 263 398 374.5 c 128,-1,25
 398 486 398 486 392.5 550.5 c 128,-1,26
 387 615 387 615 376.5 638.5 c 128,-1,27
 366 662 366 662 349 662 c 0,28,29
 309 662 309 662 284.5 658.5 c 128,-1,30
 260 655 260 655 241 641.5 c 128,-1,31
 222 628 222 628 213 611.5 c 128,-1,32
 204 595 204 595 198 557.5 c 128,-1,12
 192 520 192 520 191 481.5 c 128,-1,13
103 952 m 128,-1,34
 103 1024 103 1024 175 1024 c 128,-1,35
 247 1024 247 1024 247 952 c 128,-1,36
 247 880 247 880 175 880 c 128,-1,33
 103 880 103 880 103 952 c 128,-1,34
337 952 m 128,-1,38
 337 1024 337 1024 409 1024 c 128,-1,39
 481 1024 481 1024 481 952 c 128,-1,40
 481 880 481 880 409 880 c 128,-1,37
 337 880 337 880 337 952 c 128,-1,38
EndSplineSet
EndChar

StartChar: multiply
Encoding: 215 215 150
Width: 427
GlyphClass: 2
Flags: W
LayerCount: 2
Fore
SplineSet
129 541 m 1,0,-1
 212 457 l 1,1,-1
 298 543 l 1,2,-1
 321 543 l 1,3,-1
 385 478 l 1,4,-1
 385 454 l 1,5,-1
 300 369 l 1,6,-1
 397 273 l 1,7,-1
 310 185 l 1,8,-1
 213 282 l 1,9,-1
 117 186 l 1,10,-1
 29 273 l 1,11,-1
 125 369 l 1,12,-1
 40 454 l 1,13,-1
 40 477 l 1,14,-1
 105 541 l 1,15,-1
 129 541 l 1,0,-1
EndSplineSet
EndChar

StartChar: Oslash
Encoding: 216 216 151
Width: 578
GlyphClass: 2
Flags: W
LayerCount: 2
Fore
SplineSet
289 756 m 1,0,-1
 326 755 l 1,1,-1
 356 876 l 1,2,-1
 461 876 l 1,3,-1
 461 769 l 1,4,-1
 450 724 l 1,5,6
 506 690 506 690 528.5 609 c 128,-1,7
 551 528 551 528 551 371 c 0,8,9
 551 152 551 152 495 68 c 128,-1,10
 439 -16 439 -16 289 -16 c 2,11,-1
 275 -16 l 1,12,-1
 245 -146 l 1,13,-1
 109 -146 l 1,14,-1
 109 -114 l 1,15,-1
 141 14 l 1,16,17
 79 49 79 49 53 133 c 128,-1,18
 27 217 27 217 27 354 c 128,-1,19
 27 491 27 491 39 564.5 c 128,-1,20
 51 638 51 638 83.5 681.5 c 128,-1,21
 116 725 116 725 163.5 740.5 c 128,-1,22
 211 756 211 756 289 756 c 1,0,-1
189.5 455 m 128,-1,24
 189 424 189 424 189 342 c 128,-1,25
 189 260 189 260 194.5 199 c 128,-1,26
 200 138 200 138 209.5 118.5 c 128,-1,27
 219 99 219 99 235 99 c 0,28,29
 322 99 322 99 350 118 c 0,30,31
 389 145 389 145 392 286 c 0,32,33
 392 319 392 319 392 401.5 c 128,-1,34
 392 484 392 484 386.5 544.5 c 128,-1,35
 381 605 381 605 371.5 625.5 c 128,-1,36
 362 646 362 646 345 646 c 0,37,38
 283 646 283 646 262 639 c 128,-1,39
 241 632 241 632 231 625 c 128,-1,40
 221 618 221 618 212 601 c 128,-1,41
 203 584 203 584 199.5 567.5 c 128,-1,42
 196 551 196 551 193 518.5 c 128,-1,23
 190 486 190 486 189.5 455 c 128,-1,24
EndSplineSet
EndChar

StartChar: Ugrave
Encoding: 217 217 152
Width: 529
GlyphClass: 2
Flags: W
LayerCount: 2
Fore
SplineSet
297 813 m 1,0,-1
 251 792 l 1,1,-1
 91 964 l 1,2,-1
 199 1024 l 1,3,-1
 241 992 l 1,4,-1
 298 868 l 1,5,-1
 297 813 l 1,0,-1
358 722 m 2,6,7
 358 750 358 750 370 759 c 128,-1,8
 382 768 382 768 420 768 c 128,-1,9
 458 768 458 768 472.5 756 c 128,-1,10
 487 744 487 744 488 698 c 1,11,-1
 500 429 l 2,12,13
 500 414 500 414 500 399 c 0,14,15
 500 244 500 244 479.5 153 c 128,-1,16
 459 62 459 62 409.5 23 c 128,-1,17
 360 -16 360 -16 268 -16 c 0,18,19
 134 -16 134 -16 83 68 c 128,-1,20
 32 152 32 152 32 370 c 2,21,-1
 32 700 l 2,22,23
 32 743 32 743 44.5 755.5 c 128,-1,24
 57 768 57 768 96 768 c 128,-1,25
 135 768 135 768 149 754.5 c 128,-1,26
 163 741 163 741 165 690 c 2,27,-1
 179 431 l 1,28,29
 179 178 179 178 198 130 c 0,30,31
 207 109 207 109 222 109 c 0,32,33
 257 109 257 109 276 110.5 c 128,-1,34
 295 112 295 112 313 122.5 c 128,-1,35
 331 133 331 133 338 147 c 128,-1,36
 345 161 345 161 350 194 c 0,37,38
 358 240 358 240 358 370 c 2,39,-1
 358 722 l 2,6,7
EndSplineSet
EndChar

StartChar: Uacute
Encoding: 218 218 153
Width: 528
GlyphClass: 2
Flags: W
LayerCount: 2
Fore
SplineSet
278 792 m 1,0,-1
 232 813 l 1,1,-1
 231 868 l 1,2,-1
 288 992 l 1,3,-1
 330 1024 l 1,4,-1
 438 964 l 1,5,-1
 278 792 l 1,0,-1
352 722 m 2,6,7
 352 750 352 750 364 759 c 128,-1,8
 376 768 376 768 414 768 c 128,-1,9
 452 768 452 768 466.5 756 c 128,-1,10
 481 744 481 744 482 698 c 1,11,-1
 494 429 l 2,12,13
 494 414 494 414 494 399 c 0,14,15
 494 244 494 244 473.5 153 c 128,-1,16
 453 62 453 62 403.5 23 c 128,-1,17
 354 -16 354 -16 262 -16 c 0,18,19
 128 -16 128 -16 77 68 c 128,-1,20
 26 152 26 152 26 370 c 2,21,-1
 26 700 l 2,22,23
 26 743 26 743 38.5 755.5 c 128,-1,24
 51 768 51 768 90 768 c 128,-1,25
 129 768 129 768 143 754.5 c 128,-1,26
 157 741 157 741 159 690 c 2,27,-1
 173 431 l 1,28,29
 173 178 173 178 192 130 c 0,30,31
 201 109 201 109 216 109 c 0,32,33
 251 109 251 109 270 110.5 c 128,-1,34
 289 112 289 112 307 122.5 c 128,-1,35
 325 133 325 133 332 147 c 128,-1,36
 339 161 339 161 344 194 c 0,37,38
 352 240 352 240 352 370 c 2,39,-1
 352 722 l 2,6,7
EndSplineSet
EndChar

StartChar: Ucircumflex
Encoding: 219 219 154
Width: 536
GlyphClass: 2
Flags: W
LayerCount: 2
Fore
SplineSet
142 828 m 1,0,-1
 103 860 l 1,1,-1
 116 914 l 1,2,-1
 218 1004 l 1,3,-1
 267 1024 l 1,4,-1
 316 1004 l 1,5,-1
 418 914 l 1,6,-1
 431 860 l 1,7,-1
 392 828 l 1,8,-1
 267 909 l 1,9,-1
 142 828 l 1,0,-1
358 722 m 2,10,11
 358 750 358 750 370 759 c 128,-1,12
 382 768 382 768 420 768 c 128,-1,13
 458 768 458 768 472.5 756 c 128,-1,14
 487 744 487 744 488 698 c 1,15,-1
 500 429 l 2,16,17
 500 414 500 414 500 399 c 0,18,19
 500 244 500 244 479.5 153 c 128,-1,20
 459 62 459 62 409.5 23 c 128,-1,21
 360 -16 360 -16 268 -16 c 0,22,23
 134 -16 134 -16 83 68 c 128,-1,24
 32 152 32 152 32 370 c 2,25,-1
 32 700 l 2,26,27
 32 743 32 743 44.5 755.5 c 128,-1,28
 57 768 57 768 96 768 c 128,-1,29
 135 768 135 768 149 754.5 c 128,-1,30
 163 741 163 741 165 690 c 2,31,-1
 179 431 l 1,32,33
 179 178 179 178 198 130 c 0,34,35
 207 109 207 109 222 109 c 0,36,37
 257 109 257 109 276 110.5 c 128,-1,38
 295 112 295 112 313 122.5 c 128,-1,39
 331 133 331 133 338 147 c 128,-1,40
 345 161 345 161 350 194 c 0,41,42
 358 240 358 240 358 370 c 2,43,-1
 358 722 l 2,10,11
EndSplineSet
EndChar

StartChar: Udieresis
Encoding: 220 220 155
Width: 539
GlyphClass: 2
Flags: W
LayerCount: 2
Fore
SplineSet
80 952 m 128,-1,1
 80 1024 80 1024 152 1024 c 128,-1,2
 224 1024 224 1024 224 952 c 128,-1,3
 224 880 224 880 152 880 c 128,-1,0
 80 880 80 880 80 952 c 128,-1,1
314 952 m 128,-1,5
 314 1024 314 1024 386 1024 c 128,-1,6
 458 1024 458 1024 458 952 c 128,-1,7
 458 880 458 880 386 880 c 128,-1,4
 314 880 314 880 314 952 c 128,-1,5
358 722 m 2,8,9
 358 750 358 750 370 759 c 128,-1,10
 382 768 382 768 420 768 c 128,-1,11
 458 768 458 768 472.5 756 c 128,-1,12
 487 744 487 744 488 698 c 1,13,-1
 500 429 l 2,14,15
 500 414 500 414 500 399 c 0,16,17
 500 244 500 244 479.5 153 c 128,-1,18
 459 62 459 62 409.5 23 c 128,-1,19
 360 -16 360 -16 268 -16 c 0,20,21
 134 -16 134 -16 83 68 c 128,-1,22
 32 152 32 152 32 370 c 2,23,-1
 32 700 l 2,24,25
 32 743 32 743 44.5 755.5 c 128,-1,26
 57 768 57 768 96 768 c 128,-1,27
 135 768 135 768 149 754.5 c 128,-1,28
 163 741 163 741 165 690 c 2,29,-1
 179 431 l 1,30,31
 179 178 179 178 198 130 c 0,32,33
 207 109 207 109 222 109 c 0,34,35
 257 109 257 109 276 110.5 c 128,-1,36
 295 112 295 112 313 122.5 c 128,-1,37
 331 133 331 133 338 147 c 128,-1,38
 345 161 345 161 350 194 c 0,39,40
 358 240 358 240 358 370 c 2,41,-1
 358 722 l 2,8,9
EndSplineSet
EndChar

StartChar: Yacute
Encoding: 221 221 156
Width: 562
GlyphClass: 2
Flags: W
LayerCount: 2
Fore
SplineSet
297 792 m 1,0,-1
 251 813 l 1,1,-1
 250 868 l 1,2,-1
 307 992 l 1,3,-1
 349 1024 l 1,4,-1
 457 964 l 1,5,-1
 297 792 l 1,0,-1
14 745 m 0,6,7
 14 768 14 768 80 768 c 128,-1,8
 146 768 146 768 161 731 c 1,9,-1
 298 492 l 1,10,-1
 417 734 l 1,11,12
 425 754 425 754 439 761 c 128,-1,13
 453 768 453 768 483 768 c 0,14,15
 551 768 551 768 551 743 c 0,16,17
 551 737 551 737 548 731 c 2,18,-1
 353 349 l 1,19,-1
 353 21 l 2,20,21
 353 4 353 4 352 -2 c 0,22,23
 348 -16 348 -16 313 -16 c 0,24,25
 236 -16 236 -16 236 22 c 2,26,-1
 236 349 l 1,27,-1
 18 732 l 2,28,29
 14 739 14 739 14 745 c 0,6,7
EndSplineSet
EndChar

StartChar: Thorn
Encoding: 222 222 157
Width: 451
GlyphClass: 2
Flags: W
LayerCount: 2
Fore
SplineSet
170 -14 m 2,0,-1
 155 -16 l 1,1,-1
 143 -16 l 2,2,3
 110 -16 110 -16 78 -11 c 128,-1,4
 46 -6 46 -6 46 0 c 2,5,-1
 46 755 l 2,6,7
 46 771 46 771 82 771 c 128,-1,8
 118 771 118 771 148.5 766 c 128,-1,9
 179 761 179 761 179 755 c 2,10,-1
 179 627 l 1,11,-1
 227 627 l 2,12,13
 348 627 348 627 391.5 573.5 c 128,-1,14
 435 520 435 520 435 370 c 128,-1,15
 435 220 435 220 400.5 159.5 c 128,-1,16
 366 99 366 99 292 99 c 0,17,18
 264 99 264 99 179 110 c 1,19,-1
 179 -6 l 2,20,21
 179 -10 179 -10 177.5 -10.5 c 128,-1,22
 176 -11 176 -11 174.5 -12.5 c 128,-1,23
 173 -14 173 -14 170 -14 c 2,0,-1
179 531 m 1,24,-1
 179 195 l 1,25,-1
 275 195 l 2,26,27
 286 195 286 195 288.5 237.5 c 128,-1,28
 291 280 291 280 291 375 c 128,-1,29
 291 470 291 470 277.5 500.5 c 128,-1,30
 264 531 264 531 227 531 c 2,31,-1
 179 531 l 1,24,-1
EndSplineSet
EndChar

StartChar: germandbls
Encoding: 223 223 158
Width: 607
GlyphClass: 2
Flags: W
LayerCount: 2
Fore
SplineSet
172 -84 m 2,0,-1
 157 -86 l 1,1,-1
 145 -86 l 2,2,3
 112 -86 112 -86 77.5 -81 c 128,-1,4
 43 -76 43 -76 43 -70 c 2,5,-1
 43 496 l 2,6,7
 43 579 43 579 53 628.5 c 128,-1,8
 63 678 63 678 90 708.5 c 128,-1,9
 117 739 117 739 158 749.5 c 128,-1,10
 199 760 199 760 269 760 c 0,11,12
 369 760 369 760 416 724 c 0,13,14
 468 684 468 684 468 579 c 0,15,16
 468 507 468 507 434 468 c 0,17,18
 418 449 418 449 402 434 c 1,19,20
 362 400 362 400 362 373 c 0,21,22
 362 357 362 357 379.5 347 c 128,-1,23
 397 337 397 337 408 331.5 c 128,-1,24
 419 326 419 326 440 316 c 0,25,26
 515 284 515 284 551.5 245 c 128,-1,27
 588 206 588 206 588 168 c 0,28,29
 588 85 588 85 544 34.5 c 128,-1,30
 500 -16 500 -16 424.5 -16 c 128,-1,31
 349 -16 349 -16 306 4 c 128,-1,32
 263 24 263 24 234 61 c 1,33,-1
 234 81 l 1,34,-1
 288 134 l 1,35,-1
 296 134 l 1,36,37
 351 90 351 90 401 90 c 0,38,39
 429 90 429 90 443 106 c 128,-1,40
 457 122 457 122 457 141 c 128,-1,41
 457 160 457 160 441 172 c 128,-1,42
 425 184 425 184 397.5 197.5 c 128,-1,43
 370 211 370 211 364 214 c 0,44,45
 313 239 313 239 277.5 276.5 c 128,-1,46
 242 314 242 314 242 355.5 c 128,-1,47
 242 397 242 397 254 425.5 c 128,-1,48
 266 454 266 454 283 471.5 c 128,-1,49
 300 489 300 489 318 504 c 0,50,51
 359 541 359 541 359 586 c 128,-1,52
 359 631 359 631 335.5 645 c 128,-1,53
 312 659 312 659 259.5 659 c 128,-1,54
 207 659 207 659 193 625 c 128,-1,55
 179 591 179 591 179 496 c 2,56,-1
 181 -70 l 1,57,-1
 181 -76 l 2,58,59
 181 -80 181 -80 179.5 -80.5 c 128,-1,60
 178 -81 178 -81 176.5 -82.5 c 128,-1,61
 175 -84 175 -84 172 -84 c 2,0,-1
EndSplineSet
EndChar

StartChar: agrave
Encoding: 224 224 159
Width: 435
GlyphClass: 2
Flags: W
LayerCount: 2
Fore
SplineSet
274 31 m 1,0,1
 222 -16 222 -16 181.5 -16 c 128,-1,2
 141 -16 141 -16 116 -10.5 c 128,-1,3
 91 -5 91 -5 71 13.5 c 128,-1,4
 51 32 51 32 43 67 c 128,-1,5
 35 102 35 102 35 160 c 0,6,7
 35 241 35 241 114 271 c 1,8,-1
 257 308 l 1,9,10
 256 373 256 373 244 392 c 128,-1,11
 232 411 232 411 192 411 c 128,-1,12
 152 411 152 411 123 398 c 1,13,-1
 88 384 l 1,14,-1
 87 384 l 1,15,16
 78 379 78 379 71 392 c 0,17,18
 53 430 53 430 53 451.5 c 128,-1,19
 53 473 53 473 56.5 475.5 c 128,-1,20
 60 478 60 478 60 479 c 0,21,22
 110 512 110 512 189.5 512 c 128,-1,23
 269 512 269 512 312 491 c 128,-1,24
 355 470 355 470 374.5 414.5 c 128,-1,25
 394 359 394 359 394 250 c 2,26,-1
 392 0 l 2,27,28
 392 -6 392 -6 390 -8 c 0,29,30
 386 -16 386 -16 352 -16 c 0,31,32
 290 -16 290 -16 290 0 c 1,33,-1
 274 31 l 1,0,1
146 158 m 0,34,35
 146 86 146 86 188 82 c 1,36,37
 217 82 217 82 230 92 c 0,38,39
 258 111 258 111 258 234 c 1,40,41
 206 227 206 227 176 205.5 c 128,-1,42
 146 184 146 184 146 158 c 0,34,35
237 557 m 1,43,-1
 191 536 l 1,44,-1
 31 708 l 1,45,-1
 139 768 l 1,46,-1
 181 736 l 1,47,-1
 238 612 l 1,48,-1
 237 557 l 1,43,-1
EndSplineSet
Substitution2: "'smcp' Lowercase to Small Capitals in Latin lookup 1 subtable" A_smcpgrave
EndChar

StartChar: aacute
Encoding: 225 225 160
Width: 435
GlyphClass: 2
Flags: W
LayerCount: 2
Fore
SplineSet
274 31 m 1,0,1
 222 -16 222 -16 181.5 -16 c 128,-1,2
 141 -16 141 -16 116 -10.5 c 128,-1,3
 91 -5 91 -5 71 13.5 c 128,-1,4
 51 32 51 32 43 67 c 128,-1,5
 35 102 35 102 35 160 c 0,6,7
 35 241 35 241 114 271 c 1,8,-1
 257 308 l 1,9,10
 256 373 256 373 244 392 c 128,-1,11
 232 411 232 411 192 411 c 128,-1,12
 152 411 152 411 123 398 c 1,13,-1
 88 384 l 1,14,-1
 87 384 l 1,15,16
 78 379 78 379 71 392 c 0,17,18
 53 430 53 430 53 451.5 c 128,-1,19
 53 473 53 473 56.5 475.5 c 128,-1,20
 60 478 60 478 60 479 c 0,21,22
 110 512 110 512 189.5 512 c 128,-1,23
 269 512 269 512 312 491 c 128,-1,24
 355 470 355 470 374.5 414.5 c 128,-1,25
 394 359 394 359 394 250 c 2,26,-1
 392 0 l 2,27,28
 392 -6 392 -6 390 -8 c 0,29,30
 386 -16 386 -16 352 -16 c 0,31,32
 290 -16 290 -16 290 0 c 1,33,-1
 274 31 l 1,0,1
146 158 m 0,34,35
 146 86 146 86 188 82 c 1,36,37
 217 82 217 82 230 92 c 0,38,39
 258 111 258 111 258 234 c 1,40,41
 206 227 206 227 176 205.5 c 128,-1,42
 146 184 146 184 146 158 c 0,34,35
220 536 m 1,43,-1
 174 557 l 1,44,-1
 173 612 l 1,45,-1
 230 736 l 1,46,-1
 272 768 l 1,47,-1
 380 708 l 1,48,-1
 220 536 l 1,43,-1
EndSplineSet
Substitution2: "'smcp' Lowercase to Small Capitals in Latin lookup 1 subtable" A_smcpacute
EndChar

StartChar: acircumflex
Encoding: 226 226 161
Width: 435
GlyphClass: 2
Flags: W
LayerCount: 2
Fore
SplineSet
274 31 m 1,0,1
 222 -16 222 -16 181.5 -16 c 128,-1,2
 141 -16 141 -16 116 -10.5 c 128,-1,3
 91 -5 91 -5 71 13.5 c 128,-1,4
 51 32 51 32 43 67 c 128,-1,5
 35 102 35 102 35 160 c 0,6,7
 35 241 35 241 114 271 c 1,8,-1
 257 308 l 1,9,10
 256 373 256 373 244 392 c 128,-1,11
 232 411 232 411 192 411 c 128,-1,12
 152 411 152 411 123 398 c 1,13,-1
 88 384 l 1,14,-1
 87 384 l 1,15,16
 78 379 78 379 71 392 c 0,17,18
 53 430 53 430 53 451.5 c 128,-1,19
 53 473 53 473 56.5 475.5 c 128,-1,20
 60 478 60 478 60 479 c 0,21,22
 110 512 110 512 189.5 512 c 128,-1,23
 269 512 269 512 312 491 c 128,-1,24
 355 470 355 470 374.5 414.5 c 128,-1,25
 394 359 394 359 394 250 c 2,26,-1
 392 0 l 2,27,28
 392 -6 392 -6 390 -8 c 0,29,30
 386 -16 386 -16 352 -16 c 0,31,32
 290 -16 290 -16 290 0 c 1,33,-1
 274 31 l 1,0,1
146 158 m 0,34,35
 146 86 146 86 188 82 c 1,36,37
 217 82 217 82 230 92 c 0,38,39
 258 111 258 111 258 234 c 1,40,41
 206 227 206 227 176 205.5 c 128,-1,42
 146 184 146 184 146 158 c 0,34,35
92 572 m 1,43,-1
 53 604 l 1,44,-1
 66 658 l 1,45,-1
 168 748 l 1,46,-1
 217 768 l 1,47,-1
 266 748 l 1,48,-1
 368 658 l 1,49,-1
 381 604 l 1,50,-1
 342 572 l 1,51,-1
 217 653 l 1,52,-1
 92 572 l 1,43,-1
EndSplineSet
Substitution2: "'smcp' Lowercase to Small Capitals in Latin lookup 1 subtable" A_smcpcircunflex
EndChar

StartChar: atilde
Encoding: 227 227 162
Width: 435
GlyphClass: 2
Flags: W
LayerCount: 2
Fore
SplineSet
274 31 m 1,0,1
 222 -16 222 -16 181.5 -16 c 128,-1,2
 141 -16 141 -16 116 -10.5 c 128,-1,3
 91 -5 91 -5 71 13.5 c 128,-1,4
 51 32 51 32 43 67 c 128,-1,5
 35 102 35 102 35 160 c 0,6,7
 35 241 35 241 114 271 c 1,8,-1
 257 308 l 1,9,10
 256 373 256 373 244 392 c 128,-1,11
 232 411 232 411 192 411 c 128,-1,12
 152 411 152 411 123 398 c 1,13,-1
 88 384 l 1,14,-1
 87 384 l 1,15,16
 78 379 78 379 71 392 c 0,17,18
 53 430 53 430 53 451.5 c 128,-1,19
 53 473 53 473 56.5 475.5 c 128,-1,20
 60 478 60 478 60 479 c 0,21,22
 110 512 110 512 189.5 512 c 128,-1,23
 269 512 269 512 312 491 c 128,-1,24
 355 470 355 470 374.5 414.5 c 128,-1,25
 394 359 394 359 394 250 c 2,26,-1
 392 0 l 2,27,28
 392 -6 392 -6 390 -8 c 0,29,30
 386 -16 386 -16 352 -16 c 0,31,32
 290 -16 290 -16 290 0 c 1,33,-1
 274 31 l 1,0,1
146 158 m 0,34,35
 146 86 146 86 188 82 c 1,36,37
 217 82 217 82 230 92 c 0,38,39
 258 111 258 111 258 234 c 1,40,41
 206 227 206 227 176 205.5 c 128,-1,42
 146 184 146 184 146 158 c 0,34,35
388 628 m 1,43,44
 381 628 381 628 342.5 628 c 128,-1,45
 304 628 304 628 231 618 c 128,-1,46
 158 608 158 608 108 608 c 128,-1,47
 58 608 58 608 44.5 617.5 c 128,-1,48
 31 627 31 627 31 660 c 1,49,-1
 56 711 l 1,50,51
 131 711 131 711 196.5 720 c 128,-1,52
 262 729 262 729 315 729 c 128,-1,53
 368 729 368 729 386 718.5 c 128,-1,54
 404 708 404 708 404 673 c 1,55,-1
 388 628 l 1,43,44
EndSplineSet
Substitution2: "'smcp' Lowercase to Small Capitals in Latin lookup 1 subtable" A_smcptilde
EndChar

StartChar: adieresis
Encoding: 228 228 163
Width: 435
GlyphClass: 2
Flags: W
LayerCount: 2
Fore
SplineSet
274 31 m 1,0,1
 222 -16 222 -16 181.5 -16 c 128,-1,2
 141 -16 141 -16 116 -10.5 c 128,-1,3
 91 -5 91 -5 71 13.5 c 128,-1,4
 51 32 51 32 43 67 c 128,-1,5
 35 102 35 102 35 160 c 0,6,7
 35 241 35 241 114 271 c 1,8,-1
 257 308 l 1,9,10
 256 373 256 373 244 392 c 128,-1,11
 232 411 232 411 192 411 c 128,-1,12
 152 411 152 411 123 398 c 1,13,-1
 88 384 l 1,14,-1
 87 384 l 1,15,16
 78 379 78 379 71 392 c 0,17,18
 53 430 53 430 53 451.5 c 128,-1,19
 53 473 53 473 56.5 475.5 c 128,-1,20
 60 478 60 478 60 479 c 0,21,22
 110 512 110 512 189.5 512 c 128,-1,23
 269 512 269 512 312 491 c 128,-1,24
 355 470 355 470 374.5 414.5 c 128,-1,25
 394 359 394 359 394 250 c 2,26,-1
 392 0 l 2,27,28
 392 -6 392 -6 390 -8 c 0,29,30
 386 -16 386 -16 352 -16 c 0,31,32
 290 -16 290 -16 290 0 c 1,33,-1
 274 31 l 1,0,1
146 158 m 0,34,35
 146 86 146 86 188 82 c 1,36,37
 217 82 217 82 230 92 c 0,38,39
 258 111 258 111 258 234 c 1,40,41
 206 227 206 227 176 205.5 c 128,-1,42
 146 184 146 184 146 158 c 0,34,35
29 696 m 128,-1,44
 29 768 29 768 101 768 c 128,-1,45
 173 768 173 768 173 696 c 128,-1,46
 173 624 173 624 101 624 c 128,-1,43
 29 624 29 624 29 696 c 128,-1,44
263 696 m 128,-1,48
 263 768 263 768 335 768 c 128,-1,49
 407 768 407 768 407 696 c 128,-1,50
 407 624 407 624 335 624 c 128,-1,47
 263 624 263 624 263 696 c 128,-1,48
EndSplineSet
Substitution2: "'smcp' Lowercase to Small Capitals in Latin lookup 1 subtable" A_smcpdieresis
EndChar

StartChar: aring
Encoding: 229 229 164
Width: 435
GlyphClass: 2
Flags: W
LayerCount: 2
Fore
SplineSet
274 31 m 1,0,1
 222 -16 222 -16 181.5 -16 c 128,-1,2
 141 -16 141 -16 116 -10.5 c 128,-1,3
 91 -5 91 -5 71 13.5 c 128,-1,4
 51 32 51 32 43 67 c 128,-1,5
 35 102 35 102 35 160 c 0,6,7
 35 241 35 241 114 271 c 1,8,-1
 257 308 l 1,9,10
 256 373 256 373 244 392 c 128,-1,11
 232 411 232 411 192 411 c 128,-1,12
 152 411 152 411 123 398 c 1,13,-1
 88 384 l 1,14,-1
 87 384 l 1,15,16
 78 379 78 379 71 392 c 0,17,18
 53 430 53 430 53 451.5 c 128,-1,19
 53 473 53 473 56.5 475.5 c 128,-1,20
 60 478 60 478 60 479 c 0,21,22
 110 512 110 512 189.5 512 c 128,-1,23
 269 512 269 512 312 491 c 128,-1,24
 355 470 355 470 374.5 414.5 c 128,-1,25
 394 359 394 359 394 250 c 2,26,-1
 392 0 l 2,27,28
 392 -6 392 -6 390 -8 c 0,29,30
 386 -16 386 -16 352 -16 c 0,31,32
 290 -16 290 -16 290 0 c 1,33,-1
 274 31 l 1,0,1
146 158 m 0,34,35
 146 86 146 86 188 82 c 1,36,37
 217 82 217 82 230 92 c 0,38,39
 258 111 258 111 258 234 c 1,40,41
 206 227 206 227 176 205.5 c 128,-1,42
 146 184 146 184 146 158 c 0,34,35
121 656 m 128,-1,44
 121 752 121 752 217 752 c 128,-1,45
 313 752 313 752 313 656 c 128,-1,46
 313 560 313 560 217 560 c 128,-1,43
 121 560 121 560 121 656 c 128,-1,44
182 656 m 128,-1,48
 182 621 182 621 217 621 c 128,-1,49
 252 621 252 621 252 656 c 128,-1,50
 252 691 252 691 217 691 c 128,-1,47
 182 691 182 691 182 656 c 128,-1,48
EndSplineSet
Substitution2: "'smcp' Lowercase to Small Capitals in Latin lookup 1 subtable" A_smcpring
EndChar

StartChar: ae
Encoding: 230 230 165
Width: 682
GlyphClass: 2
Flags: W
LayerCount: 2
Fore
SplineSet
452 -16 m 0,0,1
 339 -16 339 -16 299 49 c 1,2,3
 269 19 269 19 258 10 c 0,4,5
 228 -16 228 -16 186.5 -16 c 128,-1,6
 145 -16 145 -16 120 -10.5 c 128,-1,7
 95 -5 95 -5 75 13.5 c 128,-1,8
 55 32 55 32 47 67 c 128,-1,9
 39 102 39 102 39 160 c 0,10,11
 39 241 39 241 118 271 c 1,12,-1
 261 308 l 1,13,14
 260 373 260 373 248 392 c 128,-1,15
 236 411 236 411 196 411 c 128,-1,16
 156 411 156 411 127 398 c 1,17,-1
 87 398 l 1,18,-1
 63 478 l 1,19,20
 108 512 108 512 196 512 c 128,-1,21
 284 512 284 512 327 484 c 1,22,23
 366 512 366 512 446.5 512 c 128,-1,24
 527 512 527 512 565.5 491 c 128,-1,25
 604 470 604 470 622 413 c 128,-1,26
 640 356 640 356 640 251 c 0,27,28
 640 245 640 245 640 239 c 128,-1,29
 640 233 640 233 616.5 228 c 128,-1,30
 593 223 593 223 560 223 c 2,31,-1
 406 223 l 1,32,33
 408 106 408 106 424 90 c 0,34,35
 432 82 432 82 452 82 c 0,36,37
 603 82 603 82 634 96 c 1,38,39
 641 98 641 98 645.5 88 c 128,-1,40
 650 78 650 78 650 41 c 128,-1,41
 650 4 650 4 634 0 c 1,42,43
 593 -16 593 -16 452 -16 c 0,0,1
150 158 m 0,44,45
 150 86 150 86 192 82 c 1,46,47
 221 82 221 82 234 92 c 0,48,49
 262 111 262 111 262 234 c 1,50,51
 210 227 210 227 180 205.5 c 128,-1,52
 150 184 150 184 150 158 c 0,44,45
406 381 m 2,53,-1
 406 303 l 1,54,-1
 507 303 l 1,55,56
 503 419 503 419 484 419 c 0,57,58
 450 419 450 419 428 409 c 128,-1,59
 406 399 406 399 406 381 c 2,53,-1
EndSplineSet
Substitution2: "'smcp' Lowercase to Small Capitals in Latin lookup 1 subtable" AE_smcp
EndChar

StartChar: ccedilla
Encoding: 231 231 166
Width: 380
GlyphClass: 2
Flags: W
LayerCount: 2
Fore
SplineSet
352 478 m 1,0,1
 360 474 360 474 360 459.5 c 128,-1,2
 360 445 360 445 352 421 c 0,3,4
 339 378 339 378 324 384 c 1,5,-1
 323 384 l 1,6,-1
 288 398 l 1,7,8
 259 411 259 411 217.5 411 c 128,-1,9
 176 411 176 411 164.5 377 c 128,-1,10
 153 343 153 343 153 246 c 128,-1,11
 153 149 153 149 167.5 115.5 c 128,-1,12
 182 82 182 82 223 82 c 0,13,14
 282 82 282 82 315 89 c 128,-1,15
 348 96 348 96 349 96 c 0,16,17
 356 98 356 98 360.5 88 c 128,-1,18
 365 78 365 78 365 41 c 128,-1,19
 365 4 365 4 349 0 c 0,20,21
 294 -15 294 -15 233 -16 c 1,22,-1
 228 -47 l 1,23,24
 329 -66 329 -66 329 -153 c 0,25,26
 329 -168 329 -168 326 -186 c 0,27,28
 307 -286 307 -286 221 -286 c 0,29,30
 205 -286 205 -286 187 -283 c 1,31,-1
 200 -209 l 1,32,33
 206 -210 206 -210 211 -210 c 0,34,35
 244 -210 244 -210 251 -173 c 0,36,37
 252 -166 252 -166 252 -160 c 0,38,39
 252 -128 252 -128 215 -122 c 2,40,-1
 158 -112 l 1,41,-1
 175 -13 l 1,42,43
 86 -3 86 -3 51.5 56 c 128,-1,44
 17 115 17 115 17 237 c 128,-1,45
 17 359 17 359 36.5 414.5 c 128,-1,46
 56 470 56 470 99 491 c 128,-1,47
 142 512 142 512 224 512 c 128,-1,48
 306 512 306 512 351 478 c 1,49,-1
 352 478 l 1,0,1
EndSplineSet
EndChar

StartChar: egrave
Encoding: 232 232 167
Width: 454
GlyphClass: 2
Flags: W
LayerCount: 2
Fore
SplineSet
227 -16 m 0,0,1
 120 -16 120 -16 78.5 42 c 128,-1,2
 37 100 37 100 37 250 c 0,3,4
 37 358 37 358 56 414.5 c 128,-1,5
 75 471 75 471 113.5 491.5 c 128,-1,6
 152 512 152 512 227 512 c 128,-1,7
 302 512 302 512 340.5 491 c 128,-1,8
 379 470 379 470 397 413 c 128,-1,9
 415 356 415 356 415 251 c 0,10,11
 415 245 415 245 415 239 c 128,-1,12
 415 233 415 233 391.5 228 c 128,-1,13
 368 223 368 223 335 223 c 2,14,-1
 181 223 l 1,15,16
 183 106 183 106 198 90 c 1,17,18
 207 82 207 82 227 82 c 0,19,20
 358 82 358 82 406 95 c 0,21,22
 408 96 408 96 409 96 c 0,23,24
 416 98 416 98 420.5 88 c 128,-1,25
 425 78 425 78 425 41 c 128,-1,26
 425 4 425 4 409 0 c 1,27,28
 368 -16 368 -16 227 -16 c 0,0,1
181 381 m 2,29,-1
 181 303 l 1,30,-1
 282 303 l 1,31,32
 278 419 278 419 259 419 c 0,33,34
 225 419 225 419 203 409 c 128,-1,35
 181 399 181 399 181 381 c 2,29,-1
278 557 m 1,36,-1
 232 536 l 1,37,-1
 72 708 l 1,38,-1
 180 768 l 1,39,-1
 222 736 l 1,40,-1
 279 612 l 1,41,-1
 278 557 l 1,36,-1
EndSplineSet
Substitution2: "'smcp' Lowercase to Small Capitals in Latin lookup 1 subtable" E_smcpgrave
EndChar

StartChar: eacute
Encoding: 233 233 168
Width: 454
GlyphClass: 2
Flags: W
LayerCount: 2
Fore
SplineSet
227 -16 m 0,0,1
 120 -16 120 -16 78.5 42 c 128,-1,2
 37 100 37 100 37 250 c 0,3,4
 37 358 37 358 56 414.5 c 128,-1,5
 75 471 75 471 113.5 491.5 c 128,-1,6
 152 512 152 512 227 512 c 128,-1,7
 302 512 302 512 340.5 491 c 128,-1,8
 379 470 379 470 397 413 c 128,-1,9
 415 356 415 356 415 251 c 0,10,11
 415 245 415 245 415 239 c 128,-1,12
 415 233 415 233 391.5 228 c 128,-1,13
 368 223 368 223 335 223 c 2,14,-1
 181 223 l 1,15,16
 183 106 183 106 198 90 c 1,17,18
 207 82 207 82 227 82 c 0,19,20
 358 82 358 82 406 95 c 0,21,22
 408 96 408 96 409 96 c 0,23,24
 416 98 416 98 420.5 88 c 128,-1,25
 425 78 425 78 425 41 c 128,-1,26
 425 4 425 4 409 0 c 1,27,28
 368 -16 368 -16 227 -16 c 0,0,1
181 381 m 2,29,-1
 181 303 l 1,30,-1
 282 303 l 1,31,32
 278 419 278 419 259 419 c 0,33,34
 225 419 225 419 203 409 c 128,-1,35
 181 399 181 399 181 381 c 2,29,-1
233 536 m 1,36,-1
 187 557 l 1,37,-1
 186 612 l 1,38,-1
 243 736 l 1,39,-1
 285 768 l 1,40,-1
 393 708 l 1,41,-1
 233 536 l 1,36,-1
EndSplineSet
Substitution2: "'smcp' Lowercase to Small Capitals in Latin lookup 1 subtable" E_smcpacute
EndChar

StartChar: ecircumflex
Encoding: 234 234 169
Width: 454
GlyphClass: 2
Flags: W
LayerCount: 2
Fore
SplineSet
227 -16 m 0,0,1
 120 -16 120 -16 78.5 42 c 128,-1,2
 37 100 37 100 37 250 c 0,3,4
 37 358 37 358 56 414.5 c 128,-1,5
 75 471 75 471 113.5 491.5 c 128,-1,6
 152 512 152 512 227 512 c 128,-1,7
 302 512 302 512 340.5 491 c 128,-1,8
 379 470 379 470 397 413 c 128,-1,9
 415 356 415 356 415 251 c 0,10,11
 415 245 415 245 415 239 c 128,-1,12
 415 233 415 233 391.5 228 c 128,-1,13
 368 223 368 223 335 223 c 2,14,-1
 181 223 l 1,15,16
 183 106 183 106 198 90 c 1,17,18
 207 82 207 82 227 82 c 0,19,20
 358 82 358 82 406 95 c 0,21,22
 408 96 408 96 409 96 c 0,23,24
 416 98 416 98 420.5 88 c 128,-1,25
 425 78 425 78 425 41 c 128,-1,26
 425 4 425 4 409 0 c 1,27,28
 368 -16 368 -16 227 -16 c 0,0,1
181 381 m 2,29,-1
 181 303 l 1,30,-1
 282 303 l 1,31,32
 278 419 278 419 259 419 c 0,33,34
 225 419 225 419 203 409 c 128,-1,35
 181 399 181 399 181 381 c 2,29,-1
102 572 m 1,36,-1
 63 604 l 1,37,-1
 76 658 l 1,38,-1
 178 748 l 1,39,-1
 227 768 l 1,40,-1
 276 748 l 1,41,-1
 378 658 l 1,42,-1
 391 604 l 1,43,-1
 352 572 l 1,44,-1
 227 653 l 1,45,-1
 102 572 l 1,36,-1
EndSplineSet
Substitution2: "'smcp' Lowercase to Small Capitals in Latin lookup 1 subtable" E_smcpcircunflex
EndChar

StartChar: edieresis
Encoding: 235 235 170
Width: 454
GlyphClass: 2
Flags: W
LayerCount: 2
Fore
SplineSet
227 -16 m 0,0,1
 120 -16 120 -16 78.5 42 c 128,-1,2
 37 100 37 100 37 250 c 0,3,4
 37 358 37 358 56 414.5 c 128,-1,5
 75 471 75 471 113.5 491.5 c 128,-1,6
 152 512 152 512 227 512 c 128,-1,7
 302 512 302 512 340.5 491 c 128,-1,8
 379 470 379 470 397 413 c 128,-1,9
 415 356 415 356 415 251 c 0,10,11
 415 245 415 245 415 239 c 128,-1,12
 415 233 415 233 391.5 228 c 128,-1,13
 368 223 368 223 335 223 c 2,14,-1
 181 223 l 1,15,16
 183 106 183 106 198 90 c 1,17,18
 207 82 207 82 227 82 c 0,19,20
 358 82 358 82 406 95 c 0,21,22
 408 96 408 96 409 96 c 0,23,24
 416 98 416 98 420.5 88 c 128,-1,25
 425 78 425 78 425 41 c 128,-1,26
 425 4 425 4 409 0 c 1,27,28
 368 -16 368 -16 227 -16 c 0,0,1
181 381 m 2,29,-1
 181 303 l 1,30,-1
 282 303 l 1,31,32
 278 419 278 419 259 419 c 0,33,34
 225 419 225 419 203 409 c 128,-1,35
 181 399 181 399 181 381 c 2,29,-1
38 696 m 128,-1,37
 38 768 38 768 110 768 c 128,-1,38
 182 768 182 768 182 696 c 128,-1,39
 182 624 182 624 110 624 c 128,-1,36
 38 624 38 624 38 696 c 128,-1,37
272 696 m 128,-1,41
 272 768 272 768 344 768 c 128,-1,42
 416 768 416 768 416 696 c 128,-1,43
 416 624 416 624 344 624 c 128,-1,40
 272 624 272 624 272 696 c 128,-1,41
EndSplineSet
Substitution2: "'smcp' Lowercase to Small Capitals in Latin lookup 1 subtable" E_smcpdieresis
EndChar

StartChar: igrave
Encoding: 236 236 171
Width: 228
GlyphClass: 2
Flags: W
LayerCount: 2
Fore
SplineSet
47 0 m 2,0,-1
 47 496 l 2,1,2
 47 512 47 512 83 512 c 128,-1,3
 119 512 119 512 151 507 c 128,-1,4
 183 502 183 502 183 496 c 2,5,-1
 183 0 l 2,6,7
 183 -6 183 -6 182 -8 c 0,8,9
 177 -16 177 -16 144 -16 c 128,-1,10
 111 -16 111 -16 79 -11 c 128,-1,11
 47 -6 47 -6 47 0 c 2,0,-1
140 557 m 1,12,-1
 94 536 l 1,13,-1
 -66 708 l 1,14,-1
 42 768 l 1,15,-1
 84 736 l 1,16,-1
 141 612 l 1,17,-1
 140 557 l 1,12,-1
EndSplineSet
Substitution2: "'smcp' Lowercase to Small Capitals in Latin lookup 1 subtable" I_smcpgrave
EndChar

StartChar: iacute
Encoding: 237 237 172
Width: 228
GlyphClass: 2
Flags: W
LayerCount: 2
Fore
SplineSet
47 0 m 2,0,-1
 47 496 l 2,1,2
 47 512 47 512 83 512 c 128,-1,3
 119 512 119 512 151 507 c 128,-1,4
 183 502 183 502 183 496 c 2,5,-1
 183 0 l 2,6,7
 183 -6 183 -6 182 -8 c 0,8,9
 177 -16 177 -16 144 -16 c 128,-1,10
 111 -16 111 -16 79 -11 c 128,-1,11
 47 -6 47 -6 47 0 c 2,0,-1
131 536 m 1,12,-1
 85 557 l 1,13,-1
 84 612 l 1,14,-1
 141 736 l 1,15,-1
 183 768 l 1,16,-1
 291 708 l 1,17,-1
 131 536 l 1,12,-1
EndSplineSet
Substitution2: "'smcp' Lowercase to Small Capitals in Latin lookup 1 subtable" I_smcpacute
EndChar

StartChar: icircumflex
Encoding: 238 238 173
Width: 228
GlyphClass: 2
Flags: W
LayerCount: 2
Fore
SplineSet
47 0 m 2,0,-1
 47 496 l 2,1,2
 47 512 47 512 83 512 c 128,-1,3
 119 512 119 512 151 507 c 128,-1,4
 183 502 183 502 183 496 c 2,5,-1
 183 0 l 2,6,7
 183 -6 183 -6 182 -8 c 0,8,9
 177 -16 177 -16 144 -16 c 128,-1,10
 111 -16 111 -16 79 -11 c 128,-1,11
 47 -6 47 -6 47 0 c 2,0,-1
-11 572 m 1,12,-1
 -50 604 l 1,13,-1
 -37 658 l 1,14,-1
 65 748 l 1,15,-1
 114 768 l 1,16,-1
 163 748 l 1,17,-1
 265 658 l 1,18,-1
 278 604 l 1,19,-1
 239 572 l 1,20,-1
 114 653 l 1,21,-1
 -11 572 l 1,12,-1
EndSplineSet
Substitution2: "'smcp' Lowercase to Small Capitals in Latin lookup 1 subtable" I_smcpcircunflex
EndChar

StartChar: idieresis
Encoding: 239 239 174
Width: 228
GlyphClass: 2
Flags: W
LayerCount: 2
Fore
SplineSet
47 0 m 2,0,-1
 47 496 l 2,1,2
 47 512 47 512 83 512 c 128,-1,3
 119 512 119 512 151 507 c 128,-1,4
 183 502 183 502 183 496 c 2,5,-1
 183 0 l 2,6,7
 183 -6 183 -6 182 -8 c 0,8,9
 177 -16 177 -16 144 -16 c 128,-1,10
 111 -16 111 -16 79 -11 c 128,-1,11
 47 -6 47 -6 47 0 c 2,0,-1
-75 696 m 128,-1,13
 -75 768 -75 768 -3 768 c 128,-1,14
 69 768 69 768 69 696 c 128,-1,15
 69 624 69 624 -3 624 c 128,-1,12
 -75 624 -75 624 -75 696 c 128,-1,13
159 696 m 128,-1,17
 159 768 159 768 231 768 c 128,-1,18
 303 768 303 768 303 696 c 128,-1,19
 303 624 303 624 231 624 c 128,-1,16
 159 624 159 624 159 696 c 128,-1,17
EndSplineSet
Substitution2: "'smcp' Lowercase to Small Capitals in Latin lookup 1 subtable" I_smcpdieresis
EndChar

StartChar: eth
Encoding: 240 240 175
Width: 482
GlyphClass: 2
Flags: W
LayerCount: 2
Fore
SplineSet
104 546 m 0,0,1
 88 546 88 546 79.5 555 c 128,-1,2
 71 564 71 564 65 586 c 1,3,-1
 76 642 l 1,4,5
 133 657 133 657 186 678 c 1,6,-1
 163 717 l 1,7,-1
 171 737 l 1,8,-1
 281 768 l 1,9,-1
 299 726 l 1,10,11
 363 753 363 753 400.5 753 c 128,-1,12
 438 753 438 753 449 711 c 1,13,-1
 446 664 l 1,14,15
 400 652 400 652 342 630 c 1,16,17
 429 426 429 426 429 264.5 c 128,-1,18
 429 103 429 103 385.5 43.5 c 128,-1,19
 342 -16 342 -16 229 -16 c 128,-1,20
 116 -16 116 -16 72.5 43.5 c 128,-1,21
 29 103 29 103 29 254 c 0,22,23
 29 363 29 363 48 419.5 c 128,-1,24
 67 476 67 476 108.5 497 c 128,-1,25
 150 518 150 518 229 518 c 1,26,-1
 253 508 l 1,27,28
 250 532 250 532 230 581 c 1,29,30
 144 546 144 546 104 546 c 0,0,1
289 254 m 0,31,32
 289 355 289 355 275.5 380 c 128,-1,33
 262 405 262 405 204 405 c 0,34,35
 173 405 173 405 173 254 c 0,36,37
 173 149 173 149 186.5 124 c 128,-1,38
 200 99 200 99 258 99 c 0,39,40
 289 99 289 99 289 254 c 0,31,32
EndSplineSet
EndChar

StartChar: ntilde
Encoding: 241 241 176
Width: 488
GlyphClass: 2
Flags: W
LayerCount: 2
Fore
SplineSet
302 512 m 0,0,1
 376 512 376 512 410.5 466 c 128,-1,2
 445 420 445 420 445 304 c 2,3,-1
 445 0 l 2,4,5
 445 -6 445 -6 444 -8 c 0,6,7
 439 -16 439 -16 405.5 -16 c 128,-1,8
 372 -16 372 -16 337 -11 c 128,-1,9
 302 -6 302 -6 302 0 c 2,10,-1
 301 304 l 2,11,12
 301 416 301 416 285 416 c 0,13,14
 249 416 249 416 189 380 c 1,15,-1
 189 0 l 2,16,17
 189 -6 189 -6 188 -8 c 0,18,19
 183 -16 183 -16 149.5 -16 c 128,-1,20
 116 -16 116 -16 80.5 -11 c 128,-1,21
 45 -6 45 -6 45 0 c 2,22,-1
 45 496 l 2,23,24
 45 512 45 512 85 512 c 0,25,26
 148 512 148 512 157 496 c 0,27,28
 157 494 157 494 158 494 c 2,29,-1
 177 456 l 1,30,31
 261 512 261 512 302 512 c 0,0,1
414 628 m 1,32,33
 407 628 407 628 368.5 628 c 128,-1,34
 330 628 330 628 257 618 c 128,-1,35
 184 608 184 608 134 608 c 128,-1,36
 84 608 84 608 70.5 617.5 c 128,-1,37
 57 627 57 627 57 660 c 1,38,-1
 82 711 l 1,39,40
 157 711 157 711 222.5 720 c 128,-1,41
 288 729 288 729 341 729 c 128,-1,42
 394 729 394 729 412 718.5 c 128,-1,43
 430 708 430 708 430 673 c 1,44,-1
 414 628 l 1,32,33
EndSplineSet
Substitution2: "'smcp' Lowercase to Small Capitals in Latin lookup 1 subtable" Ntilde_smcp
EndChar

StartChar: ograve
Encoding: 242 242 177
Width: 474
GlyphClass: 2
Flags: W
LayerCount: 2
Fore
SplineSet
37 250 m 0,0,1
 37 359 37 359 56 415 c 128,-1,2
 75 471 75 471 116 491.5 c 128,-1,3
 157 512 157 512 237 512 c 128,-1,4
 317 512 317 512 358 491.5 c 128,-1,5
 399 471 399 471 418 415 c 128,-1,6
 437 359 437 359 437 250 c 0,7,8
 437 100 437 100 394 42 c 128,-1,9
 351 -16 351 -16 237 -16 c 128,-1,10
 123 -16 123 -16 80 42 c 128,-1,11
 37 100 37 100 37 250 c 0,0,1
173 250 m 0,12,13
 173 82 173 82 205 82 c 0,14,15
 249 82 249 82 270 96 c 0,16,17
 281 104 281 104 285 125 c 0,18,19
 293 167 293 167 293 250 c 0,20,21
 293 416 293 416 261 416 c 0,22,23
 201 416 201 416 187 388.5 c 128,-1,24
 173 361 173 361 173 250 c 0,12,13
265 557 m 1,25,-1
 219 536 l 1,26,-1
 59 708 l 1,27,-1
 167 768 l 1,28,-1
 209 736 l 1,29,-1
 266 612 l 1,30,-1
 265 557 l 1,25,-1
EndSplineSet
Substitution2: "'smcp' Lowercase to Small Capitals in Latin lookup 1 subtable" O_smcpgrave
EndChar

StartChar: oacute
Encoding: 243 243 178
Width: 474
GlyphClass: 2
Flags: W
LayerCount: 2
Fore
SplineSet
37 250 m 0,0,1
 37 359 37 359 56 415 c 128,-1,2
 75 471 75 471 116 491.5 c 128,-1,3
 157 512 157 512 237 512 c 128,-1,4
 317 512 317 512 358 491.5 c 128,-1,5
 399 471 399 471 418 415 c 128,-1,6
 437 359 437 359 437 250 c 0,7,8
 437 100 437 100 394 42 c 128,-1,9
 351 -16 351 -16 237 -16 c 128,-1,10
 123 -16 123 -16 80 42 c 128,-1,11
 37 100 37 100 37 250 c 0,0,1
173 250 m 0,12,13
 173 82 173 82 205 82 c 0,14,15
 249 82 249 82 270 96 c 0,16,17
 281 104 281 104 285 125 c 0,18,19
 293 167 293 167 293 250 c 0,20,21
 293 416 293 416 261 416 c 0,22,23
 201 416 201 416 187 388.5 c 128,-1,24
 173 361 173 361 173 250 c 0,12,13
256 536 m 1,25,-1
 210 557 l 1,26,-1
 209 612 l 1,27,-1
 266 736 l 1,28,-1
 308 768 l 1,29,-1
 416 708 l 1,30,-1
 256 536 l 1,25,-1
EndSplineSet
Substitution2: "'smcp' Lowercase to Small Capitals in Latin lookup 1 subtable" O_smcpacute
EndChar

StartChar: ocircumflex
Encoding: 244 244 179
Width: 474
GlyphClass: 2
Flags: W
LayerCount: 2
Fore
SplineSet
37 250 m 0,0,1
 37 359 37 359 56 415 c 128,-1,2
 75 471 75 471 116 491.5 c 128,-1,3
 157 512 157 512 237 512 c 128,-1,4
 317 512 317 512 358 491.5 c 128,-1,5
 399 471 399 471 418 415 c 128,-1,6
 437 359 437 359 437 250 c 0,7,8
 437 100 437 100 394 42 c 128,-1,9
 351 -16 351 -16 237 -16 c 128,-1,10
 123 -16 123 -16 80 42 c 128,-1,11
 37 100 37 100 37 250 c 0,0,1
173 250 m 0,12,13
 173 82 173 82 205 82 c 0,14,15
 249 82 249 82 270 96 c 0,16,17
 281 104 281 104 285 125 c 0,18,19
 293 167 293 167 293 250 c 0,20,21
 293 416 293 416 261 416 c 0,22,23
 201 416 201 416 187 388.5 c 128,-1,24
 173 361 173 361 173 250 c 0,12,13
112 572 m 1,25,-1
 73 604 l 1,26,-1
 86 658 l 1,27,-1
 188 748 l 1,28,-1
 237 768 l 1,29,-1
 286 748 l 1,30,-1
 388 658 l 1,31,-1
 401 604 l 1,32,-1
 362 572 l 1,33,-1
 237 653 l 1,34,-1
 112 572 l 1,25,-1
EndSplineSet
Substitution2: "'smcp' Lowercase to Small Capitals in Latin lookup 1 subtable" O_smcpcircunflex
EndChar

StartChar: otilde
Encoding: 245 245 180
Width: 474
GlyphClass: 2
Flags: W
LayerCount: 2
Fore
SplineSet
37 250 m 0,0,1
 37 359 37 359 56 415 c 128,-1,2
 75 471 75 471 116 491.5 c 128,-1,3
 157 512 157 512 237 512 c 128,-1,4
 317 512 317 512 358 491.5 c 128,-1,5
 399 471 399 471 418 415 c 128,-1,6
 437 359 437 359 437 250 c 0,7,8
 437 100 437 100 394 42 c 128,-1,9
 351 -16 351 -16 237 -16 c 128,-1,10
 123 -16 123 -16 80 42 c 128,-1,11
 37 100 37 100 37 250 c 0,0,1
173 250 m 0,12,13
 173 82 173 82 205 82 c 0,14,15
 249 82 249 82 270 96 c 0,16,17
 281 104 281 104 285 125 c 0,18,19
 293 167 293 167 293 250 c 0,20,21
 293 416 293 416 261 416 c 0,22,23
 201 416 201 416 187 388.5 c 128,-1,24
 173 361 173 361 173 250 c 0,12,13
407 628 m 1,25,26
 400 628 400 628 361.5 628 c 128,-1,27
 323 628 323 628 250 618 c 128,-1,28
 177 608 177 608 127 608 c 128,-1,29
 77 608 77 608 63.5 617.5 c 128,-1,30
 50 627 50 627 50 660 c 1,31,-1
 75 711 l 1,32,33
 150 711 150 711 215.5 720 c 128,-1,34
 281 729 281 729 334 729 c 128,-1,35
 387 729 387 729 405 718.5 c 128,-1,36
 423 708 423 708 423 673 c 1,37,-1
 407 628 l 1,25,26
EndSplineSet
Substitution2: "'smcp' Lowercase to Small Capitals in Latin lookup 1 subtable" O_smcptilde
EndChar

StartChar: odieresis
Encoding: 246 246 181
Width: 474
GlyphClass: 2
Flags: W
LayerCount: 2
Fore
SplineSet
37 250 m 0,0,1
 37 359 37 359 56 415 c 128,-1,2
 75 471 75 471 116 491.5 c 128,-1,3
 157 512 157 512 237 512 c 128,-1,4
 317 512 317 512 358 491.5 c 128,-1,5
 399 471 399 471 418 415 c 128,-1,6
 437 359 437 359 437 250 c 0,7,8
 437 100 437 100 394 42 c 128,-1,9
 351 -16 351 -16 237 -16 c 128,-1,10
 123 -16 123 -16 80 42 c 128,-1,11
 37 100 37 100 37 250 c 0,0,1
173 250 m 0,12,13
 173 82 173 82 205 82 c 0,14,15
 249 82 249 82 270 96 c 0,16,17
 281 104 281 104 285 125 c 0,18,19
 293 167 293 167 293 250 c 0,20,21
 293 416 293 416 261 416 c 0,22,23
 201 416 201 416 187 388.5 c 128,-1,24
 173 361 173 361 173 250 c 0,12,13
48 696 m 128,-1,26
 48 768 48 768 120 768 c 128,-1,27
 192 768 192 768 192 696 c 128,-1,28
 192 624 192 624 120 624 c 128,-1,25
 48 624 48 624 48 696 c 128,-1,26
282 696 m 128,-1,30
 282 768 282 768 354 768 c 128,-1,31
 426 768 426 768 426 696 c 128,-1,32
 426 624 426 624 354 624 c 128,-1,29
 282 624 282 624 282 696 c 128,-1,30
EndSplineSet
Substitution2: "'smcp' Lowercase to Small Capitals in Latin lookup 1 subtable" O_smcpdieresis
EndChar

StartChar: divide
Encoding: 247 247 182
Width: 378
GlyphClass: 2
Flags: W
LayerCount: 2
Fore
SplineSet
117 187 m 128,-1,1
 117 259 117 259 189 259 c 128,-1,2
 261 259 261 259 261 187 c 128,-1,3
 261 115 261 115 189 115 c 128,-1,0
 117 115 117 115 117 187 c 128,-1,1
117 561 m 128,-1,5
 117 633 117 633 189 633 c 128,-1,6
 261 633 261 633 261 561 c 128,-1,7
 261 489 261 489 189 489 c 128,-1,4
 117 489 117 489 117 561 c 128,-1,5
15 309 m 1,8,-1
 15 433 l 1,9,-1
 347 433 l 1,10,-1
 363 417 l 1,11,-1
 363 326 l 1,12,-1
 346 309 l 1,13,-1
 15 309 l 1,8,-1
EndSplineSet
EndChar

StartChar: oslash
Encoding: 248 248 183
Width: 446
GlyphClass: 2
Flags: W
LayerCount: 2
Fore
SplineSet
81 25 m 1,0,1
 23 79 23 79 23 240.5 c 128,-1,2
 23 402 23 402 61.5 456 c 128,-1,3
 100 510 100 510 204 513 c 1,4,-1
 256 720 l 1,5,-1
 361 720 l 1,6,-1
 361 613 l 1,7,-1
 333 497 l 1,8,9
 382 476 382 476 402.5 419.5 c 128,-1,10
 423 363 423 363 423 250 c 0,11,12
 423 100 423 100 380 42 c 128,-1,13
 337 -16 337 -16 223 -16 c 2,14,-1
 212 -16 l 1,15,-1
 182 -146 l 1,16,-1
 46 -146 l 1,17,-1
 46 -114 l 1,18,-1
 81 25 l 1,0,1
159 250 m 0,19,20
 159 82 159 82 191 82 c 0,21,22
 235 82 235 82 256 96 c 0,23,24
 267 104 267 104 271 125 c 0,25,26
 279 167 279 167 279 250 c 0,27,28
 279 418 279 418 247 418 c 0,29,30
 187 418 187 418 173 390 c 128,-1,31
 159 362 159 362 159 250 c 0,19,20
EndSplineSet
EndChar

StartChar: ugrave
Encoding: 249 249 184
Width: 487
GlyphClass: 2
Flags: W
LayerCount: 2
Fore
SplineSet
185 -16 m 0,0,1
 111 -16 111 -16 76.5 30 c 128,-1,2
 42 76 42 76 42 192 c 2,3,-1
 42 496 l 2,4,5
 42 512 42 512 78.5 512 c 128,-1,6
 115 512 115 512 150 507 c 128,-1,7
 185 502 185 502 185 496 c 2,8,-1
 186 192 l 2,9,10
 186 80 186 80 202 80 c 0,11,12
 238 80 238 80 298 116 c 1,13,-1
 298 496 l 2,14,15
 298 512 298 512 334.5 512 c 128,-1,16
 371 512 371 512 406.5 507 c 128,-1,17
 442 502 442 502 442 496 c 2,18,-1
 442 0 l 2,19,20
 442 -6 442 -6 440 -8 c 0,21,22
 436 -16 436 -16 388.5 -16 c 128,-1,23
 341 -16 341 -16 330 0 c 2,24,-1
 309 31 l 1,25,26
 239 -16 239 -16 185 -16 c 0,0,1
263 557 m 1,27,-1
 217 536 l 1,28,-1
 57 708 l 1,29,-1
 165 768 l 1,30,-1
 207 736 l 1,31,-1
 264 612 l 1,32,-1
 263 557 l 1,27,-1
EndSplineSet
Substitution2: "'smcp' Lowercase to Small Capitals in Latin lookup 1 subtable" U_smcpgrave
EndChar

StartChar: uacute
Encoding: 250 250 185
Width: 487
GlyphClass: 2
Flags: W
LayerCount: 2
Fore
SplineSet
185 -16 m 0,0,1
 111 -16 111 -16 76.5 30 c 128,-1,2
 42 76 42 76 42 192 c 2,3,-1
 42 496 l 2,4,5
 42 512 42 512 78.5 512 c 128,-1,6
 115 512 115 512 150 507 c 128,-1,7
 185 502 185 502 185 496 c 2,8,-1
 186 192 l 2,9,10
 186 80 186 80 202 80 c 0,11,12
 238 80 238 80 298 116 c 1,13,-1
 298 496 l 2,14,15
 298 512 298 512 334.5 512 c 128,-1,16
 371 512 371 512 406.5 507 c 128,-1,17
 442 502 442 502 442 496 c 2,18,-1
 442 0 l 2,19,20
 442 -6 442 -6 440 -8 c 0,21,22
 436 -16 436 -16 388.5 -16 c 128,-1,23
 341 -16 341 -16 330 0 c 2,24,-1
 309 31 l 1,25,26
 239 -16 239 -16 185 -16 c 0,0,1
268 536 m 1,27,-1
 222 557 l 1,28,-1
 221 612 l 1,29,-1
 278 736 l 1,30,-1
 320 768 l 1,31,-1
 428 708 l 1,32,-1
 268 536 l 1,27,-1
EndSplineSet
Substitution2: "'smcp' Lowercase to Small Capitals in Latin lookup 1 subtable" U_smcpacute
EndChar

StartChar: ucircumflex
Encoding: 251 251 186
Width: 487
GlyphClass: 2
Flags: W
LayerCount: 2
Fore
SplineSet
185 -16 m 0,0,1
 111 -16 111 -16 76.5 30 c 128,-1,2
 42 76 42 76 42 192 c 2,3,-1
 42 496 l 2,4,5
 42 512 42 512 78.5 512 c 128,-1,6
 115 512 115 512 150 507 c 128,-1,7
 185 502 185 502 185 496 c 2,8,-1
 186 192 l 2,9,10
 186 80 186 80 202 80 c 0,11,12
 238 80 238 80 298 116 c 1,13,-1
 298 496 l 2,14,15
 298 512 298 512 334.5 512 c 128,-1,16
 371 512 371 512 406.5 507 c 128,-1,17
 442 502 442 502 442 496 c 2,18,-1
 442 0 l 2,19,20
 442 -6 442 -6 440 -8 c 0,21,22
 436 -16 436 -16 388.5 -16 c 128,-1,23
 341 -16 341 -16 330 0 c 2,24,-1
 309 31 l 1,25,26
 239 -16 239 -16 185 -16 c 0,0,1
118 572 m 1,27,-1
 79 604 l 1,28,-1
 92 658 l 1,29,-1
 194 748 l 1,30,-1
 243 768 l 1,31,-1
 292 748 l 1,32,-1
 394 658 l 1,33,-1
 407 604 l 1,34,-1
 368 572 l 1,35,-1
 243 653 l 1,36,-1
 118 572 l 1,27,-1
EndSplineSet
Substitution2: "'smcp' Lowercase to Small Capitals in Latin lookup 1 subtable" U_smcpcircunflex
EndChar

StartChar: udieresis
Encoding: 252 252 187
Width: 487
GlyphClass: 2
Flags: W
LayerCount: 2
Fore
SplineSet
185 -16 m 0,0,1
 111 -16 111 -16 76.5 30 c 128,-1,2
 42 76 42 76 42 192 c 2,3,-1
 42 496 l 2,4,5
 42 512 42 512 78.5 512 c 128,-1,6
 115 512 115 512 150 507 c 128,-1,7
 185 502 185 502 185 496 c 2,8,-1
 186 192 l 2,9,10
 186 80 186 80 202 80 c 0,11,12
 238 80 238 80 298 116 c 1,13,-1
 298 496 l 2,14,15
 298 512 298 512 334.5 512 c 128,-1,16
 371 512 371 512 406.5 507 c 128,-1,17
 442 502 442 502 442 496 c 2,18,-1
 442 0 l 2,19,20
 442 -6 442 -6 440 -8 c 0,21,22
 436 -16 436 -16 388.5 -16 c 128,-1,23
 341 -16 341 -16 330 0 c 2,24,-1
 309 31 l 1,25,26
 239 -16 239 -16 185 -16 c 0,0,1
288 696 m 128,-1,28
 288 768 288 768 360 768 c 128,-1,29
 432 768 432 768 432 696 c 128,-1,30
 432 624 432 624 360 624 c 128,-1,27
 288 624 288 624 288 696 c 128,-1,28
54 696 m 128,-1,32
 54 768 54 768 126 768 c 128,-1,33
 198 768 198 768 198 696 c 128,-1,34
 198 624 198 624 126 624 c 128,-1,31
 54 624 54 624 54 696 c 128,-1,32
EndSplineSet
Substitution2: "'smcp' Lowercase to Small Capitals in Latin lookup 1 subtable" U_smcpdieresis
EndChar

StartChar: yacute
Encoding: 253 253 188
Width: 460
GlyphClass: 2
Flags: W
LayerCount: 2
Fore
SplineSet
21 499 m 0,0,1
 21 512 21 512 57.5 512 c 128,-1,2
 94 512 94 512 125.5 507 c 128,-1,3
 157 502 157 502 158 496 c 2,4,-1
 247 154 l 1,5,-1
 325 496 l 2,6,7
 329 512 329 512 357 512 c 0,8,9
 412 512 412 512 430 506 c 128,-1,10
 448 500 448 500 448 497 c 2,11,-1
 248 -224 l 2,12,13
 244 -240 244 -240 216 -240 c 128,-1,14
 188 -240 188 -240 170 -238 c 0,15,16
 131 -233 131 -233 133 -224 c 0,17,18
 133 -221 133 -221 134 -219 c 2,19,-1
 185 0 l 1,20,-1
 22 494 l 1,21,-1
 22 496 l 1,22,23
 21 498 21 498 21 499 c 0,0,1
260 536 m 1,24,-1
 214 557 l 1,25,-1
 213 612 l 1,26,-1
 270 736 l 1,27,-1
 312 768 l 1,28,-1
 420 708 l 1,29,-1
 260 536 l 1,24,-1
EndSplineSet
Substitution2: "'smcp' Lowercase to Small Capitals in Latin lookup 1 subtable" Y_smcpacute
EndChar

StartChar: thorn
Encoding: 254 254 189
Width: 442
GlyphClass: 2
Flags: W
LayerCount: 2
Fore
SplineSet
227 512 m 2,0,1
 348 512 348 512 391.5 458.5 c 128,-1,2
 435 405 435 405 435 255 c 128,-1,3
 435 105 435 105 400.5 44.5 c 128,-1,4
 366 -16 366 -16 292 -16 c 0,5,6
 265 -16 265 -16 180 -5 c 1,7,-1
 180 -223 l 2,8,9
 180 -229 180 -229 178 -232 c 0,10,11
 174 -239 174 -239 140.5 -239 c 128,-1,12
 107 -239 107 -239 76 -234 c 128,-1,13
 45 -229 45 -229 45 -222 c 2,14,-1
 45 752 l 2,15,16
 45 768 45 768 80.5 768 c 128,-1,17
 116 768 116 768 139 763.5 c 128,-1,18
 162 759 162 759 162 752 c 2,19,-1
 175 512 l 1,20,-1
 227 512 l 2,0,1
227 416 m 2,21,-1
 180 416 l 1,22,-1
 180 80 l 1,23,-1
 275 80 l 2,24,25
 286 80 286 80 288.5 122.5 c 128,-1,26
 291 165 291 165 291 260 c 128,-1,27
 291 355 291 355 277.5 385.5 c 128,-1,28
 264 416 264 416 227 416 c 2,21,-1
EndSplineSet
EndChar

StartChar: ydieresis
Encoding: 255 255 190
Width: 460
GlyphClass: 2
Flags: W
LayerCount: 2
Fore
SplineSet
21 499 m 0,0,1
 21 512 21 512 57.5 512 c 128,-1,2
 94 512 94 512 125.5 507 c 128,-1,3
 157 502 157 502 158 496 c 2,4,-1
 247 154 l 1,5,-1
 325 496 l 2,6,7
 329 512 329 512 357 512 c 0,8,9
 412 512 412 512 430 506 c 128,-1,10
 448 500 448 500 448 497 c 2,11,-1
 248 -224 l 2,12,13
 244 -240 244 -240 216 -240 c 128,-1,14
 188 -240 188 -240 170 -238 c 0,15,16
 131 -233 131 -233 133 -224 c 0,17,18
 133 -221 133 -221 134 -219 c 2,19,-1
 185 0 l 1,20,-1
 22 494 l 1,21,-1
 22 496 l 1,22,23
 21 498 21 498 21 499 c 0,0,1
41 696 m 128,-1,25
 41 768 41 768 113 768 c 128,-1,26
 185 768 185 768 185 696 c 128,-1,27
 185 624 185 624 113 624 c 128,-1,24
 41 624 41 624 41 696 c 128,-1,25
275 696 m 128,-1,29
 275 768 275 768 347 768 c 128,-1,30
 419 768 419 768 419 696 c 128,-1,31
 419 624 419 624 347 624 c 128,-1,28
 275 624 275 624 275 696 c 128,-1,29
EndSplineSet
Substitution2: "'smcp' Lowercase to Small Capitals in Latin lookup 1 subtable" Y_smcpdieresis
EndChar

StartChar: dotlessi
Encoding: 305 305 191
Width: 228
GlyphClass: 2
Flags: W
LayerCount: 2
Fore
SplineSet
47 0 m 2,0,-1
 47 496 l 2,1,2
 47 512 47 512 83 512 c 128,-1,3
 119 512 119 512 151 507 c 128,-1,4
 183 502 183 502 183 496 c 2,5,-1
 183 0 l 2,6,7
 183 -6 183 -6 182 -8 c 0,8,9
 177 -16 177 -16 144 -16 c 128,-1,10
 111 -16 111 -16 79 -11 c 128,-1,11
 47 -6 47 -6 47 0 c 2,0,-1
EndSplineSet
EndChar

StartChar: Lslash
Encoding: 321 321 192
Width: 542
GlyphClass: 2
Flags: W
LayerCount: 2
Fore
SplineSet
146 731 m 2,0,1
 146 753 146 753 156.5 760.5 c 128,-1,2
 167 768 167 768 197 768 c 0,3,4
 269 768 269 768 270 732 c 2,5,-1
 284 451 l 1,6,-1
 375 476 l 1,7,-1
 395 464 l 1,8,-1
 418 376 l 1,9,-1
 406 356 l 1,10,-1
 285 323 l 1,11,-1
 286 121 l 1,12,-1
 480 121 l 2,13,14
 529 121 529 121 529 85 c 0,15,16
 529 20 529 20 510 7 c 0,17,18
 500 0 500 0 484 0 c 2,19,-1
 162 0 l 1,20,-1
 146 16 l 1,21,-1
 146 286 l 1,22,-1
 50 260 l 1,23,-1
 18 380 l 1,24,-1
 146 414 l 1,25,-1
 146 731 l 2,0,1
EndSplineSet
EndChar

StartChar: lslash
Encoding: 322 322 193
Width: 454
GlyphClass: 2
Flags: W
LayerCount: 2
Fore
SplineSet
292 0 m 2,0,1
 292 -6 292 -6 290 -8 c 0,2,3
 286 -16 286 -16 253 -16 c 128,-1,4
 220 -16 220 -16 188.5 -11 c 128,-1,5
 157 -6 157 -6 157 0 c 2,6,-1
 157 289 l 1,7,-1
 54 261 l 1,8,-1
 38 277 l 1,9,-1
 11 378 l 1,10,-1
 157 417 l 1,11,-1
 157 752 l 2,12,13
 157 768 157 768 192 768 c 128,-1,14
 227 768 227 768 250 763.5 c 128,-1,15
 273 759 273 759 274 752 c 2,16,-1
 291 453 l 1,17,-1
 398 482 l 1,18,-1
 417 471 l 1,19,-1
 445 367 l 1,20,-1
 292 325 l 1,21,-1
 292 0 l 2,0,1
EndSplineSet
EndChar

StartChar: OE
Encoding: 338 338 194
Width: 813
GlyphClass: 2
Flags: W
LayerCount: 2
Fore
SplineSet
37 371 m 0,0,1
 37 530 37 530 62 611 c 128,-1,2
 87 692 87 692 141 722 c 128,-1,3
 195 752 195 752 299 752 c 2,4,-1
 772 752 l 1,5,6
 815 751 815 751 815 720 c 1,7,8
 814 693 814 693 812 677.5 c 128,-1,9
 810 662 810 662 799.5 647 c 128,-1,10
 789 632 789 632 769 632 c 2,11,-1
 529 632 l 1,12,13
 552 570 552 570 558 455 c 1,14,-1
 750 455 l 2,15,16
 790 455 790 455 790 419 c 0,17,18
 790 370 790 370 784 352 c 128,-1,19
 778 334 778 334 753 334 c 2,20,-1
 559 334 l 1,21,22
 556 196 556 196 530 121 c 1,23,-1
 788 121 l 1,24,25
 812 120 812 120 821 111.5 c 128,-1,26
 830 103 830 103 830 86 c 0,27,28
 830 37 830 37 821 18.5 c 128,-1,29
 812 0 812 0 785 0 c 2,30,-1
 433 0 l 1,31,32
 362 -16 362 -16 299 -16 c 0,33,34
 150 -16 150 -16 93.5 68 c 128,-1,35
 37 152 37 152 37 371 c 0,0,1
197 481.5 m 128,-1,37
 196 443 196 443 196 351 c 128,-1,38
 196 259 196 259 202 197 c 128,-1,39
 208 135 208 135 218 115.5 c 128,-1,40
 228 96 228 96 245 96 c 0,41,42
 333 96 333 96 360 114 c 0,43,44
 370 121 370 121 379.5 137 c 128,-1,45
 389 153 389 153 393 170 c 128,-1,46
 397 187 397 187 400 220 c 0,47,48
 404 263 404 263 404 374.5 c 128,-1,49
 404 486 404 486 398.5 550.5 c 128,-1,50
 393 615 393 615 382.5 638.5 c 128,-1,51
 372 662 372 662 355 662 c 0,52,53
 315 662 315 662 290.5 658.5 c 128,-1,54
 266 655 266 655 247 641.5 c 128,-1,55
 228 628 228 628 219 611.5 c 128,-1,56
 210 595 210 595 204 557.5 c 128,-1,36
 198 520 198 520 197 481.5 c 128,-1,37
EndSplineSet
EndChar

StartChar: oe
Encoding: 339 339 195
Width: 716
GlyphClass: 2
Flags: W
LayerCount: 2
Fore
SplineSet
485 -16 m 0,0,1
 408 -16 408 -16 366 13 c 1,2,3
 322 -16 322 -16 240 -16 c 0,4,5
 126 -16 126 -16 83 42 c 128,-1,6
 40 100 40 100 40 250 c 0,7,8
 40 359 40 359 59 415 c 128,-1,9
 78 471 78 471 119 491.5 c 128,-1,10
 160 512 160 512 242 512 c 128,-1,11
 324 512 324 512 365 488 c 1,12,13
 404 512 404 512 482 512 c 128,-1,14
 560 512 560 512 598.5 491 c 128,-1,15
 637 470 637 470 655 413 c 128,-1,16
 673 356 673 356 673 251 c 0,17,18
 673 245 673 245 673 239 c 128,-1,19
 673 233 673 233 649.5 228 c 128,-1,20
 626 223 626 223 593 223 c 2,21,-1
 440 223 l 1,22,-1
 439 220 l 1,23,24
 441 106 441 106 456 90 c 1,25,26
 465 82 465 82 485 82 c 0,27,28
 616 82 616 82 664 95 c 0,29,30
 666 96 666 96 667 96 c 0,31,32
 674 98 674 98 678.5 88 c 128,-1,33
 683 78 683 78 683 41 c 128,-1,34
 683 4 683 4 667 0 c 1,35,36
 626 -16 626 -16 485 -16 c 0,0,1
176 250 m 0,37,38
 176 82 176 82 208 82 c 0,39,40
 247 82 247 82 263.5 90 c 128,-1,41
 280 98 280 98 287.5 124 c 128,-1,42
 295 150 295 150 296 211 c 1,43,44
 295 223 295 223 295 250 c 2,45,-1
 295 286 l 1,46,47
 293 416 293 416 264 416 c 0,48,49
 204 416 204 416 190 388.5 c 128,-1,50
 176 361 176 361 176 250 c 0,37,38
439 381 m 2,51,-1
 439 303 l 1,52,-1
 540 303 l 1,53,54
 536 419 536 419 517 419 c 0,55,56
 483 419 483 419 461 409 c 128,-1,57
 439 399 439 399 439 381 c 2,51,-1
EndSplineSet
Substitution2: "'smcp' Lowercase to Small Capitals in Latin lookup 1 subtable" OE_smcp
EndChar

StartChar: Scaron
Encoding: 352 352 196
Width: 516
GlyphClass: 2
Flags: W
LayerCount: 2
Fore
SplineSet
93 1001 m 1,0,-1
 132 1033 l 1,1,-1
 257 951 l 1,2,-1
 382 1033 l 1,3,-1
 421 1001 l 1,4,-1
 408 947 l 1,5,-1
 306 857 l 1,6,-1
 257 837 l 1,7,-1
 208 857 l 1,8,-1
 106 947 l 1,9,-1
 93 1001 l 1,0,-1
27 112.5 m 128,-1,11
 27 126 27 126 50.5 149.5 c 128,-1,12
 74 173 74 173 81.5 175 c 128,-1,13
 89 177 89 177 96 177 c 128,-1,14
 103 177 103 177 119 168 c 1,15,16
 193 110 193 110 249 110 c 128,-1,17
 305 110 305 110 322 136 c 128,-1,18
 339 162 339 162 339 204 c 128,-1,19
 339 246 339 246 309 272 c 128,-1,20
 279 298 279 298 210.5 335 c 128,-1,21
 142 372 142 372 91 431 c 128,-1,22
 40 490 40 490 40 553 c 0,23,24
 40 665 40 665 98.5 716.5 c 128,-1,25
 157 768 157 768 270 768 c 0,26,27
 339 768 339 768 405 735 c 1,28,29
 440 721 440 721 438 706 c 0,30,31
 437 700 437 700 436 688 c 1,32,33
 417 634 417 634 407 626 c 0,34,35
 404 624 404 624 393.5 624 c 128,-1,36
 383 624 383 624 338 640.5 c 128,-1,37
 293 657 293 657 261.5 657 c 128,-1,38
 230 657 230 657 209 635 c 128,-1,39
 188 613 188 613 188 573 c 128,-1,40
 188 533 188 533 224 500.5 c 128,-1,41
 260 468 260 468 335 433 c 1,42,43
 414 392 414 392 453.5 348 c 128,-1,44
 493 304 493 304 493 230 c 0,45,46
 493 -16 493 -16 285 -16 c 0,47,48
 130 -16 130 -16 48 73 c 1,49,10
 27 99 27 99 27 112.5 c 128,-1,11
EndSplineSet
EndChar

StartChar: scaron
Encoding: 353 353 197
Width: 421
GlyphClass: 2
Flags: W
LayerCount: 2
Fore
SplineSet
43 729 m 1,0,-1
 82 761 l 1,1,-1
 207 679 l 1,2,-1
 332 761 l 1,3,-1
 371 729 l 1,4,-1
 358 675 l 1,5,-1
 256 585 l 1,6,-1
 207 565 l 1,7,-1
 158 585 l 1,8,-1
 56 675 l 1,9,-1
 43 729 l 1,0,-1
323 378 m 1,10,-1
 317 380 l 1,11,-1
 279 399 l 1,12,13
 236 416 236 416 205 416 c 1,14,15
 160 414 160 414 160 373 c 0,16,17
 160 357 160 357 177.5 347 c 128,-1,18
 195 337 195 337 206 331.5 c 128,-1,19
 217 326 217 326 238 316 c 0,20,21
 313 284 313 284 349.5 245 c 128,-1,22
 386 206 386 206 386 168 c 0,23,24
 386 85 386 85 342 34.5 c 128,-1,25
 298 -16 298 -16 222.5 -16 c 128,-1,26
 147 -16 147 -16 104 4 c 128,-1,27
 61 24 61 24 32 61 c 1,28,29
 28 63 28 63 28 67 c 128,-1,30
 28 71 28 71 29.5 77 c 128,-1,31
 31 83 31 83 53 109.5 c 128,-1,32
 75 136 75 136 88 136 c 0,33,34
 92 136 92 136 96 132 c 0,35,36
 149 90 149 90 199 90 c 0,37,38
 227 90 227 90 241 106 c 128,-1,39
 255 122 255 122 255 141 c 128,-1,40
 255 160 255 160 239 172 c 128,-1,41
 223 184 223 184 199.5 195.5 c 128,-1,42
 176 207 176 207 174 208 c 128,-1,43
 172 209 172 209 168.5 211 c 128,-1,44
 165 213 165 213 162 214 c 0,45,46
 111 239 111 239 75.5 276.5 c 128,-1,47
 40 314 40 314 40 360 c 0,48,49
 40 440 40 440 81.5 476 c 128,-1,50
 123 512 123 512 213 512 c 0,51,52
 247 512 247 512 278 504 c 0,53,54
 320 493 320 493 338 478 c 1,55,-1
 339 478 l 1,56,57
 347 473 347 473 348.5 466 c 128,-1,58
 350 459 350 459 347 436 c 0,59,60
 337 378 337 378 323 378 c 1,10,-1
EndSplineSet
EndChar

StartChar: Ydieresis
Encoding: 376 376 198
Width: 567
GlyphClass: 2
Flags: W
LayerCount: 2
Fore
SplineSet
104 952 m 128,-1,1
 104 1024 104 1024 176 1024 c 128,-1,2
 248 1024 248 1024 248 952 c 128,-1,3
 248 880 248 880 176 880 c 128,-1,0
 104 880 104 880 104 952 c 128,-1,1
338 952 m 128,-1,5
 338 1024 338 1024 410 1024 c 128,-1,6
 482 1024 482 1024 482 952 c 128,-1,7
 482 880 482 880 410 880 c 128,-1,4
 338 880 338 880 338 952 c 128,-1,5
14 745 m 0,8,9
 14 768 14 768 80 768 c 128,-1,10
 146 768 146 768 161 731 c 1,11,-1
 298 492 l 1,12,-1
 417 734 l 1,13,14
 425 754 425 754 439 761 c 128,-1,15
 453 768 453 768 483 768 c 0,16,17
 551 768 551 768 551 743 c 0,18,19
 551 737 551 737 548 731 c 2,20,-1
 353 349 l 1,21,-1
 353 21 l 2,22,23
 353 4 353 4 352 -2 c 0,24,25
 348 -16 348 -16 313 -16 c 0,26,27
 236 -16 236 -16 236 22 c 2,28,-1
 236 349 l 1,29,-1
 18 732 l 2,30,31
 14 739 14 739 14 745 c 0,8,9
EndSplineSet
EndChar

StartChar: Zcaron
Encoding: 381 381 199
Width: 503
GlyphClass: 2
Flags: W
LayerCount: 2
Fore
SplineSet
91 992 m 1,0,-1
 130 1024 l 1,1,-1
 255 943 l 1,2,-1
 380 1024 l 1,3,-1
 419 992 l 1,4,-1
 406 938 l 1,5,-1
 304 848 l 1,6,-1
 255 828 l 1,7,-1
 206 848 l 1,8,-1
 104 938 l 1,9,-1
 91 992 l 1,0,-1
442 0 m 2,10,-1
 52 0 l 1,11,-1
 36 16 l 1,12,-1
 36 122 l 1,13,-1
 320 632 l 1,14,-1
 64 632 l 1,15,16
 38 633 38 633 30 644 c 1,17,18
 22 658 22 658 22 690.5 c 128,-1,19
 22 723 22 723 29 737.5 c 128,-1,20
 36 752 36 752 59 752 c 2,21,-1
 461 752 l 1,22,-1
 477 736 l 1,23,-1
 477 648 l 1,24,-1
 200 121 l 1,25,-1
 437 121 l 1,26,27
 470 120 470 120 481.5 112.5 c 128,-1,28
 493 105 493 105 493 89 c 0,29,30
 491 0 491 0 442 0 c 2,10,-1
EndSplineSet
EndChar

StartChar: zcaron
Encoding: 382 382 200
Width: 414
GlyphClass: 2
Flags: W
LayerCount: 2
Fore
SplineSet
50 390 m 2,0,1
 35 390 35 390 35 437 c 0,2,3
 35 440 35 440 35 443 c 0,4,5
 35 496 35 496 50 496 c 2,6,-1
 346 496 l 1,7,-1
 362 480 l 1,8,-1
 362 390 l 1,9,-1
 188 112 l 1,10,-1
 378 112 l 2,11,12
 394 112 394 112 394 72 c 0,13,14
 394 2 394 2 378 0 c 1,15,-1
 58 0 l 1,16,-1
 42 16 l 1,17,-1
 42 96 l 1,18,-1
 236 390 l 1,19,-1
 50 390 l 2,0,1
43 729 m 1,20,-1
 82 761 l 1,21,-1
 207 679 l 1,22,-1
 332 761 l 1,23,-1
 371 729 l 1,24,-1
 358 675 l 1,25,-1
 256 585 l 1,26,-1
 207 565 l 1,27,-1
 158 585 l 1,28,-1
 56 675 l 1,29,-1
 43 729 l 1,20,-1
EndSplineSet
EndChar

StartChar: florin
Encoding: 402 402 201
Width: 567
GlyphClass: 2
Flags: W
LayerCount: 2
Fore
SplineSet
491 654 m 1,0,1
 462 667 462 667 421 667 c 128,-1,2
 380 667 380 667 368 629 c 128,-1,3
 356 591 356 591 356 496 c 1,4,-1
 452 496 l 1,5,-1
 452 416 l 1,6,-1
 364 416 l 1,7,-1
 364 -70 l 2,8,9
 364 -179 364 -179 344.5 -235 c 128,-1,10
 325 -291 325 -291 281.5 -312.5 c 128,-1,11
 238 -334 238 -334 154 -334 c 0,12,13
 111 -334 111 -334 74 -324 c 128,-1,14
 37 -314 37 -314 25.5 -302.5 c 128,-1,15
 14 -291 14 -291 11 -224 c 1,16,-1
 98 -224 l 1,17,18
 126 -233 126 -233 161 -233 c 128,-1,19
 196 -233 196 -233 208 -199 c 128,-1,20
 220 -165 220 -165 220 -75 c 2,21,-1
 220 416 l 1,22,-1
 140 416 l 1,23,-1
 140 480 l 1,24,-1
 220 496 l 1,25,26
 220 657 220 657 264 712.5 c 128,-1,27
 308 768 308 768 430 768 c 0,28,29
 466 768 466 768 497 759.5 c 128,-1,30
 528 751 528 751 542 742 c 2,31,-1
 555 734 l 1,32,-1
 531 654 l 1,33,-1
 491 654 l 1,0,1
EndSplineSet
EndChar

StartChar: circumflex
Encoding: 710 710 202
Width: 379
GlyphClass: 2
Flags: W
LayerCount: 2
Fore
SplineSet
65 572 m 1,0,-1
 26 604 l 1,1,-1
 39 658 l 1,2,-1
 141 748 l 1,3,-1
 190 768 l 1,4,-1
 239 748 l 1,5,-1
 341 658 l 1,6,-1
 354 604 l 1,7,-1
 315 572 l 1,8,-1
 190 653 l 1,9,-1
 65 572 l 1,0,-1
EndSplineSet
EndChar

StartChar: caron
Encoding: 711 711 203
Width: 377
GlyphClass: 2
Flags: W
LayerCount: 2
Fore
SplineSet
25 729 m 1,0,-1
 64 761 l 1,1,-1
 189 679 l 1,2,-1
 314 761 l 1,3,-1
 353 729 l 1,4,-1
 340 675 l 1,5,-1
 238 585 l 1,6,-1
 189 565 l 1,7,-1
 140 585 l 1,8,-1
 38 675 l 1,9,-1
 25 729 l 1,0,-1
EndSplineSet
EndChar

StartChar: breve
Encoding: 728 728 204
Width: 305
GlyphClass: 2
Flags: W
LayerCount: 2
Fore
SplineSet
157 599 m 0,0,1
 155 599 155 599 153 599 c 0,2,3
 32 599 32 599 34 718 c 1,4,-1
 108 720 l 1,5,6
 106 677 106 677 152 674 c 1,7,8
 196 674 196 674 196 714 c 0,9,10
 196 717 196 717 196 721 c 1,11,-1
 273 719 l 1,12,13
 270 664 270 664 243.5 631.5 c 128,-1,14
 217 599 217 599 157 599 c 0,0,1
EndSplineSet
EndChar

StartChar: dotaccent
Encoding: 729 729 205
Width: 214
GlyphClass: 2
Flags: W
LayerCount: 2
Fore
SplineSet
35 696 m 128,-1,1
 35 768 35 768 107 768 c 128,-1,2
 179 768 179 768 179 696 c 128,-1,3
 179 624 179 624 107 624 c 128,-1,0
 35 624 35 624 35 696 c 128,-1,1
EndSplineSet
EndChar

StartChar: ring
Encoding: 730 730 206
Width: 262
GlyphClass: 2
Flags: W
LayerCount: 2
Fore
SplineSet
35 656 m 128,-1,1
 35 752 35 752 131 752 c 128,-1,2
 227 752 227 752 227 656 c 128,-1,3
 227 560 227 560 131 560 c 128,-1,0
 35 560 35 560 35 656 c 128,-1,1
96 656 m 128,-1,5
 96 621 96 621 131 621 c 128,-1,6
 166 621 166 621 166 656 c 128,-1,7
 166 691 166 691 131 691 c 128,-1,4
 96 691 96 691 96 656 c 128,-1,5
EndSplineSet
EndChar

StartChar: ogonek
Encoding: 731 731 207
Width: 224
GlyphClass: 2
Flags: W
LayerCount: 2
Fore
SplineSet
198 0 m 1,0,-1
 198 -122 l 1,1,-1
 140 -122 l 2,2,3
 96 -122 96 -122 96 -166.5 c 128,-1,4
 96 -211 96 -211 140 -211 c 1,5,-1
 140 -286 l 1,6,7
 20 -286 20 -286 20 -167 c 128,-1,8
 20 -48 20 -48 140 -46 c 1,9,-1
 140 0 l 1,10,-1
 198 0 l 1,0,-1
EndSplineSet
EndChar

StartChar: tilde
Encoding: 732 732 208
Width: 441
GlyphClass: 2
Flags: W
LayerCount: 2
Fore
SplineSet
392 628 m 1,0,1
 385 628 385 628 346.5 628 c 128,-1,2
 308 628 308 628 235 618 c 128,-1,3
 162 608 162 608 112 608 c 128,-1,4
 62 608 62 608 48.5 617.5 c 128,-1,5
 35 627 35 627 35 660 c 1,6,-1
 60 711 l 1,7,8
 135 711 135 711 200.5 720 c 128,-1,9
 266 729 266 729 319 729 c 128,-1,10
 372 729 372 729 390 718.5 c 128,-1,11
 408 708 408 708 408 673 c 1,12,-1
 392 628 l 1,0,1
EndSplineSet
EndChar

StartChar: hungarumlaut
Encoding: 733 733 209
Width: 514
GlyphClass: 2
Flags: W
LayerCount: 2
Fore
SplineSet
102 550 m 1,0,-1
 31 582 l 1,1,-1
 44 636 l 1,2,-1
 131 741 l 1,3,-1
 180 761 l 1,4,-1
 237 675 l 1,5,-1
 102 550 l 1,0,-1
350 550 m 1,6,-1
 279 582 l 1,7,-1
 292 636 l 1,8,-1
 379 741 l 1,9,-1
 428 761 l 1,10,-1
 485 675 l 1,11,-1
 350 550 l 1,6,-1
EndSplineSet
EndChar

StartChar: endash
Encoding: 8211 8211 210
Width: 556
GlyphClass: 2
Flags: W
LayerCount: 2
Fore
SplineSet
511 308 m 1,0,-1
 61 308 l 1,1,-1
 45 324 l 1,2,-1
 45 432 l 1,3,-1
 495 432 l 1,4,-1
 511 416 l 1,5,-1
 511 308 l 1,0,-1
EndSplineSet
EndChar

StartChar: emdash
Encoding: 8212 8212 211
Width: 745
GlyphClass: 2
Flags: W
LayerCount: 2
Fore
SplineSet
700 308 m 1,0,-1
 61 308 l 1,1,-1
 45 324 l 1,2,-1
 45 432 l 1,3,-1
 684 432 l 1,4,-1
 700 416 l 1,5,-1
 700 308 l 1,0,-1
EndSplineSet
EndChar

StartChar: quoteleft
Encoding: 8216 8216 212
Width: 217
GlyphClass: 2
Flags: W
LayerCount: 2
Fore
SplineSet
120 768 m 1,0,-1
 170 759 l 1,1,-1
 185 706 l 1,2,-1
 162 572 l 1,3,-1
 130 530 l 1,4,-1
 10 560 l 1,5,-1
 120 768 l 1,0,-1
EndSplineSet
EndChar

StartChar: quoteright
Encoding: 8217 8217 213
Width: 216
GlyphClass: 2
Flags: W
LayerCount: 2
Fore
SplineSet
97 530 m 1,0,-1
 47 539 l 1,1,-1
 32 592 l 1,2,-1
 55 726 l 1,3,-1
 87 768 l 1,4,-1
 207 738 l 1,5,-1
 97 530 l 1,0,-1
EndSplineSet
EndChar

StartChar: quotesinglbase
Encoding: 8218 8218 214
Width: 197
GlyphClass: 2
Flags: W
LayerCount: 2
Fore
SplineSet
40 56 m 0,0,1
 40 128 40 128 112 128 c 128,-1,2
 184 128 184 128 184 56 c 0,3,4
 184 17 184 17 165 0 c 1,5,-1
 65 -128 l 1,6,-1
 39 -111 l 1,7,-1
 39 -42 l 1,8,-1
 57 3 l 1,9,10
 40 20 40 20 40 56 c 0,0,1
EndSplineSet
EndChar

StartChar: quotedblleft
Encoding: 8220 8220 215
Width: 450
GlyphClass: 2
Flags: W
LayerCount: 2
Fore
SplineSet
136 768 m 1,0,-1
 186 759 l 1,1,-1
 201 706 l 1,2,-1
 178 572 l 1,3,-1
 146 530 l 1,4,-1
 26 560 l 1,5,-1
 136 768 l 1,0,-1
346 768 m 1,6,-1
 396 759 l 1,7,-1
 411 706 l 1,8,-1
 388 572 l 1,9,-1
 356 530 l 1,10,-1
 236 560 l 1,11,-1
 346 768 l 1,6,-1
EndSplineSet
EndChar

StartChar: quotedblright
Encoding: 8221 8221 216
Width: 450
GlyphClass: 2
Flags: W
LayerCount: 2
Fore
SplineSet
104 530 m 1,0,-1
 54 539 l 1,1,-1
 39 592 l 1,2,-1
 62 726 l 1,3,-1
 94 768 l 1,4,-1
 214 738 l 1,5,-1
 104 530 l 1,0,-1
314 530 m 1,6,-1
 264 539 l 1,7,-1
 249 592 l 1,8,-1
 272 726 l 1,9,-1
 304 768 l 1,10,-1
 424 738 l 1,11,-1
 314 530 l 1,6,-1
EndSplineSet
EndChar

StartChar: quotedblbase
Encoding: 8222 8222 217
Width: 458
GlyphClass: 2
Flags: W
LayerCount: 2
Fore
SplineSet
44 56 m 0,0,1
 44 128 44 128 116 128 c 128,-1,2
 188 128 188 128 188 56 c 0,3,4
 188 17 188 17 169 0 c 1,5,-1
 69 -128 l 1,6,-1
 43 -111 l 1,7,-1
 43 -42 l 1,8,-1
 61 3 l 1,9,10
 44 20 44 20 44 56 c 0,0,1
284 56 m 0,11,12
 284 128 284 128 356 128 c 128,-1,13
 428 128 428 128 428 56 c 0,14,15
 428 17 428 17 409 0 c 1,16,-1
 309 -128 l 1,17,-1
 283 -111 l 1,18,-1
 283 -42 l 1,19,-1
 301 3 l 1,20,21
 284 20 284 20 284 56 c 0,11,12
EndSplineSet
EndChar

StartChar: dagger
Encoding: 8224 8224 218
Width: 375
GlyphClass: 2
Flags: W
LayerCount: 2
Fore
SplineSet
364 512 m 1,0,-1
 256 512 l 1,1,-1
 256 -146 l 1,2,-1
 132 -146 l 1,3,-1
 116 -130 l 1,4,-1
 121 512 l 1,5,-1
 28 512 l 1,6,-1
 12 528 l 1,7,-1
 12 636 l 1,8,-1
 122 636 l 1,9,-1
 124 905 l 1,10,-1
 224 905 l 1,11,-1
 240 889 l 1,12,-1
 256 636 l 1,13,-1
 348 636 l 1,14,-1
 364 620 l 1,15,-1
 364 512 l 1,0,-1
EndSplineSet
EndChar

StartChar: daggerdbl
Encoding: 8225 8225 219
Width: 381
GlyphClass: 2
Flags: W
LayerCount: 2
Fore
SplineSet
365 127 m 1,0,-1
 259 127 l 1,1,-1
 259 -146 l 1,2,-1
 135 -146 l 1,3,-1
 119 -130 l 1,4,-1
 121 127 l 1,5,-1
 31 127 l 1,6,-1
 15 143 l 1,7,-1
 15 251 l 1,8,-1
 122 251 l 1,9,-1
 124 512 l 1,10,-1
 31 512 l 1,11,-1
 15 528 l 1,12,-1
 15 636 l 1,13,-1
 125 636 l 1,14,-1
 127 905 l 1,15,-1
 227 905 l 1,16,-1
 243 889 l 1,17,-1
 259 636 l 1,18,-1
 351 636 l 1,19,-1
 367 620 l 1,20,-1
 367 512 l 1,21,-1
 259 512 l 1,22,-1
 259 251 l 1,23,-1
 349 251 l 1,24,-1
 365 235 l 1,25,-1
 365 127 l 1,0,-1
EndSplineSet
EndChar

StartChar: bullet
Encoding: 8226 8226 220
Width: 262
GlyphClass: 2
Flags: W
LayerCount: 2
Fore
SplineSet
35 295 m 128,-1,1
 35 391 35 391 131 391 c 128,-1,2
 227 391 227 391 227 295 c 128,-1,3
 227 199 227 199 131 199 c 128,-1,0
 35 199 35 199 35 295 c 128,-1,1
EndSplineSet
EndChar

StartChar: ellipsis
Encoding: 8230 8230 221
Width: 710
GlyphClass: 2
Flags: W
LayerCount: 2
Fore
SplineSet
43 56 m 128,-1,1
 43 128 43 128 115 128 c 128,-1,2
 187 128 187 128 187 56 c 128,-1,3
 187 -16 187 -16 115 -16 c 128,-1,0
 43 -16 43 -16 43 56 c 128,-1,1
283 56 m 128,-1,5
 283 128 283 128 355 128 c 128,-1,6
 427 128 427 128 427 56 c 128,-1,7
 427 -16 427 -16 355 -16 c 128,-1,4
 283 -16 283 -16 283 56 c 128,-1,5
523 56 m 128,-1,9
 523 128 523 128 595 128 c 128,-1,10
 667 128 667 128 667 56 c 128,-1,11
 667 -16 667 -16 595 -16 c 128,-1,8
 523 -16 523 -16 523 56 c 128,-1,9
EndSplineSet
EndChar

StartChar: perthousand
Encoding: 8240 8240 222
Width: 975
GlyphClass: 2
Flags: W
LayerCount: 2
Fore
SplineSet
502 720 m 1,0,-1
 502 613 l 1,1,-1
 310 0 l 1,2,-1
 200 0 l 1,3,-1
 184 16 l 1,4,-1
 413 720 l 1,5,-1
 502 720 l 1,0,-1
30 538 m 128,-1,7
 30 623 30 623 58.5 656.5 c 128,-1,8
 87 690 87 690 150 690 c 128,-1,9
 213 690 213 690 241.5 656.5 c 128,-1,10
 270 623 270 623 270 538 c 128,-1,11
 270 453 270 453 241.5 419.5 c 128,-1,12
 213 386 213 386 150 386 c 128,-1,13
 87 386 87 386 58.5 419.5 c 128,-1,6
 30 453 30 453 30 538 c 128,-1,7
113 538 m 0,14,15
 113 469 113 469 150 469 c 128,-1,16
 187 469 187 469 187 543 c 0,17,18
 187 584 187 584 180.5 595.5 c 128,-1,19
 174 607 174 607 154 607 c 128,-1,20
 134 607 134 607 123.5 587 c 128,-1,21
 113 567 113 567 113 538 c 0,14,15
438 168 m 128,-1,23
 438 253 438 253 466.5 286.5 c 128,-1,24
 495 320 495 320 558 320 c 128,-1,25
 621 320 621 320 649.5 286.5 c 128,-1,26
 678 253 678 253 678 168 c 128,-1,27
 678 83 678 83 649.5 49.5 c 128,-1,28
 621 16 621 16 558 16 c 128,-1,29
 495 16 495 16 466.5 49.5 c 128,-1,22
 438 83 438 83 438 168 c 128,-1,23
521 168 m 0,30,31
 521 99 521 99 558 99 c 128,-1,32
 595 99 595 99 595 173 c 0,33,34
 595 214 595 214 588.5 225.5 c 128,-1,35
 582 237 582 237 562 237 c 128,-1,36
 542 237 542 237 531.5 217 c 128,-1,37
 521 197 521 197 521 168 c 0,30,31
719 168 m 128,-1,39
 719 253 719 253 747.5 286.5 c 128,-1,40
 776 320 776 320 839 320 c 128,-1,41
 902 320 902 320 930.5 286.5 c 128,-1,42
 959 253 959 253 959 168 c 128,-1,43
 959 83 959 83 930.5 49.5 c 128,-1,44
 902 16 902 16 839 16 c 128,-1,45
 776 16 776 16 747.5 49.5 c 128,-1,38
 719 83 719 83 719 168 c 128,-1,39
802 168 m 0,46,47
 802 99 802 99 839 99 c 128,-1,48
 876 99 876 99 876 173 c 0,49,50
 876 214 876 214 869.5 225.5 c 128,-1,51
 863 237 863 237 843 237 c 128,-1,52
 823 237 823 237 812.5 217 c 128,-1,53
 802 197 802 197 802 168 c 0,46,47
EndSplineSet
EndChar

StartChar: guilsinglleft
Encoding: 8249 8249 223
Width: 335
GlyphClass: 2
Flags: W
LayerCount: 2
Fore
SplineSet
301 195 m 1,0,-1
 269 156 l 1,1,-1
 215 169 l 1,2,-1
 29 335 l 1,3,-1
 9 384 l 1,4,-1
 29 433 l 1,5,-1
 199 599 l 1,6,-1
 253 612 l 1,7,-1
 285 573 l 1,8,-1
 124 384 l 1,9,-1
 301 195 l 1,0,-1
EndSplineSet
EndChar

StartChar: guilsinglright
Encoding: 8250 8250 224
Width: 335
GlyphClass: 2
Flags: W
LayerCount: 2
Fore
SplineSet
66 156 m 1,0,-1
 34 195 l 1,1,-1
 211 384 l 1,2,-1
 50 573 l 1,3,-1
 82 612 l 1,4,-1
 136 599 l 1,5,-1
 306 433 l 1,6,-1
 326 384 l 1,7,-1
 306 335 l 1,8,-1
 120 169 l 1,9,-1
 66 156 l 1,0,-1
EndSplineSet
EndChar

StartChar: fraction
Encoding: 8260 8260 225
Width: 499
GlyphClass: 2
Flags: W
LayerCount: 2
Fore
SplineSet
7 -130 m 1,0,-1
 356 876 l 1,1,-1
 476 876 l 1,2,-1
 492 860 l 1,3,-1
 149 -146 l 1,4,-1
 23 -146 l 1,5,-1
 7 -130 l 1,0,-1
EndSplineSet
EndChar

StartChar: Euro
Encoding: 8364 8364 226
Width: 554
GlyphClass: 2
Flags: W
LayerCount: 2
Fore
SplineSet
451 410 m 1,0,-1
 39 410 l 1,1,-1
 23 426 l 1,2,-1
 23 534 l 1,3,-1
 95 534 l 1,4,5
 111 667 111 667 168.5 717.5 c 128,-1,6
 226 768 226 768 344 768 c 128,-1,7
 462 768 462 768 512 734 c 0,8,9
 522 727 522 727 522 717 c 128,-1,10
 522 707 522 707 512.5 679.5 c 128,-1,11
 503 652 503 652 494.5 640.5 c 128,-1,12
 486 629 486 629 477 629 c 128,-1,13
 468 629 468 629 463 630 c 0,14,15
 388 645 388 645 330 645 c 0,16,17
 296 645 296 645 278 618.5 c 128,-1,18
 260 592 260 592 253 534 c 1,19,-1
 435 534 l 1,20,-1
 451 518 l 1,21,-1
 451 410 l 1,0,-1
451 196 m 1,22,-1
 254 196 l 1,23,24
 261 144 261 144 280 126 c 128,-1,25
 299 108 299 108 340 108 c 128,-1,26
 381 108 381 108 433.5 113 c 128,-1,27
 486 118 486 118 488 118 c 0,28,29
 513 118 513 118 513 86 c 128,-1,30
 513 54 513 54 512 38 c 0,31,32
 508 2 508 2 480 -3 c 0,33,34
 391 -16 391 -16 348 -16 c 0,35,36
 232 -16 232 -16 174.5 32 c 128,-1,37
 117 80 117 80 98 196 c 1,38,-1
 39 196 l 1,39,-1
 23 212 l 1,40,-1
 23 320 l 1,41,-1
 435 320 l 1,42,-1
 451 304 l 1,43,-1
 451 196 l 1,22,-1
EndSplineSet
EndChar

StartChar: trademark
Encoding: 8482 8482 227
Width: 699
GlyphClass: 2
Flags: W
LayerCount: 2
Fore
SplineSet
34 752 m 1,0,-1
 287 752 l 1,1,-1
 303 736 l 1,2,-1
 303 667 l 1,3,-1
 219 667 l 1,4,-1
 220 368 l 1,5,-1
 135 368 l 1,6,-1
 119 384 l 1,7,-1
 119 667 l 1,8,-1
 50 667 l 1,9,-1
 34 683 l 1,10,-1
 34 752 l 1,0,-1
448 368 m 1,11,-1
 363 368 l 1,12,-1
 347 384 l 1,13,-1
 347 752 l 1,14,-1
 439 752 l 1,15,-1
 455 736 l 1,16,-1
 501 621 l 1,17,-1
 554 752 l 1,18,-1
 627 752 l 1,19,-1
 643 736 l 1,20,-1
 654 572 l 1,21,-1
 654 368 l 1,22,-1
 570 368 l 1,23,-1
 554 384 l 1,24,-1
 554 592 l 1,25,-1
 521 527 l 1,26,-1
 477 527 l 1,27,-1
 448 586 l 1,28,-1
 448 368 l 1,11,-1
EndSplineSet
EndChar

StartChar: minus
Encoding: 8722 8722 228
Width: 556
GlyphClass: 2
Flags: W
LayerCount: 2
Fore
SplineSet
511 308 m 1,0,-1
 61 308 l 1,1,-1
 45 324 l 1,2,-1
 45 432 l 1,3,-1
 495 432 l 1,4,-1
 511 416 l 1,5,-1
 511 308 l 1,0,-1
EndSplineSet
EndChar

StartChar: fi
Encoding: 64257 64257 229
Width: 520
GlyphClass: 3
Flags: W
LayerCount: 2
Fore
SplineSet
355 0 m 2,0,-1
 355 416 l 1,1,-1
 240 416 l 1,2,-1
 240 -224 l 2,3,4
 240 -230 240 -230 238 -232 c 0,5,6
 234 -240 234 -240 200.5 -240 c 128,-1,7
 167 -240 167 -240 133 -235 c 128,-1,8
 99 -230 99 -230 99 -224 c 2,9,-1
 99 416 l 1,10,-1
 19 416 l 2,11,12
 7 416 7 416 5.5 421.5 c 128,-1,13
 4 427 4 427 4 434 c 0,14,15
 4 477 4 477 19 480 c 2,16,-1
 99 496 l 1,17,18
 99 657 99 657 141.5 712.5 c 128,-1,19
 184 768 184 768 306 768 c 0,20,21
 374 768 374 768 454 744 c 0,22,23
 480 736 480 736 483 734 c 1,24,-1
 484 734 l 1,25,26
 493 729 493 729 493 716.5 c 128,-1,27
 493 704 493 704 487.5 682 c 128,-1,28
 482 660 482 660 474.5 647 c 128,-1,29
 467 634 467 634 457 639 c 0,30,31
 401 667 401 667 294 667 c 0,32,33
 256 667 256 667 244 629 c 128,-1,34
 232 591 232 591 232 496 c 1,35,-1
 375 496 l 2,36,37
 491 496 491 496 491 457 c 2,38,-1
 491 0 l 2,39,40
 491 -6 491 -6 490 -8 c 0,41,42
 485 -16 485 -16 452 -16 c 128,-1,43
 419 -16 419 -16 387 -11 c 128,-1,44
 355 -6 355 -6 355 0 c 2,0,-1
EndSplineSet
Substitution2: "'smcp' Lowercase to Small Capitals in Latin lookup 1 subtable" fi_smcp
Ligature2: "'liga' Standard Ligatures in Latin lookup 0 subtable" f i
EndChar

StartChar: fl
Encoding: 64258 64258 230
Width: 537
GlyphClass: 3
Flags: W
LayerCount: 2
Fore
SplineSet
509 0 m 2,0,1
 509 -6 509 -6 508 -8 c 0,2,3
 503 -16 503 -16 470 -16 c 128,-1,4
 437 -16 437 -16 405.5 -11 c 128,-1,5
 374 -6 374 -6 374 0 c 2,6,-1
 374 662 l 1,7,8
 338 667 338 667 297 667 c 128,-1,9
 256 667 256 667 244 629 c 128,-1,10
 232 591 232 591 232 496 c 1,11,-1
 328 496 l 2,12,13
 344 496 344 496 344 456 c 128,-1,14
 344 416 344 416 328 416 c 2,15,-1
 240 416 l 1,16,-1
 240 -224 l 2,17,18
 240 -230 240 -230 238 -232 c 0,19,20
 234 -240 234 -240 200.5 -240 c 128,-1,21
 167 -240 167 -240 133 -235 c 128,-1,22
 99 -230 99 -230 99 -224 c 2,23,-1
 99 416 l 1,24,-1
 19 416 l 2,25,26
 7 416 7 416 5.5 421.5 c 128,-1,27
 4 427 4 427 4 434 c 0,28,29
 4 477 4 477 19 480 c 2,30,-1
 99 496 l 1,31,32
 99 657 99 657 141.5 712.5 c 128,-1,33
 184 768 184 768 306 768 c 0,34,35
 335 768 335 768 412.5 757.5 c 128,-1,36
 490 747 490 747 491 737 c 2,37,-1
 509 431 l 1,38,-1
 509 0 l 2,0,1
EndSplineSet
Substitution2: "'smcp' Lowercase to Small Capitals in Latin lookup 1 subtable" fl_smcp
Ligature2: "'liga' Standard Ligatures in Latin lookup 0 subtable" f l
EndChar

StartChar: T_i
Encoding: 65540 -1 232
Width: 628
GlyphClass: 3
Flags: W
LayerCount: 2
Fore
SplineSet
176 21 m 2,0,-1
 176 632 l 1,1,-1
 51 632 l 1,2,3
 27 633 27 633 20 645 c 0,4,5
 11 659 11 659 11 695 c 0,6,7
 11 752 11 752 45 752 c 2,8,-1
 534 752 l 2,9,10
 592 752 592 752 592 721 c 0,11,12
 592 632 592 632 544 632 c 2,13,-1
 307 633 l 1,14,-1
 316 430 l 1,15,-1
 317 23 l 2,16,17
 317 4 317 4 316 -2 c 0,18,19
 312 -16 312 -16 277 -16 c 0,20,21
 176 -16 176 -16 176 21 c 2,0,-1
433 0 m 2,22,-1
 433 496 l 2,23,24
 433 512 433 512 469 512 c 128,-1,25
 505 512 505 512 537 507 c 128,-1,26
 569 502 569 502 569 496 c 2,27,-1
 569 0 l 2,28,29
 569 -6 569 -6 568 -8 c 0,30,31
 563 -16 563 -16 530 -16 c 128,-1,32
 497 -16 497 -16 465 -11 c 128,-1,33
 433 -6 433 -6 433 0 c 2,22,-1
EndSplineSet
Ligature2: "'liga' Standard Ligatures in Latin lookup 0 subtable" T i
EndChar

StartChar: F_i
Encoding: 65541 -1 233
Width: 513
GlyphClass: 3
Flags: W
LayerCount: 2
Fore
SplineSet
327 0 m 2,0,-1
 327 334 l 1,1,-1
 185 334 l 1,2,-1
 185 0 l 2,3,4
 185 -6 185 -6 184 -8 c 0,5,6
 179 -16 179 -16 145.5 -16 c 128,-1,7
 112 -16 112 -16 78.5 -11 c 128,-1,8
 45 -6 45 -6 45 0 c 2,9,-1
 45 752 l 1,10,-1
 420 752 l 1,11,12
 473 751 473 751 473 723 c 0,13,14
 473 672 473 672 462 652 c 128,-1,15
 451 632 451 632 415 632 c 2,16,-1
 173 632 l 1,17,-1
 183 455 l 1,18,-1
 422 455 l 2,19,20
 463 455 463 455 463 423 c 2,21,-1
 463 0 l 2,22,23
 463 -6 463 -6 462 -8 c 0,24,25
 457 -16 457 -16 424 -16 c 128,-1,26
 391 -16 391 -16 359 -11 c 128,-1,27
 327 -6 327 -6 327 0 c 2,0,-1
EndSplineSet
Ligature2: "'liga' Standard Ligatures in Latin lookup 0 subtable" F i
EndChar

StartChar: V_i
Encoding: 65542 -1 234
Width: 732
GlyphClass: 3
Flags: W
LayerCount: 2
Fore
SplineSet
24 739 m 0,0,1
 24 768 24 768 92 768 c 0,2,3
 125 768 125 768 143.5 759.5 c 128,-1,4
 162 751 162 751 168 727 c 2,5,-1
 304 194 l 1,6,-1
 420 713 l 2,7,8
 424 734 424 734 437 741.5 c 128,-1,9
 450 749 450 749 481 749 c 2,10,-1
 627 749 l 2,11,12
 685 749 685 749 685 718 c 0,13,14
 685 629 685 629 637 629 c 2,15,-1
 528 630 l 1,16,-1
 383 21 l 2,17,18
 378 -2 378 -2 370 -9 c 128,-1,19
 362 -16 362 -16 322 -16 c 0,20,21
 229 -16 229 -16 219 22 c 2,22,-1
 25 731 l 2,23,24
 24 735 24 735 24 739 c 0,0,1
551 0 m 2,25,-1
 551 496 l 2,26,27
 551 512 551 512 587 512 c 128,-1,28
 623 512 623 512 655 507 c 128,-1,29
 687 502 687 502 687 496 c 2,30,-1
 687 0 l 2,31,32
 687 -6 687 -6 686 -8 c 0,33,34
 681 -16 681 -16 648 -16 c 128,-1,35
 615 -16 615 -16 583 -11 c 128,-1,36
 551 -6 551 -6 551 0 c 2,25,-1
EndSplineSet
Ligature2: "'liga' Standard Ligatures in Latin lookup 0 subtable" V i
EndChar

StartChar: W_i
Encoding: 65543 -1 235
Width: 1093
GlyphClass: 3
Flags: W
LayerCount: 2
Fore
SplineSet
32 740 m 0,0,1
 32 768 32 768 99.5 768 c 128,-1,2
 167 768 167 768 176 731 c 2,3,-1
 311 194 l 1,4,-1
 407 632 l 2,5,6
 411 652 411 652 424 659 c 128,-1,7
 437 666 437 666 468 666 c 0,8,9
 548 666 548 666 559 623 c 2,10,-1
 667 194 l 1,11,-1
 784 713 l 2,12,13
 788 734 788 734 801 741.5 c 128,-1,14
 814 749 814 749 845 749 c 2,15,-1
 991 749 l 2,16,17
 1049 749 1049 749 1049 718 c 0,18,19
 1049 629 1049 629 1001 629 c 2,20,-1
 893 629 l 1,21,-1
 748 20 l 2,22,23
 743 -1 743 -1 733.5 -8.5 c 128,-1,24
 724 -16 724 -16 703 -16 c 0,25,26
 596 -16 596 -16 586 20 c 2,27,-1
 480 375 l 1,28,-1
 390 22 l 2,29,30
 385 0 385 0 375 -8 c 128,-1,31
 365 -16 365 -16 345 -16 c 0,32,33
 238 -16 238 -16 229 20 c 2,34,-1
 33 734 l 2,35,36
 32 737 32 737 32 740 c 0,0,1
911 0 m 2,37,-1
 911 496 l 2,38,39
 911 512 911 512 947 512 c 128,-1,40
 983 512 983 512 1015 507 c 128,-1,41
 1047 502 1047 502 1047 496 c 2,42,-1
 1047 0 l 2,43,44
 1047 -6 1047 -6 1046 -8 c 0,45,46
 1041 -16 1041 -16 1008 -16 c 128,-1,47
 975 -16 975 -16 943 -11 c 128,-1,48
 911 -6 911 -6 911 0 c 2,37,-1
EndSplineSet
Ligature2: "'liga' Standard Ligatures in Latin lookup 0 subtable" W i
EndChar

StartChar: Y_i
Encoding: 65544 -1 236
Width: 738
GlyphClass: 3
Flags: W
LayerCount: 2
Fore
SplineSet
21 745 m 0,0,1
 21 768 21 768 87 768 c 128,-1,2
 153 768 153 768 168 731 c 1,3,-1
 305 492 l 1,4,-1
 419 718 l 1,5,6
 427 738 427 738 441 745 c 128,-1,7
 455 752 455 752 485 752 c 2,8,-1
 636 752 l 2,9,10
 694 752 694 752 694 721 c 0,11,12
 694 632 694 632 646 632 c 2,13,-1
 507 632 l 1,14,-1
 360 349 l 1,15,-1
 360 21 l 2,16,17
 360 4 360 4 358 -2 c 0,18,19
 355 -16 355 -16 320 -16 c 0,20,21
 243 -16 243 -16 243 22 c 2,22,-1
 243 349 l 1,23,-1
 25 732 l 2,24,25
 21 739 21 739 21 745 c 0,0,1
559 0 m 2,26,-1
 559 496 l 2,27,28
 559 512 559 512 595 512 c 128,-1,29
 631 512 631 512 663 507 c 128,-1,30
 695 502 695 502 695 496 c 2,31,-1
 695 0 l 2,32,33
 695 -6 695 -6 694 -8 c 0,34,35
 689 -16 689 -16 656 -16 c 128,-1,36
 623 -16 623 -16 591 -11 c 128,-1,37
 559 -6 559 -6 559 0 c 2,26,-1
EndSplineSet
Ligature2: "'liga' Standard Ligatures in Latin lookup 0 subtable" Y i
EndChar

StartChar: t_i
Encoding: 65545 -1 237
Width: 520
GlyphClass: 3
Flags: W
LayerCount: 2
Fore
SplineSet
326 696 m 128,-1,1
 326 768 326 768 398 768 c 128,-1,2
 470 768 470 768 470 696 c 128,-1,3
 470 624 470 624 398 624 c 128,-1,0
 326 624 326 624 326 696 c 128,-1,1
343 0 m 2,4,-1
 343 416 l 1,5,-1
 228 416 l 1,6,-1
 228 98 l 1,7,-1
 244 -15 l 1,8,-1
 244 -16 l 1,9,10
 245 -22 245 -22 244 -24 c 0,11,12
 239 -32 239 -32 193.5 -32 c 128,-1,13
 148 -32 148 -32 141 -16 c 2,14,-1
 93 81 l 1,15,-1
 93 416 l 1,16,-1
 13 416 l 2,17,18
 1 416 1 416 -0.5 421.5 c 128,-1,19
 -2 427 -2 427 -2 434 c 0,20,21
 -2 477 -2 477 13 480 c 2,22,-1
 93 496 l 1,23,-1
 149 609 l 1,24,25
 161 624 161 624 195 624 c 0,26,27
 204 624 204 624 212 588 c 128,-1,28
 220 552 220 552 229 496 c 1,29,-1
 383 496 l 2,30,31
 479 496 479 496 479 468 c 2,32,-1
 479 0 l 2,33,34
 479 -6 479 -6 478 -8 c 0,35,36
 473 -16 473 -16 440 -16 c 128,-1,37
 407 -16 407 -16 375 -11 c 128,-1,38
 343 -6 343 -6 343 0 c 2,4,-1
EndSplineSet
Substitution2: "'smcp' Lowercase to Small Capitals in Latin lookup 1 subtable" t_i_smcp
Ligature2: "'liga' Standard Ligatures in Latin lookup 0 subtable" t i
EndChar

StartChar: T_iacute
Encoding: 65546 -1 238
Width: 701
GlyphClass: 3
Flags: W
LayerCount: 2
Fore
SplineSet
176 21 m 2,0,-1
 176 632 l 1,1,-1
 51 632 l 1,2,3
 27 633 27 633 20 645 c 0,4,5
 11 659 11 659 11 695 c 0,6,7
 11 752 11 752 45 752 c 2,8,-1
 534 752 l 2,9,10
 554 752 554 752 577.5 742 c 128,-1,11
 601 732 601 732 671 692 c 1,12,-1
 528 533 l 1,13,-1
 482 554 l 1,14,-1
 481 609 l 1,15,-1
 491 632 l 1,16,-1
 307 633 l 1,17,-1
 316 430 l 1,18,-1
 317 23 l 2,19,20
 317 4 317 4 316 -2 c 0,21,22
 312 -16 312 -16 277 -16 c 0,23,24
 176 -16 176 -16 176 21 c 2,0,-1
433 0 m 2,25,-1
 433 496 l 2,26,27
 433 512 433 512 469 512 c 128,-1,28
 505 512 505 512 537 507 c 128,-1,29
 569 502 569 502 569 496 c 2,30,-1
 569 0 l 2,31,32
 569 -6 569 -6 568 -8 c 0,33,34
 563 -16 563 -16 530 -16 c 128,-1,35
 497 -16 497 -16 465 -11 c 128,-1,36
 433 -6 433 -6 433 0 c 2,25,-1
EndSplineSet
Ligature2: "'liga' Standard Ligatures in Latin lookup 0 subtable" T iacute
EndChar

StartChar: T_igrave
Encoding: 65547 -1 239
Width: 605
GlyphClass: 3
Flags: W
LayerCount: 2
Fore
SplineSet
176 21 m 2,0,-1
 176 632 l 1,1,-1
 51 632 l 1,2,3
 27 633 27 633 20 645 c 0,4,5
 11 659 11 659 11 695 c 0,6,7
 11 752 11 752 45 752 c 2,8,-1
 399 752 l 2,9,10
 431 752 431 752 450 728.5 c 128,-1,11
 469 705 469 705 511 609 c 1,12,-1
 510 554 l 1,13,-1
 464 533 l 1,14,-1
 372 632 l 1,15,-1
 307 633 l 1,16,-1
 316 430 l 1,17,-1
 317 23 l 2,18,19
 317 4 317 4 316 -2 c 0,20,21
 312 -16 312 -16 277 -16 c 0,22,23
 176 -16 176 -16 176 21 c 2,0,-1
431 0 m 2,24,-1
 431 496 l 2,25,26
 431 512 431 512 467 512 c 128,-1,27
 503 512 503 512 535 507 c 128,-1,28
 567 502 567 502 567 496 c 2,29,-1
 567 0 l 2,30,31
 567 -6 567 -6 566 -8 c 0,32,33
 561 -16 561 -16 528 -16 c 128,-1,34
 495 -16 495 -16 463 -11 c 128,-1,35
 431 -6 431 -6 431 0 c 2,24,-1
EndSplineSet
Ligature2: "'liga' Standard Ligatures in Latin lookup 0 subtable" T igrave
EndChar

